<svg display="block" role="presentation" viewBox="0 0 1080 1080" xmlns="http://www.w3.org/2000/svg"><defs ><linearGradient id="lX2YS8ERJ-3007012513-linear-gradient" x1="0" x2="1" y1="0.4975124378109453" y2="0.5024875621890547"><stop offset="0" stop-color="rgb(137, 34, 225)"/><stop offset="1" stop-color="rgb(87, 35, 224)"/></linearGradient></defs><g d="M 845.986 17.59 L 845.986 828.41 C 845.988 833.076 844.136 837.551 840.837 840.851 C 837.538 844.15 833.063 846.002 828.397 846 L 17.589 846 C 7.884 846 0 838.129 0 828.41 L 0 17.59 C 0 7.871 7.884 0 17.589 0 L 828.397 0 C 838.116 0 845.986 7.871 845.986 17.59 Z M 650.354 677.903 C 494.473 570.503 278.911 588.887 100.718 609.693 C 67.141 613.622 33.563 618.399 0 623.724 L 0 635.168 C 31.045 630.965 62.117 627.242 93.217 624.258 C 273.983 606.887 496.088 593.459 650.259 708.346 C 711.595 754.065 772.563 802.016 837.431 843.328 C 842.564 840.248 845.986 834.636 845.986 828.229 L 845.986 810.297 C 779.078 768.78 714.867 722.349 650.354 677.903 Z M 651.244 620.48 C 493.173 528.398 289.834 555.364 117.5 582.412 C 78.214 588.572 39.066 595.499 0 602.863 L 0 614.676 C 35.343 608.379 70.672 602.658 105.988 597.88 C 281.909 574.117 493.433 551.175 650.587 652.47 C 715.675 694.425 780.05 738.42 845.986 779.553 L 845.986 741.869 C 781.515 700.722 717.427 659.027 651.244 620.48 Z M 652.325 560.949 C 491.749 482.336 291.983 521.841 124.823 555.871 C 83.06 564.371 41.489 573.652 0 583.288 L 0 594.048 C 40.298 585.67 80.665 577.704 121.182 570.503 C 291.148 540.362 492.516 507.947 651.696 593.979 C 718.659 630.171 782.583 670.402 845.986 711.741 L 845.986 674.919 C 783.938 633.087 720.315 594.226 652.325 560.949 Z M 653.585 500.35 C 490.189 435.193 291.833 488.291 129.066 529.383 C 85.894 540.279 42.913 551.915 0 563.782 L 0 574.569 C 42.256 563.919 84.579 553.571 127.095 543.989 C 292.148 506.798 491.106 461.283 652.887 533.86 C 721.738 564.754 785.074 602.822 845.986 645.215 L 845.986 608.845 C 786.47 565.63 723.504 528.247 653.585 500.35 Z M 654.817 439.683 C 582.064 417.166 503.767 421.094 429.262 431.525 C 327.792 445.72 228.429 473.384 130.503 502.896 C 86.865 516.051 43.405 529.835 0 543.729 L 0 554.899 C 43.255 542.086 86.551 529.452 130.052 517.502 C 291.285 473.247 489.299 413.976 654.146 473.11 C 724.928 498.502 787.592 535.516 845.986 579.456 L 845.986 543.483 C 788.934 498.626 726.639 461.913 654.817 439.683 Z M 655.816 379.892 C 581.188 363.425 501.646 374.047 427.716 389.036 C 326.108 409.651 227.142 442.38 129.367 476.423 C 86.14 491.48 43.063 507.044 0 522.608 L 0 534.434 C 43.364 519.733 86.729 505.086 130.298 491.028 C 228.1 459.463 327.23 429.499 428.729 412.388 C 502.878 399.891 581.776 392.882 655.296 412.717 C 727.967 432.319 789.974 468.826 845.986 514.395 L 845.986 478.818 C 791.22 432.415 729.568 396.168 655.816 379.892 Z M 656.418 321.976 C 579.367 311.874 499.168 328.177 424.868 347.546 C 322.905 374.143 223.967 411.622 125.945 449.936 C 83.881 466.389 41.968 483.212 0 499.94 L 0 512.656 C 42.666 496.504 85.305 480.31 128.108 464.555 C 225.951 428.554 324.849 393.649 426.607 370.283 C 500.578 353.309 580.503 339.977 656.158 353.651 C 730.827 367.148 792.164 403.053 845.986 450.018 L 845.986 414.688 C 793.246 367.217 732.278 331.928 656.418 321.976 Z M 655.364 267.537 C 572.948 263.746 489.354 286.291 411.481 310.848 C 310.079 342.824 211.729 384.026 113.982 425.625 C 75.956 441.805 38.012 458.231 0 474.493 L 0 489.167 C 41.243 472.125 82.417 454.932 123.728 438.068 C 221.968 397.961 321.002 358.497 423.171 329.409 C 497.991 308.124 578.204 289.822 656.514 296.885 C 733.401 303.825 794.053 338.361 845.986 386.079 L 845.986 352.009 C 794.053 304.551 733.045 271.124 655.364 267.537 Z M 768.744 260.611 C 755.644 253.863 742.079 248.045 727.994 243.309 C 710.637 234.671 693.021 227.033 675.13 220.449 C 667.656 219.258 660.059 218.355 652.339 217.753 C 667.629 222.776 682.754 228.539 697.729 234.986 C 692.199 233.809 686.601 232.796 680.92 231.947 C 667.091 226.424 653.044 221.46 638.815 217.068 C 634.832 216.931 630.821 216.89 626.77 216.945 C 640.116 220.86 653.407 225.281 666.616 230.209 C 664.563 230.004 662.496 229.826 660.429 229.675 L 658.663 229.552 C 649.643 228.95 640.444 228.772 631.04 229.045 C 545.037 231.523 458.309 259.694 378.068 288.508 C 279.951 323.742 184.64 366.491 89.658 409.336 C 60.064 422.682 30.169 436.59 0.014 450.634 L 0.014 462.762 C 35.822 447.089 71.562 431.265 107.37 415.633 C 204.392 373.267 301.921 331.202 402.447 297.72 C 480.812 271.617 564.762 247.128 648.137 247.84 C 679.702 248.113 708.735 253.561 735.646 263.061 C 736.275 263.28 736.905 263.513 737.535 263.746 C 741.723 265.251 745.843 266.853 749.922 268.564 C 776.354 279.57 800.706 294.517 823.373 312.216 C 824.427 313.01 825.468 313.832 826.508 314.68 C 827.507 315.461 828.506 316.268 829.492 317.076 C 835.104 321.62 840.593 326.329 846 331.202 L 846 314.557 C 822.087 293.354 796.49 274.902 768.757 260.611 Z M 780.392 254.684 C 780.392 254.684 780.324 254.643 780.297 254.629 C 759.326 241.926 737.411 231.277 714.429 223.228 C 703.486 219.379 692.335 216.148 681.03 213.55 C 671.065 211.264 660.894 209.471 650.532 208.198 C 643.976 207.39 637.337 206.802 630.616 206.432 C 624.1 206.063 617.489 205.898 610.795 205.967 C 606.771 205.994 602.706 206.117 598.613 206.309 C 594.999 206.487 591.358 206.72 587.703 207.021 C 586.129 207.144 584.541 207.281 582.954 207.445 C 582.694 207.459 582.447 207.486 582.187 207.514 L 581.749 207.555 C 496.54 216.069 412.097 246.827 333.062 278.214 C 239.598 315.337 148.805 358.867 58.106 402.204 C 38.847 411.403 19.478 420.807 0 430.279 L 0 441.011 C 25.83 428.76 51.454 416.618 76.873 404.846 C 170.144 361.686 263.649 318.486 359.89 282.294 C 439.816 252.234 525.819 222.68 611.754 217.479 C 614.505 217.315 617.256 217.191 619.98 217.095 C 620.473 217.095 620.966 217.054 621.459 217.041 C 623.238 217 625.004 216.959 626.77 216.945 C 630.821 216.89 634.832 216.931 638.815 217.068 C 643.373 217.178 647.877 217.424 652.339 217.753 C 660.059 218.355 667.656 219.258 675.13 220.449 C 683.37 221.75 691.46 223.406 699.399 225.391 C 723.066 235.219 746.186 247.032 768.744 260.611 C 789.632 273.177 810.041 287.262 829.957 302.689 C 835.337 306.851 840.689 311.067 845.986 315.296 L 845.986 310.081 C 812.683 282.225 777.737 258.202 741.094 239.284 C 779.311 255.218 814.011 278.776 845.986 306.946 L 845.986 303.141 C 825.167 284.976 803.348 268.591 780.392 254.684 Z M 845.986 303.292 C 825.057 285.237 803.211 268.838 780.392 254.684 C 780.351 254.67 780.324 254.643 780.297 254.629 C 746.856 233.905 711.308 217.999 673.46 208.718 C 687.381 212.756 701.028 217.616 714.429 223.228 C 703.486 219.379 692.335 216.148 681.03 213.55 C 669.135 209.485 657.089 205.967 644.865 203.051 C 654.478 204.503 664.02 206.394 673.46 208.718 C 652.476 202.599 630.903 198.356 608.729 196.207 C 600.899 195.44 593.001 194.948 585.021 194.729 C 573.494 194.405 561.959 194.656 550.458 195.481 C 546.68 195.742 542.888 196.07 539.083 196.467 C 535.77 196.796 532.444 197.193 529.104 197.631 C 527.749 197.808 526.38 197.986 525.011 198.192 C 524.875 198.205 524.738 198.219 524.587 198.247 C 521.685 198.657 518.77 199.109 515.84 199.602 C 345.189 228.156 183.983 319.786 31.675 397.016 C 21.148 402.355 10.595 407.734 0 413.155 L 0 422.395 C 18.671 413.086 37.218 403.86 55.684 394.812 C 211.551 318.39 379.369 225.185 554.167 202.339 C 554.195 202.326 554.208 202.326 554.236 202.326 C 554.523 202.285 554.797 202.257 555.084 202.216 C 556.549 202.025 558.027 201.847 559.492 201.682 C 568.94 203.219 578.347 204.999 587.703 207.021 C 591.358 206.72 594.999 206.487 598.613 206.309 C 589.045 204.16 579.449 202.271 569.813 200.656 C 573.687 200.327 577.533 200.067 581.366 199.889 L 581.379 199.889 C 591.235 201.614 601.036 203.64 610.795 205.967 C 624.757 209.293 638.61 213.235 652.339 217.753 C 660.059 218.355 667.656 219.258 675.13 220.449 C 683.37 221.75 691.46 223.406 699.399 225.391 C 723.066 235.219 746.186 247.032 768.744 260.611 C 789.632 273.177 810.041 287.262 829.957 302.689 C 835.337 306.851 840.689 311.067 845.986 315.296 L 845.986 310.081 C 812.683 282.225 777.737 258.202 741.094 239.284 C 779.311 255.218 814.011 278.776 845.986 306.946 Z M 599.982 199.506 C 606.046 199.547 612.055 199.78 618.009 200.149 C 628.96 202.408 639.801 205.104 650.532 208.198 C 643.976 207.39 637.337 206.802 630.616 206.432 C 620.473 203.777 610.262 201.463 599.982 199.506 Z M 741.094 239.284 C 721.547 229.196 701.535 220.559 681.03 213.55 C 669.135 209.485 657.089 205.967 644.865 203.051 C 632.97 200.204 620.925 197.918 608.729 196.207 C 594.091 194.17 579.346 193.004 564.57 192.716 C 571.428 193.223 578.245 193.894 585.021 194.729 C 579.532 194.578 574.002 194.551 568.417 194.66 C 561.641 193.866 554.838 193.223 547.994 192.744 C 553.551 192.607 559.081 192.593 564.57 192.716 C 551.717 191.786 538.727 191.443 525.614 191.745 C 518.975 191.881 512.295 192.196 505.588 192.675 C 505.574 192.662 505.547 192.662 505.519 192.675 C 501.522 192.963 497.512 193.305 493.474 193.702 C 490.284 194.017 487.081 194.373 483.878 194.783 C 483.167 194.852 482.441 194.948 481.729 195.043 C 481.36 195.084 480.99 195.139 480.621 195.194 C 467.11 196.946 453.49 199.369 439.734 202.504 C 283.141 238.135 141.468 317.966 0 397.838 L 0 406.037 C 2.094 404.942 4.189 403.86 6.283 402.765 C 156.785 324.344 314.049 232.563 482.619 199.903 C 489.805 198.507 496.951 197.329 504.041 196.344 C 504.082 196.33 504.137 196.33 504.178 196.316 C 505.451 196.138 506.724 195.974 507.983 195.81 C 511.296 195.386 514.608 195.002 517.894 194.674 C 521.795 194.263 525.668 193.921 529.529 193.634 C 536.523 194.099 543.504 194.715 550.458 195.481 C 546.68 195.742 542.888 196.07 539.083 196.467 C 549.363 197.548 559.615 198.945 569.813 200.656 C 573.687 200.327 577.533 200.067 581.366 199.889 L 581.379 199.889 C 591.235 201.614 601.036 203.64 610.795 205.967 C 624.757 209.293 638.61 213.235 652.339 217.753 C 660.059 218.355 667.656 219.258 675.13 220.449 C 683.37 221.75 691.46 223.406 699.399 225.391 C 723.066 235.219 746.186 247.032 768.744 260.611 C 789.632 273.177 810.041 287.262 829.957 302.689 C 835.337 306.851 840.689 311.067 845.986 315.296 L 845.986 310.081 C 812.683 282.225 777.737 258.202 741.094 239.284 Z M 599.982 199.506 C 606.046 199.547 612.055 199.78 618.009 200.149 C 628.96 202.408 639.801 205.104 650.532 208.198 C 643.976 207.39 637.337 206.802 630.616 206.432 C 620.473 203.777 610.262 201.463 599.982 199.506 Z M 829.957 302.689 C 810.041 287.262 789.632 273.177 768.744 260.611 C 755.644 253.863 742.079 248.045 727.994 243.309 C 710.637 234.671 693.021 227.033 675.13 220.449 C 660.524 215.07 645.669 210.393 630.616 206.432 C 620.473 203.777 610.262 201.463 599.982 199.506 C 589.538 197.521 579.011 195.906 568.417 194.66 C 561.641 193.866 554.838 193.223 547.994 192.744 L 547.925 192.744 C 540.52 192.224 533.087 191.881 525.614 191.745 C 512.528 191.498 499.36 191.827 486.082 192.757 C 492.584 192.593 499.059 192.566 505.519 192.675 C 501.522 192.963 497.512 193.305 493.474 193.702 C 487.054 193.606 480.621 193.62 474.16 193.77 C 478.143 193.373 482.126 193.045 486.082 192.757 C 475.775 193.018 465.44 193.606 455.065 194.537 C 454.695 194.578 454.312 194.605 453.942 194.646 C 452.081 194.824 450.205 195.002 448.344 195.208 C 448.234 195.208 448.125 195.221 448.029 195.235 C 418.928 198.274 389.525 203.996 359.904 212.537 C 232.905 249.195 116.062 315.652 0 383.999 L 0 391.815 C 129.997 316.98 260.487 243.062 403.583 206.282 C 423.609 201.135 443.457 197.398 463.1 194.989 C 463.852 194.893 464.619 194.797 465.386 194.715 C 465.536 194.688 465.7 194.674 465.851 194.66 C 466.549 194.66 467.247 194.66 467.932 194.688 C 473.256 194.633 478.567 194.674 483.878 194.783 C 491.927 194.948 499.962 195.29 507.983 195.81 C 511.296 195.386 514.608 195.002 517.894 194.674 C 521.795 194.263 525.668 193.921 529.529 193.634 C 536.523 194.099 543.504 194.715 550.458 195.481 C 546.68 195.742 542.888 196.07 539.083 196.467 C 549.363 197.548 559.615 198.945 569.813 200.656 C 573.687 200.327 577.533 200.067 581.366 199.889 L 581.379 199.889 C 591.235 201.614 601.036 203.64 610.795 205.967 C 624.757 209.293 638.61 213.235 652.339 217.753 C 667.629 222.776 682.754 228.539 697.729 234.986 C 730.047 248.921 761.64 266.1 792.356 286.277 C 810.575 298.241 828.411 310.67 845.986 323.414 L 845.986 315.296 C 840.676 311.053 835.333 306.85 829.957 302.689 Z M 286.33 226.198 C 186.091 260.159 92.505 313.462 0 369.735 L 0 377.428 C 105.29 314.379 211.565 253.89 326.382 218.314 C 364.928 206.364 403.241 198.849 441.185 195.564 C 389.881 198.493 338.126 208.663 286.33 226.198 Z M 829.957 302.689 C 810.041 287.262 789.632 273.177 768.744 260.611 C 755.644 253.863 742.079 248.045 727.994 243.309 C 710.637 234.671 693.021 227.033 675.13 220.449 C 667.656 219.258 660.059 218.355 652.339 217.753 C 667.629 222.776 682.754 228.539 697.729 234.986 C 692.199 233.809 686.601 232.796 680.92 231.947 C 667.091 226.424 653.044 221.46 638.815 217.068 C 643.373 217.178 647.877 217.424 652.339 217.753 C 638.61 213.235 624.757 209.293 610.795 205.967 C 606.771 205.994 602.706 206.117 598.613 206.309 C 589.045 204.16 579.449 202.271 569.813 200.656 C 559.615 198.945 549.363 197.548 539.083 196.467 C 532.033 195.714 524.97 195.112 517.894 194.674 C 509.776 194.14 501.632 193.825 493.474 193.702 C 487.054 193.606 480.621 193.62 474.16 193.77 C 467.808 193.907 461.443 194.167 455.065 194.537 C 454.49 194.578 453.901 194.619 453.326 194.646 C 449.945 194.865 446.578 195.112 443.197 195.399 C 442.526 195.44 441.856 195.495 441.199 195.564 C 443.156 195.44 445.113 195.345 447.071 195.262 C 447.386 195.235 447.7 195.235 448.029 195.235 C 448.125 195.221 448.234 195.208 448.344 195.208 C 454.024 194.948 459.719 194.783 465.386 194.715 C 466.234 194.701 467.083 194.688 467.932 194.688 C 473.256 194.633 478.567 194.674 483.878 194.783 C 491.927 194.948 499.962 195.29 507.983 195.81 C 515.033 196.289 522.082 196.878 529.104 197.631 C 539.261 198.685 549.39 200.04 559.492 201.682 C 568.94 203.219 578.347 204.999 587.703 207.021 C 600.789 209.841 613.807 213.153 626.77 216.945 C 640.116 220.86 653.407 225.281 666.616 230.209 C 694.759 240.694 722.546 253.493 749.909 268.564 C 749.991 268.605 750.059 268.646 750.141 268.687 C 770.154 279.72 789.755 291.383 809.028 303.511 C 814.887 307.193 820.704 310.916 826.494 314.68 C 833.024 318.924 839.526 323.222 845.986 327.561 L 845.986 315.296 C 840.676 311.053 835.333 306.85 829.957 302.689 Z M 507.983 195.81 C 499.962 195.29 491.927 194.948 483.878 194.783 C 483.167 194.852 482.441 194.948 481.729 195.043 C 477.13 194.865 472.531 194.742 467.932 194.688 C 467.247 194.674 466.549 194.66 465.851 194.66 C 461.881 194.619 457.912 194.605 453.942 194.646 L 453.326 194.646 C 376.207 195.44 298.759 211.292 222.516 241.009 C 145.314 271.11 72.137 312.737 0 357.238 L 0 363.89 C 82.595 313.188 166.257 265.511 255.176 233.125 C 317.621 210.388 380.587 197.754 443.197 195.399 C 444.484 195.331 445.77 195.29 447.071 195.262 C 447.386 195.235 447.7 195.235 448.029 195.235 C 453.052 195.071 458.076 194.989 463.1 194.989 C 468.944 194.961 474.776 195.043 480.621 195.194 C 488.437 195.413 496.252 195.796 504.041 196.344 C 504.999 196.399 505.944 196.467 506.888 196.549 C 505.985 196.467 505.081 196.399 504.178 196.316 C 505.451 196.138 506.724 195.974 507.983 195.81 Z M 829.957 302.689 C 810.041 287.262 789.632 273.177 768.744 260.611 C 755.644 253.863 742.079 248.045 727.994 243.309 C 710.637 234.671 693.021 227.033 675.13 220.449 C 667.656 219.258 660.059 218.355 652.339 217.753 C 667.629 222.776 682.754 228.539 697.729 234.986 C 692.199 233.809 686.601 232.796 680.92 231.947 C 667.091 226.424 653.044 221.46 638.815 217.068 C 643.373 217.178 647.877 217.424 652.339 217.753 C 638.61 213.235 624.757 209.293 610.795 205.967 C 606.771 205.994 602.706 206.117 598.613 206.309 C 589.045 204.16 579.449 202.271 569.813 200.656 C 559.615 198.945 549.363 197.548 539.083 196.467 C 532.033 195.714 524.97 195.112 517.894 194.674 C 514.608 195.002 511.296 195.386 507.983 195.81 C 515.033 196.289 522.082 196.878 529.104 197.631 C 527.749 197.808 526.38 197.986 525.011 198.192 C 519.221 197.562 513.431 197.028 507.627 196.604 C 523.213 197.877 538.739 199.791 554.167 202.339 C 563.379 203.845 572.564 205.584 581.749 207.555 C 594.52 210.292 607.264 213.468 619.98 217.095 C 633.006 220.813 645.903 224.967 658.649 229.552 C 676.964 236.15 695.197 243.692 713.293 252.206 C 720.794 255.738 728.227 259.352 735.618 263.061 C 742.353 266.442 749.033 269.892 755.685 273.41 C 749.662 270.111 743.612 266.894 737.507 263.746 C 741.696 265.251 745.816 266.853 749.895 268.564 C 749.977 268.605 750.046 268.646 750.128 268.687 C 770.14 279.72 789.741 291.383 809.014 303.511 C 791.754 293.189 774.246 283.265 756.465 273.834 C 781.337 287.372 805.606 301.882 829.465 317.076 C 834.995 320.58 840.497 324.139 845.973 327.725 L 845.973 315.296 C 840.662 311.053 835.319 306.85 829.944 302.689 Z M 582.954 207.445 C 573.687 205.46 564.392 203.722 555.084 202.216 C 556.549 202.025 558.027 201.847 559.492 201.682 C 568.94 203.219 578.347 204.999 587.703 207.021 C 586.129 207.144 584.541 207.281 582.954 207.445 Z M 660.429 229.675 C 647.507 224.994 634.517 220.778 621.459 217.041 C 623.238 217 625.004 216.959 626.77 216.945 C 640.116 220.86 653.407 225.281 666.616 230.209 C 664.563 230.004 662.496 229.826 660.429 229.675 Z" fill="transparent" height="846px" id="dZqPtIM8r" transform="translate(117 117)" width="846px"><path d="M 845.986 17.59 L 845.986 828.41 C 845.988 833.076 844.136 837.551 840.837 840.851 C 837.538 844.15 833.063 846.002 828.397 846 L 17.589 846 C 7.884 846 0 838.129 0 828.41 L 0 17.59 C 0 7.871 7.884 0 17.589 0 L 828.397 0 C 838.116 0 845.986 7.871 845.986 17.59 Z" fill="rgb(255, 100, 75)" height="846px" id="SooJgKODF" width="845.9863137093657px"/><path d="M 650.354 486.265 C 494.473 378.865 278.911 397.249 100.718 418.055 C 67.141 421.984 33.563 426.761 0 432.086 L 0 443.53 C 31.045 439.327 62.117 435.604 93.217 432.62 C 273.983 415.249 496.088 401.821 650.259 516.708 C 711.595 562.427 772.563 610.378 837.431 651.69 C 842.564 648.61 845.986 642.997 845.986 636.591 L 845.986 618.659 C 779.078 577.142 714.867 530.711 650.354 486.265 Z M 651.244 428.842 C 493.173 336.76 289.834 363.726 117.5 390.774 C 78.214 396.934 39.066 403.861 0 411.225 L 0 423.038 C 35.343 416.741 70.672 411.02 105.988 406.242 C 281.909 382.479 493.433 359.537 650.587 460.832 C 715.675 502.787 780.05 546.781 845.986 587.915 L 845.986 550.231 C 781.515 509.084 717.427 467.389 651.244 428.842 Z M 652.325 369.311 C 491.749 290.698 291.983 330.203 124.823 364.232 C 83.06 372.733 41.489 382.014 0 391.65 L 0 402.41 C 40.298 394.032 80.665 386.066 121.182 378.865 C 291.148 348.723 492.516 316.309 651.696 402.341 C 718.659 438.533 782.583 478.764 845.986 520.103 L 845.986 483.281 C 783.938 441.449 720.315 402.587 652.325 369.311 Z M 653.585 308.712 C 490.189 243.555 291.833 296.653 129.066 337.745 C 85.894 348.641 42.913 360.277 0 372.144 L 0 382.931 C 42.256 372.281 84.579 361.933 127.095 352.351 C 292.148 315.159 491.106 269.645 652.887 342.221 C 721.738 373.116 785.074 411.184 845.986 453.577 L 845.986 417.207 C 786.47 373.992 723.504 336.609 653.585 308.712 Z M 654.817 248.045 C 582.064 225.528 503.767 229.456 429.262 239.887 C 327.792 254.082 228.429 281.746 130.503 311.258 C 86.865 324.413 43.405 338.197 0 352.091 L 0 363.261 C 43.255 350.448 86.551 337.814 130.052 325.864 C 291.285 281.609 489.299 222.338 654.146 281.472 C 724.928 306.864 787.592 343.878 845.986 387.818 L 845.986 351.844 C 788.934 306.987 726.639 270.275 654.817 248.045 Z M 655.816 188.254 C 581.188 171.787 501.646 182.409 427.716 197.398 C 326.108 218.013 227.142 250.742 129.367 284.785 C 86.14 299.842 43.063 315.406 0 330.97 L 0 342.796 C 43.364 328.095 86.729 313.448 130.298 299.39 C 228.1 267.825 327.23 237.861 428.729 220.75 C 502.878 208.253 581.776 201.244 655.296 221.079 C 727.967 240.681 789.974 277.188 845.986 322.757 L 845.986 287.18 C 791.22 240.776 729.568 204.53 655.816 188.254 Z M 656.418 130.338 C 579.367 120.236 499.168 136.539 424.868 155.908 C 322.905 182.505 223.967 219.984 125.945 258.298 C 83.881 274.751 41.968 291.574 0 308.302 L 0 321.018 C 42.666 304.866 85.305 288.672 128.108 272.917 C 225.951 236.916 324.849 202.011 426.607 178.645 C 500.578 161.671 580.503 148.338 656.158 162.013 C 730.827 175.51 792.164 211.415 845.986 258.38 L 845.986 223.05 C 793.246 175.578 732.278 140.29 656.418 130.338 Z M 655.364 75.899 C 572.948 72.108 489.354 94.652 411.481 119.21 C 310.079 151.186 211.729 192.388 113.982 233.987 C 75.956 250.167 38.012 266.593 0 282.855 L 0 297.529 C 41.243 280.487 82.417 263.294 123.728 246.43 C 221.968 206.323 321.002 166.859 423.171 137.771 C 497.991 116.486 578.204 98.184 656.514 105.247 C 733.401 112.187 794.053 146.723 845.986 194.441 L 845.986 160.371 C 794.053 112.913 733.045 79.486 655.364 75.899 Z M 768.744 68.973 C 755.644 62.225 742.079 56.407 727.994 51.671 C 710.637 43.033 693.021 35.395 675.13 28.811 C 667.656 27.62 660.059 26.717 652.339 26.114 C 667.629 31.138 682.754 36.901 697.729 43.348 C 692.199 42.171 686.601 41.158 680.92 40.309 C 667.091 34.786 653.044 29.822 638.815 25.43 C 634.832 25.293 630.821 25.252 626.77 25.307 C 640.116 29.222 653.407 33.643 666.616 38.571 C 664.563 38.366 662.496 38.188 660.429 38.037 L 658.663 37.914 C 649.643 37.312 640.444 37.134 631.04 37.407 C 545.037 39.885 458.309 68.056 378.068 96.87 C 279.951 132.104 184.64 174.853 89.658 217.698 C 60.064 231.044 30.169 244.951 0.014 258.996 L 0.014 271.124 C 35.822 255.45 71.562 239.627 107.37 223.994 C 204.392 181.629 301.921 139.564 402.447 106.082 C 480.812 79.978 564.762 55.49 648.137 56.202 C 679.702 56.475 708.735 61.923 735.646 71.423 C 736.275 71.642 736.905 71.875 737.535 72.108 C 741.723 73.613 745.843 75.215 749.922 76.926 C 776.354 87.931 800.706 102.879 823.373 120.578 C 824.427 121.372 825.468 122.194 826.508 123.042 C 827.507 123.823 828.506 124.63 829.492 125.438 C 835.104 129.982 840.593 134.691 846 139.564 L 846 122.919 C 822.087 101.716 796.49 83.264 768.757 68.973 Z M 780.392 63.046 C 780.392 63.046 780.324 63.005 780.297 62.991 C 759.326 50.288 737.411 39.639 714.429 31.59 C 703.486 27.74 692.335 24.509 681.03 21.912 C 671.065 19.626 660.894 17.833 650.532 16.56 C 643.976 15.752 637.337 15.164 630.616 14.794 C 624.1 14.425 617.489 14.26 610.795 14.329 C 606.771 14.356 602.706 14.479 598.613 14.671 C 594.999 14.849 591.358 15.082 587.703 15.383 C 586.129 15.506 584.541 15.643 582.954 15.807 C 582.694 15.821 582.447 15.848 582.187 15.876 L 581.749 15.917 C 496.54 24.431 412.097 55.189 333.062 86.576 C 239.598 123.699 148.805 167.229 58.106 210.566 C 38.847 219.765 19.478 229.169 0 238.641 L 0 249.373 C 25.83 237.122 51.454 224.98 76.873 213.208 C 170.144 170.048 263.649 126.848 359.89 90.655 C 439.816 60.596 525.819 31.042 611.754 25.841 C 614.505 25.676 617.256 25.553 619.98 25.457 C 620.473 25.457 620.966 25.416 621.459 25.403 C 623.238 25.362 625.004 25.321 626.77 25.307 C 630.821 25.252 634.832 25.293 638.815 25.43 C 643.373 25.54 647.877 25.786 652.339 26.114 C 660.059 26.717 667.656 27.62 675.13 28.811 C 683.37 30.111 691.46 31.768 699.399 33.753 C 723.066 43.581 746.186 55.394 768.744 68.973 C 789.632 81.539 810.041 95.624 829.957 111.051 C 835.337 115.212 840.689 119.429 845.986 123.658 L 845.986 118.443 C 812.683 90.587 777.737 66.564 741.094 47.646 C 779.311 63.58 814.011 87.138 845.986 115.308 L 845.986 111.503 C 825.167 93.338 803.348 76.953 780.392 63.046 Z M 845.986 111.653 C 825.057 93.598 803.211 77.2 780.392 63.046 C 780.351 63.032 780.324 63.005 780.297 62.991 C 746.856 42.267 711.308 26.361 673.46 17.08 C 687.381 21.118 701.028 25.978 714.429 31.59 C 703.486 27.74 692.335 24.509 681.03 21.912 C 669.135 17.847 657.089 14.329 644.865 11.413 C 654.478 12.865 664.02 14.756 673.46 17.08 C 652.476 10.961 630.903 6.718 608.729 4.569 C 600.899 3.802 593.001 3.31 585.021 3.091 C 573.494 2.767 561.959 3.018 550.458 3.843 C 546.68 4.103 542.888 4.432 539.083 4.829 C 535.77 5.157 532.444 5.554 529.104 5.992 C 527.749 6.17 526.38 6.348 525.011 6.554 C 524.875 6.567 524.738 6.581 524.587 6.608 C 521.685 7.019 518.77 7.471 515.84 7.964 C 345.189 36.518 183.983 128.148 31.675 205.378 C 21.148 210.717 10.595 216.096 0 221.517 L 0 230.757 C 18.671 221.448 37.218 212.222 55.684 203.174 C 211.551 126.752 379.369 33.547 554.167 10.701 C 554.195 10.688 554.208 10.688 554.236 10.688 C 554.523 10.647 554.797 10.619 555.084 10.578 C 556.549 10.386 558.027 10.208 559.492 10.044 C 568.94 11.581 578.347 13.361 587.703 15.383 C 591.358 15.082 594.999 14.849 598.613 14.671 C 589.045 12.522 579.449 10.633 569.813 9.018 C 573.687 8.689 577.533 8.429 581.366 8.251 L 581.379 8.251 C 591.235 9.976 601.036 12.002 610.795 14.329 C 624.757 17.655 638.61 21.597 652.339 26.114 C 660.059 26.717 667.656 27.62 675.13 28.811 C 683.37 30.111 691.46 31.768 699.399 33.753 C 723.066 43.581 746.186 55.394 768.744 68.973 C 789.632 81.539 810.041 95.624 829.957 111.051 C 835.337 115.212 840.689 119.429 845.986 123.658 L 845.986 118.443 C 812.683 90.587 777.737 66.564 741.094 47.646 C 779.311 63.58 814.011 87.137 845.986 115.308 Z M 599.982 7.868 C 606.046 7.909 612.055 8.142 618.009 8.511 C 628.96 10.77 639.801 13.466 650.532 16.56 C 643.976 15.752 637.337 15.164 630.616 14.794 C 620.473 12.139 610.262 9.825 599.982 7.868 Z M 741.094 47.646 C 721.547 37.558 701.535 28.921 681.03 21.912 C 669.135 17.847 657.089 14.329 644.865 11.413 C 632.97 8.566 620.925 6.28 608.729 4.569 C 594.091 2.532 579.346 1.366 564.57 1.078 C 571.428 1.585 578.245 2.256 585.021 3.091 C 579.532 2.94 574.002 2.913 568.417 3.022 C 561.641 2.228 554.838 1.585 547.994 1.106 C 553.551 0.969 559.081 0.955 564.57 1.078 C 551.717 0.147 538.727 -0.195 525.614 0.106 C 518.975 0.243 512.295 0.558 505.588 1.037 C 505.574 1.024 505.547 1.024 505.519 1.037 C 501.522 1.325 497.512 1.667 493.474 2.064 C 490.284 2.379 487.081 2.735 483.878 3.145 C 483.167 3.214 482.441 3.31 481.729 3.405 C 481.36 3.446 480.99 3.501 480.621 3.556 C 467.11 5.308 453.49 7.731 439.734 10.866 C 283.141 46.497 141.468 126.327 0 206.2 L 0 214.399 C 2.094 213.304 4.189 212.222 6.283 211.127 C 156.785 132.706 314.049 40.925 482.619 8.265 C 489.805 6.869 496.951 5.691 504.041 4.706 C 504.082 4.692 504.137 4.692 504.178 4.678 C 505.451 4.5 506.724 4.336 507.983 4.172 C 511.296 3.748 514.608 3.364 517.894 3.036 C 521.795 2.625 525.668 2.283 529.529 1.995 C 536.523 2.461 543.504 3.077 550.458 3.843 C 546.68 4.103 542.888 4.432 539.083 4.829 C 549.363 5.91 559.615 7.307 569.813 9.018 C 573.687 8.689 577.533 8.429 581.366 8.251 L 581.379 8.251 C 591.235 9.976 601.036 12.002 610.795 14.329 C 624.757 17.655 638.61 21.597 652.339 26.114 C 660.059 26.717 667.656 27.62 675.13 28.811 C 683.37 30.111 691.46 31.768 699.399 33.753 C 723.066 43.581 746.186 55.394 768.744 68.973 C 789.632 81.539 810.041 95.624 829.957 111.051 C 835.337 115.212 840.689 119.429 845.986 123.658 L 845.986 118.443 C 812.683 90.587 777.737 66.564 741.094 47.646 Z M 599.982 7.868 C 606.046 7.909 612.055 8.142 618.009 8.511 C 628.96 10.77 639.801 13.466 650.532 16.56 C 643.976 15.752 637.337 15.164 630.616 14.794 C 620.473 12.139 610.262 9.825 599.982 7.868 Z M 829.957 111.051 C 810.041 95.624 789.632 81.539 768.744 68.973 C 755.644 62.225 742.079 56.407 727.994 51.671 C 710.637 43.033 693.021 35.395 675.13 28.811 C 660.524 23.432 645.669 18.755 630.616 14.794 C 620.473 12.139 610.262 9.825 599.982 7.868 C 589.538 5.883 579.011 4.268 568.417 3.022 C 561.641 2.228 554.838 1.585 547.994 1.106 L 547.925 1.106 C 540.52 0.586 533.087 0.243 525.614 0.106 C 512.528 -0.14 499.36 0.189 486.082 1.119 C 492.584 0.955 499.059 0.928 505.519 1.037 C 501.522 1.325 497.512 1.667 493.474 2.064 C 487.054 1.968 480.621 1.982 474.16 2.132 C 478.143 1.735 482.126 1.407 486.082 1.119 C 475.775 1.379 465.44 1.968 455.065 2.899 C 454.695 2.94 454.312 2.967 453.942 3.008 C 452.081 3.186 450.205 3.364 448.344 3.57 C 448.234 3.57 448.125 3.583 448.029 3.597 C 418.928 6.636 389.525 12.358 359.904 20.899 C 232.905 57.557 116.062 124.014 0 192.36 L 0 200.177 C 129.997 125.342 260.487 51.424 403.583 14.644 C 423.609 9.497 443.457 5.76 463.1 3.351 C 463.852 3.255 464.619 3.159 465.386 3.077 C 465.536 3.049 465.7 3.036 465.851 3.022 C 466.549 3.022 467.247 3.022 467.932 3.049 C 473.256 2.995 478.567 3.036 483.878 3.145 C 491.927 3.31 499.962 3.652 507.983 4.172 C 511.296 3.748 514.608 3.364 517.894 3.036 C 521.795 2.625 525.668 2.283 529.529 1.995 C 536.523 2.461 543.504 3.077 550.458 3.843 C 546.68 4.103 542.888 4.432 539.083 4.829 C 549.363 5.91 559.615 7.307 569.813 9.018 C 573.687 8.689 577.533 8.429 581.366 8.251 L 581.379 8.251 C 591.235 9.976 601.036 12.002 610.795 14.329 C 624.757 17.655 638.61 21.597 652.339 26.114 C 667.629 31.138 682.754 36.901 697.729 43.348 C 730.047 57.283 761.64 74.462 792.356 94.639 C 810.575 106.602 828.411 119.032 845.986 131.775 L 845.986 123.658 C 840.676 119.415 835.333 115.212 829.957 111.051 Z M 286.33 34.56 C 186.091 68.521 92.505 121.824 0 178.097 L 0 185.79 C 105.29 122.741 211.565 62.252 326.382 26.676 C 364.928 14.726 403.241 7.211 441.185 3.926 C 389.881 6.855 338.126 17.025 286.33 34.56 Z M 829.957 111.051 C 810.041 95.624 789.632 81.539 768.744 68.973 C 755.644 62.225 742.079 56.407 727.994 51.671 C 710.637 43.033 693.021 35.395 675.13 28.811 C 667.656 27.62 660.059 26.717 652.339 26.114 C 667.629 31.138 682.754 36.901 697.729 43.348 C 692.199 42.171 686.601 41.158 680.92 40.309 C 667.091 34.786 653.044 29.822 638.815 25.43 C 643.373 25.54 647.877 25.786 652.339 26.114 C 638.61 21.597 624.757 17.655 610.795 14.329 C 606.771 14.356 602.706 14.479 598.613 14.671 C 589.045 12.522 579.449 10.633 569.813 9.018 C 559.615 7.307 549.363 5.91 539.083 4.829 C 532.033 4.076 524.97 3.474 517.894 3.036 C 509.776 2.502 501.632 2.187 493.474 2.064 C 487.054 1.968 480.621 1.982 474.16 2.132 C 467.808 2.269 461.443 2.529 455.065 2.899 C 454.49 2.94 453.901 2.981 453.326 3.008 C 449.945 3.227 446.578 3.474 443.197 3.761 C 442.526 3.802 441.856 3.857 441.199 3.926 C 443.156 3.802 445.113 3.706 447.071 3.624 C 447.386 3.597 447.7 3.597 448.029 3.597 C 448.125 3.583 448.234 3.57 448.344 3.57 C 454.024 3.31 459.719 3.145 465.386 3.077 C 466.234 3.063 467.083 3.049 467.932 3.049 C 473.256 2.995 478.567 3.036 483.878 3.145 C 491.927 3.31 499.962 3.652 507.983 4.172 C 515.033 4.651 522.082 5.24 529.104 5.992 C 539.261 7.046 549.39 8.402 559.492 10.044 C 568.94 11.581 578.347 13.361 587.703 15.383 C 600.789 18.203 613.807 21.515 626.77 25.307 C 640.116 29.222 653.407 33.643 666.616 38.571 C 694.759 49.056 722.546 61.855 749.909 76.926 C 749.991 76.967 750.059 77.008 750.141 77.049 C 770.154 88.082 789.755 99.745 809.028 111.873 C 814.887 115.555 820.704 119.278 826.494 123.042 C 833.024 127.286 839.526 131.584 845.986 135.923 L 845.986 123.658 C 840.676 119.415 835.333 115.212 829.957 111.051 Z M 507.983 4.172 C 499.962 3.652 491.927 3.31 483.878 3.145 C 483.167 3.214 482.441 3.31 481.729 3.405 C 477.13 3.227 472.531 3.104 467.932 3.049 C 467.247 3.036 466.549 3.022 465.851 3.022 C 461.881 2.981 457.912 2.967 453.942 3.008 L 453.326 3.008 C 376.207 3.802 298.759 19.654 222.516 49.371 C 145.314 79.472 72.137 121.099 0 165.6 L 0 172.252 C 82.595 121.55 166.257 73.873 255.176 41.487 C 317.621 18.75 380.587 6.116 443.197 3.761 C 444.484 3.693 445.77 3.652 447.071 3.624 C 447.386 3.597 447.7 3.597 448.029 3.597 C 453.052 3.433 458.076 3.351 463.1 3.351 C 468.944 3.323 474.776 3.405 480.621 3.556 C 488.437 3.775 496.252 4.158 504.041 4.706 C 504.999 4.761 505.944 4.829 506.888 4.911 C 505.985 4.829 505.081 4.761 504.178 4.678 C 505.451 4.5 506.724 4.336 507.983 4.172 Z M 829.957 111.051 C 810.041 95.624 789.632 81.539 768.744 68.973 C 755.644 62.225 742.079 56.407 727.994 51.671 C 710.637 43.033 693.021 35.395 675.13 28.811 C 667.656 27.62 660.059 26.717 652.339 26.114 C 667.629 31.138 682.754 36.901 697.729 43.348 C 692.199 42.171 686.601 41.158 680.92 40.309 C 667.091 34.786 653.044 29.822 638.815 25.43 C 643.373 25.54 647.877 25.786 652.339 26.114 C 638.61 21.597 624.757 17.655 610.795 14.329 C 606.771 14.356 602.706 14.479 598.613 14.671 C 589.045 12.522 579.449 10.633 569.813 9.018 C 559.615 7.307 549.363 5.91 539.083 4.829 C 532.033 4.076 524.97 3.474 517.894 3.036 C 514.608 3.364 511.296 3.748 507.983 4.172 C 515.033 4.651 522.082 5.24 529.104 5.992 C 527.749 6.17 526.38 6.348 525.011 6.554 C 519.221 5.924 513.431 5.39 507.627 4.966 C 523.213 6.239 538.739 8.153 554.167 10.701 C 563.379 12.207 572.564 13.945 581.749 15.917 C 594.52 18.654 607.264 21.83 619.98 25.457 C 633.006 29.175 645.903 33.329 658.649 37.914 C 676.964 44.512 695.197 52.054 713.293 60.568 C 720.794 64.1 728.227 67.714 735.618 71.423 C 742.353 74.804 749.033 78.254 755.685 81.772 C 749.662 78.473 743.612 75.256 737.507 72.108 C 741.696 73.613 745.816 75.215 749.895 76.926 C 749.977 76.967 750.046 77.008 750.128 77.049 C 770.14 88.082 789.741 99.745 809.014 111.873 C 791.754 101.551 774.246 91.627 756.465 82.196 C 781.337 95.734 805.606 110.244 829.465 125.438 C 834.995 128.942 840.497 132.501 845.973 136.087 L 845.973 123.658 C 840.662 119.415 835.319 115.212 829.944 111.051 Z M 582.954 15.807 C 573.687 13.822 564.392 12.084 555.084 10.578 C 556.549 10.386 558.027 10.208 559.492 10.044 C 568.94 11.581 578.347 13.361 587.703 15.383 C 586.129 15.506 584.541 15.643 582.954 15.807 Z M 660.429 38.037 C 647.507 33.356 634.517 29.14 621.459 25.403 C 623.238 25.362 625.004 25.321 626.77 25.307 C 640.116 29.222 653.407 33.643 666.616 38.571 C 664.563 38.366 662.496 38.188 660.429 38.037 Z" fill="url(#lX2YS8ERJ-3007012513-linear-gradient)" height="651.6895832689136px" id="lX2YS8ERJ" transform="translate(0 191.638)" width="846px"/></g></svg>