<svg display="block" role="presentation" viewBox="0 0 1080 1080" xmlns="http://www.w3.org/2000/svg"><path d="M 429.873 0.01 L 247.603 0.01 C 190.913 0.01 138.523 30.26 110.173 79.35 L 21.263 233.34 C -7.087 282.44 -7.087 342.93 21.263 392.03 L 110.173 546.02 C 138.523 595.12 190.903 625.36 247.603 625.36 L 425.413 625.36 C 482.103 625.36 534.493 595.11 562.843 546.02 L 651.753 392.03 C 680.103 342.93 680.103 282.44 651.753 233.34 L 560.623 75.49 C 533.653 28.78 483.813 0 429.873 0 Z" fill="rgb(241, 242, 242)" height="625.36px" id="e0o64kB3W" transform="translate(203.488 227.31)" width="673.0150000000001px"/><path d="M 213.86 187.03 L 191.85 225.16 L 147.82 225.16 L 125.81 187.03 L 147.82 148.9 L 191.85 148.9 Z M 5.18 112.73 L 46.21 176.71 L 57.19 182.71 L 117.41 182.71 L 130.08 160.77 L 105.27 101.78 L 144.56 31.61 L 105.66 54.2 L 79.67 93.13 L 78.49 105.43 L 100.02 156.61 L 64.33 156.61 L 28.98 101.5 L 26.14 54.2 L 0 0 L 3.14 106.46 L 5.18 112.72 Z M 209.58 160.77 L 222.25 182.71 L 282.47 182.71 L 293.45 176.71 L 334.48 112.73 L 336.52 106.47 L 339.66 0.01 L 313.52 54.21 L 310.68 101.51 L 275.33 156.62 L 239.64 156.62 L 261.17 105.44 L 259.99 93.14 L 234 54.21 L 195.1 31.62 L 234.39 101.79 L 209.58 160.78 Z M 336.52 267.59 L 334.48 261.33 L 293.45 197.35 L 282.47 191.35 L 222.25 191.35 L 209.58 213.29 L 234.39 272.28 L 195.1 342.45 L 234 319.86 L 259.99 280.93 L 261.17 268.63 L 239.64 217.45 L 275.33 217.45 L 310.68 272.56 L 313.52 319.86 L 339.66 374.06 L 336.52 267.6 Z M 130.08 213.29 L 117.41 191.35 L 57.19 191.35 L 46.21 197.35 L 5.18 261.33 L 3.14 267.59 L 0 374.05 L 26.14 319.85 L 28.98 272.55 L 64.33 217.44 L 100.02 217.44 L 78.49 268.62 L 79.67 280.92 L 105.66 319.85 L 144.56 342.44 L 105.27 272.27 L 130.08 213.28 Z" fill="rgb(35, 31, 32)" height="374.0600061035158px" id="AHykRV3TN" transform="translate(370.17 352.97)" width="339.66000610351557px"/></svg>