<?xml version="1.0" encoding="UTF-8"?>
<svg id="Layer_1" data-name="Layer 1" xmlns="http://www.w3.org/2000/svg" viewBox="0 0 1920 519.7">
  <defs>
    <style>
      .cls-1 {
        fill: #00e13c;
      }

      .cls-2 {
        fill: #f2f2f2;
      }
    </style>
  </defs>
  <path class="cls-1" d="M358.41,209.63l-121.65,121.98-23.9-23.9v-31.87l66.21-66.21h79.34ZM371.75,180.6v-33.21l-15.42-23.13h-119.08v.23l-.23-.23-87.87,87.87v31.87l23.9,23.9,87.3-87.3h111.39ZM416.37,124.27l-15.42,23.13.12,62.04-130.28,130.24v31.87l23.9,23.9,106.5-106.38v.06s56.1-56.1,56.1-56.1v-108.76h-40.92Z"/>
  <path class="cls-2" d="M1526.56,186.36v37.26h204.9l31.05,31.05v108.52l-31.05,31.05h-306.39l31.05-31.05v-31.05h244.29v-46.42h-204.9l-31.05-31.05v-99.36l31.05-31.05h250.83l24.51,24.63v37.47h-244.29ZM1444,254.8l-31.05-31.05h-204.9v-37.26h244.29v-31.18l30.92-30.92h-306.59l-31.05,31.05.33,99.36,31.05,31.05h204.9l-.33,46.42h-291.99l-9.87,31.05-31.05,30.93h364.29l31.05-30.93v-108.52ZM726.02,124.27l-28.17,18-14.27,30.78-13.7-30.46-28.32-18.32h-81.35l-31.05,31.05v214.09l24.84,24.84h37.26v-207.88h30.22l33.36,74.18,56.49.32,34.52-74.5h30.44v207.88h62.1v-238.93l-31.05-31.05h-81.32ZM1133.3,155.31l31.05-31.05h-84.88l-65.01,207.97h-44.94l-65.01-207.97h-84.88l31.05,31.05,66.11,208,31.04,30.93h88.31l31.05-30.93,66.11-208Z"/>
</svg>