<svg display="block" role="presentation" viewBox="0 0 400 400" xmlns="http://www.w3.org/2000/svg"><path d="M 10 285.91 C 4.477 285.91 0 281.433 0 275.91 L 0 10 C 0 4.477 4.477 0 10 0 L 275.91 0 C 281.433 0 285.91 4.477 285.91 10 L 285.91 275.91 C 285.91 281.433 281.433 285.91 275.91 285.91 Z" fill="rgb(20, 20, 20)" height="285.9100000000001px" id="l8c3PTlpn" transform="translate(57.04 57.04)" width="285.9100000000001px"/><g d="M 1.93 20.59 L 7.03 16.26 L 7.03 16.19 L 1.93 11.86 L 0 11.86 L 0 8.22 L 3.28 8.22 L 10.57 14.41 L 10.57 18.05 L 3.28 24.24 L 0 24.24 L 0 20.6 L 1.93 20.6 Z M 16.57 26.71 L 37.7 26.71 L 37.7 30.35 L 16.57 30.35 Z M 72.29 3.65 L 69.38 3.65 C 67.74 3.65 66.47 4.96 66.47 6.56 L 66.47 18.91 C 66.47 20.51 67.78 21.82 69.38 21.82 L 72.29 21.82 C 73.89 21.82 75.2 20.51 75.2 18.91 L 75.2 16.91 L 78.84 16.91 L 78.84 18.91 C 78.84 22.52 75.93 25.5 72.28 25.5 L 69.37 25.5 C 65.76 25.5 62.81 22.51 62.81 18.91 L 62.81 6.56 C 62.81 2.92 65.76 0 69.37 0 L 72.28 0 C 75.92 0 78.84 2.91 78.84 6.56 L 78.84 8.56 L 75.2 8.56 L 75.2 6.56 C 75.2 4.92 73.92 3.65 72.29 3.65 Z M 100.7 0.01 L 100.7 3.65 L 94.51 3.65 L 94.51 25.5 L 90.87 25.5 L 90.87 3.65 L 84.68 3.65 L 84.68 0.01 L 100.71 0.01 Z M 118.55 25.51 L 113.92 15.31 L 110.17 15.31 L 110.17 25.51 L 106.53 25.51 L 106.53 0.01 L 116 0.01 C 119.64 0.01 122.56 2.92 122.56 6.57 L 122.56 8.76 C 122.56 11.78 120.56 14.3 117.79 15.06 L 122.56 25.51 Z M 116 11.66 C 117.64 11.66 118.91 10.38 118.91 8.75 L 118.91 6.56 C 118.91 4.92 117.64 3.65 116 3.65 L 110.17 3.65 L 110.17 11.66 Z M 132.02 21.86 L 144.4 21.86 L 144.4 25.5 L 128.37 25.5 L 128.37 0 L 132.01 0 L 132.01 21.86 Z M 164.8 13.96 L 164.8 17.6 L 151.69 17.6 L 151.69 13.96 Z M 181.56 25.51 L 178.65 25.51 C 175.01 25.51 172.09 22.52 172.09 18.92 L 172.09 0.02 L 175.73 0.02 L 175.73 18.92 C 175.73 20.52 177.04 21.83 178.64 21.83 L 181.55 21.83 C 183.15 21.83 184.46 20.52 184.46 18.92 L 184.46 0.02 L 188.1 0.02 L 188.1 18.92 C 188.1 22.53 185.15 25.51 181.54 25.51 Z M 197.58 17.27 L 197.58 18.73 C 197.58 20.44 199 21.86 200.71 21.86 L 203.15 21.86 C 205.01 21.86 206.32 20.69 206.32 19.09 C 206.32 14.06 194.3 12.97 194.3 6.05 C 194.3 2.48 197.1 0 201.08 0 L 202.79 0 C 206.54 0 209.6 3.02 209.6 6.78 L 209.6 7.87 L 205.96 7.87 L 205.96 6.78 C 205.96 5.03 204.54 3.65 202.79 3.65 L 201.08 3.65 C 199.11 3.65 197.95 4.56 197.95 6.05 C 197.95 9.91 209.97 11.4 209.97 19.09 C 209.97 22.73 207.02 25.5 203.16 25.5 L 200.72 25.5 C 196.97 25.5 193.95 22.48 193.95 18.73 L 193.95 17.27 L 197.59 17.27 Z" fill="transparent" height="30.349999084472643px" id="nxhuRvemT" transform="translate(95.02 184.82)" width="209.96999694824217px"><path d="M 1.93 12.37 L 7.03 8.04 L 7.03 7.97 L 1.93 3.64 L 0 3.64 L 0 0 L 3.28 0 L 10.57 6.19 L 10.57 9.83 L 3.28 16.02 L 0 16.02 L 0 12.38 L 1.93 12.38 Z" fill="rgb(245, 245, 245)" height="16.019999999999982px" id="pERX25JDy" transform="translate(0 8.22)" width="10.570000000000007px"/><path d="M 0 0 L 21.13 0 L 21.13 3.64 L 0 3.64 Z" fill="rgb(245, 245, 245)" height="3.6399999999999864px" id="WugiYDWjS" transform="translate(16.57 26.71)" width="21.129999999999995px"/><path d="M 9.48 3.65 L 6.57 3.65 C 4.93 3.65 3.66 4.96 3.66 6.56 L 3.66 18.91 C 3.66 20.51 4.97 21.82 6.57 21.82 L 9.48 21.82 C 11.08 21.82 12.39 20.51 12.39 18.91 L 12.39 16.91 L 16.03 16.91 L 16.03 18.91 C 16.03 22.52 13.12 25.5 9.47 25.5 L 6.56 25.5 C 2.95 25.5 0 22.51 0 18.91 L 0 6.56 C 0 2.92 2.95 0 6.56 0 L 9.47 0 C 13.11 0 16.03 2.91 16.03 6.56 L 16.03 8.56 L 12.39 8.56 L 12.39 6.56 C 12.39 4.92 11.11 3.65 9.48 3.65 Z" fill="rgb(245, 245, 245)" height="25.5px" id="ETOBQV6zt" transform="translate(62.81 0)" width="16.03px"/><path d="M 16.02 0 L 16.02 3.64 L 9.83 3.64 L 9.83 25.49 L 6.19 25.49 L 6.19 3.64 L 0 3.64 L 0 0 L 16.03 0 Z" fill="rgb(245, 245, 245)" height="25.48999999999998px" id="Jl1xjmPJJ" transform="translate(84.68 0.01)" width="16.03px"/><path d="M 12.02 25.5 L 7.39 15.3 L 3.64 15.3 L 3.64 25.5 L 0 25.5 L 0 0 L 9.47 0 C 13.11 0 16.03 2.91 16.03 6.56 L 16.03 8.75 C 16.03 11.77 14.03 14.29 11.26 15.05 L 16.03 25.5 Z M 9.47 11.65 C 11.11 11.65 12.38 10.37 12.38 8.74 L 12.38 6.55 C 12.38 4.91 11.11 3.64 9.47 3.64 L 3.64 3.64 L 3.64 11.65 Z" fill="rgb(245, 245, 245)" height="25.5px" id="ATeUpTfkE" transform="translate(106.53 0.01)" width="16.03px"/><path d="M 3.65 21.86 L 16.03 21.86 L 16.03 25.5 L 0 25.5 L 0 0 L 3.64 0 L 3.64 21.86 Z" fill="rgb(245, 245, 245)" height="25.5px" id="TO3pUUJT2" transform="translate(128.37 0)" width="16.029999999999973px"/><path d="M 13.11 0 L 13.11 3.64 L 0 3.64 L 0 0 Z" fill="rgb(245, 245, 245)" height="3.6399999999999864px" id="Vsg6SMUhn" transform="translate(151.69 13.96)" width="13.110000000000014px"/><path d="M 9.47 25.49 L 6.56 25.49 C 2.92 25.49 0 22.5 0 18.9 L 0 0 L 3.64 0 L 3.64 18.9 C 3.64 20.5 4.95 21.81 6.55 21.81 L 9.46 21.81 C 11.06 21.81 12.37 20.5 12.37 18.9 L 12.37 0 L 16.01 0 L 16.01 18.9 C 16.01 22.51 13.06 25.49 9.45 25.49 Z" fill="rgb(245, 245, 245)" height="25.49000000000001px" id="ooMYw5D12" transform="translate(172.09 0.02)" width="16.010000000000048px"/><path d="M 3.63 17.27 L 3.63 18.73 C 3.63 20.44 5.05 21.86 6.76 21.86 L 9.2 21.86 C 11.06 21.86 12.37 20.69 12.37 19.09 C 12.37 14.06 0.35 12.97 0.35 6.05 C 0.35 2.48 3.15 0 7.13 0 L 8.84 0 C 12.59 0 15.65 3.02 15.65 6.78 L 15.65 7.87 L 12.01 7.87 L 12.01 6.78 C 12.01 5.03 10.59 3.65 8.84 3.65 L 7.13 3.65 C 5.16 3.65 4 4.56 4 6.05 C 4 9.91 16.02 11.4 16.02 19.09 C 16.02 22.73 13.07 25.5 9.21 25.5 L 6.77 25.5 C 3.02 25.5 0 22.48 0 18.73 L 0 17.27 L 3.64 17.27 Z" fill="rgb(245, 245, 245)" height="25.5px" id="c7x8K4INx" transform="translate(193.95 0)" width="16.019999999999982px"/></g></svg>