<svg display="block" role="presentation" viewBox="0 0 1080 1080" xmlns="http://www.w3.org/2000/svg"><path d="M 658.375 479.159 C 657.305 542.426 638.906 591.632 603.203 626.829 C 567.513 662.013 520.523 679.605 462.246 679.605 C 395.44 679.605 342.149 659.087 302.362 618.039 C 269.364 584.015 250.038 545.145 244.446 501.442 L 246.417 501.442 C 262.999 501.442 278.435 500.605 292.737 498.929 C 298.058 531.858 313.829 561.268 339.933 587.121 C 372.789 619.637 413.916 635.889 463.316 635.889 C 499.921 635.889 531.539 625.836 558.185 605.77 C 584.83 585.703 601.155 558.226 607.197 523.416 L 485.709 523.416 L 485.709 479.159 L 658.388 479.159 Z M 246.417 489.805 L 120.625 489.805 L 120.625 99.598 L 203.782 99.598 C 259.907 99.598 300.764 103.786 326.366 112.138 C 351.942 120.489 374.051 133.467 392.708 151.046 C 411.352 168.625 425.654 190.045 435.614 215.292 C 440.896 228.67 444.775 243.156 447.223 258.737 C 431.297 259.201 416.042 261.019 401.483 264.112 C 399.138 252.023 395.504 240.462 390.582 229.405 C 381.164 208.268 367.751 191.024 350.357 177.698 C 332.937 164.372 312.528 155.492 289.065 151.046 C 265.628 146.6 232.051 144.37 188.334 144.37 L 164.897 144.37 L 164.897 446.102 L 205.406 446.102 C 215.12 446.102 224.269 445.986 232.824 445.78 C 236.87 445.689 240.799 445.573 244.562 445.406 C 245.077 441.449 245.721 437.544 246.469 433.678 C 253.955 395.207 272.598 360.874 302.388 330.691 C 327.59 305.147 357.43 287.684 391.909 278.34 C 395.659 277.322 399.473 276.381 403.325 275.569 C 417.717 272.476 432.882 270.71 448.808 270.311 C 451.32 270.221 453.858 270.195 456.409 270.195 C 457.775 270.195 459.128 270.195 460.481 270.246 C 493.053 270.71 523.396 277.012 551.536 289.114 C 580.861 301.744 609.555 321.025 637.618 346.955 L 602.443 380.541 C 580.771 359.585 557.308 343.488 532.106 332.302 C 509.275 322.159 485.838 316.63 461.808 315.676 C 459.296 315.56 456.783 315.509 454.271 315.509 C 452.905 315.509 451.526 315.534 450.16 315.573 C 449.954 319.478 449.606 323.37 449.181 327.224 C 446.385 351.273 439.479 374.277 428.437 396.251 C 413.697 425.584 392.721 448.486 365.535 465.021 C 349.171 474.958 328.26 481.904 302.826 485.861 C 299.076 486.441 295.25 486.982 291.32 487.42 C 277.559 489.006 262.6 489.792 246.443 489.792 Z M 293.987 441.075 C 297.594 440.495 300.919 439.864 303.959 439.168 C 304.848 438.988 305.725 438.768 306.588 438.537 C 326.095 433.794 343.167 425.12 357.791 412.516 C 373.072 399.37 384.694 383.286 392.695 364.276 C 396.213 355.951 398.944 347.02 400.929 337.534 C 401.818 333.255 402.552 328.835 403.119 324.324 C 398.957 325.742 394.796 327.365 390.634 329.157 C 385.377 331.438 380.094 333.99 374.85 336.838 C 348.553 351.053 327.95 370.244 313.043 394.408 C 306.227 405.427 300.97 416.859 297.298 428.69 C 295.997 432.788 294.902 436.926 294 441.088 Z M 746.016 779.202 L 32.984 779.202 C 14.791 779.202 0 764.394 0 746.209 L 0 32.993 C 0 14.795 14.804 0 32.984 0 L 746.003 0 C 764.196 0 779 14.808 779 32.993 L 779 746.196 C 779 764.394 764.196 779.189 746.003 779.189 Z M 39.607 739.572 L 739.38 739.572 L 739.38 39.617 L 39.607 39.617 Z M 189.493 868 L 181.067 868 L 160.954 841.954 L 158.609 841.954 L 158.609 868 L 151.909 868 L 151.909 810.919 L 163.608 810.919 C 169.844 810.919 174.135 811.19 176.467 811.731 C 178.812 812.273 180.835 813.201 182.548 814.502 C 184.262 815.804 185.615 817.479 186.607 819.529 C 187.599 821.591 188.089 823.859 188.089 826.346 C 188.089 831.076 186.478 834.865 183.257 837.701 C 180.036 840.536 175.385 841.954 169.303 841.954 Z M 158.622 835.406 L 167.744 835.406 C 172.318 835.458 175.694 834.775 177.884 833.344 C 180.062 831.914 181.157 829.633 181.157 826.488 C 181.157 823.343 180.087 821.049 177.961 819.632 C 175.823 818.201 172.498 817.479 167.976 817.479 L 158.622 817.479 L 158.622 835.419 Z M 277.43 817.544 L 250.927 817.544 L 250.927 833.924 L 277.198 833.924 L 277.198 840.471 L 250.927 840.471 L 250.927 861.376 L 277.198 861.376 L 277.198 868 L 244.227 868 L 244.227 810.919 L 277.443 810.919 L 277.443 817.544 Z M 381.512 868 L 374.412 868 L 365.599 848.9 L 342.059 848.9 L 333.323 868 L 325.915 868 L 352.882 808.651 L 354.905 808.651 L 381.486 868 Z M 362.571 842.108 L 353.913 822.841 L 345.177 842.108 L 362.558 842.108 Z M 462.362 868 L 434.068 868 L 434.068 810.919 L 440.845 810.919 L 440.845 861.53 L 462.362 861.53 Z M 541.563 817.467 L 529.091 817.467 L 529.091 868 L 522.314 868 L 522.314 817.467 L 509.764 817.467 L 509.764 810.919 L 541.576 810.919 L 541.576 817.467 Z M 632.232 810.919 L 613.988 840.858 L 613.988 868 L 607.442 868 L 607.442 840.858 L 588.888 810.919 L 596.684 810.919 L 610.638 833.46 L 624.437 810.919 Z" fill="rgb(241, 242, 242)" height="868.000018236638px" id="Mqvy7KJP9" transform="translate(150.7 106.25)" width="779px"/></svg>