<svg display="block" role="presentation" viewBox="0 0 1080 1080" xmlns="http://www.w3.org/2000/svg"><path d="M 259.249 74.017 L 101.226 254.612 L 0 254.612 L 0 143.559 L 89.58 143.559 C 121.96 143.559 148.198 117.307 148.198 84.94 L 148.198 0 L 259.249 0 L 259.249 74.003 Z M 292.463 343.722 L 292.463 411.693 C 292.463 435.486 311.752 454.775 335.544 454.775 L 563.08 454.775 C 584.384 454.775 601.658 472.049 601.658 493.354 L 601.658 493.354 C 601.658 514.658 584.384 531.933 563.08 531.933 L 294.645 531.933 C 262.265 531.933 236.027 505.681 236.027 473.314 L 236.027 266.217 C 236.027 233.836 262.279 207.598 294.645 207.598 L 609.385 207.598 L 609.385 139.626 C 609.385 115.834 590.096 96.545 566.304 96.545 L 282.985 96.545 L 124.962 277.14 L 124.962 552.695 L 215.265 643 L 669.614 643 C 693.406 643 712.695 623.711 712.695 599.918 L 712.695 479.206 L 577.241 343.75 L 292.463 343.75 Z M 712.695 289.411 C 687.125 289.411 666.39 310.146 666.39 335.717 C 666.39 361.288 687.125 382.023 712.695 382.023 C 738.266 382.023 759 361.288 759 335.717 C 759 310.146 738.266 289.411 712.695 289.411 Z" fill="rgb(250, 250, 250)" height="643.0000068465872px" id="U9gaTiZNT" transform="translate(160.92 218.67)" width="758.999984295289px"/></svg>