<svg display="block" role="presentation" viewBox="0 0 1080 1080" xmlns="http://www.w3.org/2000/svg"><path d="M 0 109.25 L 385.21 0 L 774.22 109.25 L 757.42 622.96 L 739.56 681.75 L 689.13 728.27 L 387.11 952.82 L 46.67 701.74 L 15.75 642.92 L 7.35 545.22 Z" fill="rgb(255, 255, 255)" height="952.8199999999999px" id="BQNumYquF" transform="translate(152.89 54.72)" width="774.22px"/><g d="M 398.01 946.6 L 97.2 726.33 C 78.42 712.58 62.81 694.41 52.05 673.78 C 41.29 653.15 35.32 629.95 34.78 606.68 L 23.79 127.64 L 398.01 24.26 L 398.01 24.26 L 398.01 0 L 398.01 0 L 0 109.95 L 11.41 607.21 C 12.02 634.04 18.91 660.79 31.32 684.58 C 43.73 708.37 61.74 729.33 83.39 745.18 L 398.02 975.57 L 398.02 946.59 Z M 398.01 0 L 398.01 24.26 L 772.23 127.64 L 761.24 606.6 C 760.71 629.86 754.74 653.06 743.98 673.69 C 733.22 694.32 717.61 712.49 698.85 726.24 L 398.02 946.61 L 398.02 946.61 L 398.02 975.59 L 398.02 975.59 L 712.67 745.11 C 734.31 729.26 752.31 708.3 764.72 684.51 C 777.13 660.72 784.01 633.97 784.63 607.15 L 796.04 109.97 L 398.03 0.02 Z M 354.43 623.11 L 296.94 578.31 L 273.6 544.74 L 265.76 503.21 L 240.4 468.62 L 206.44 462.03 L 228.07 457.5 L 232.6 443.42 L 214.99 428.83 L 185.82 428.83 L 164.69 452.98 L 160.67 483.16 L 148.09 498.24 L 143.97 506.33 L 167.9 511.21 L 166.43 524.35 L 173.93 542.24 L 187.88 549.13 L 200.91 541.5 L 209.96 524.9 L 204.43 549.05 L 188.84 556.09 L 191.85 576.71 L 190.69 601.84 L 169.93 655.63 L 169.93 716.8 L 203.42 766.55 L 397.6 908.74 L 398.01 908.44 L 398.01 623.11 Z M 155.39 726.59 L 152.4 722.15 L 152.4 652.37 L 153.58 649.32 L 173.31 598.19 L 174.26 577.59 L 171.79 560.74 L 166.17 557.96 L 160.3 555.06 L 157.77 549.02 L 150.26 531.13 L 148.49 526.92 L 148.69 525.18 L 140.48 523.51 L 117.89 518.91 L 128.35 498.37 L 132.47 490.28 L 133.36 488.53 L 134.62 487.02 L 143.95 475.82 L 147.3 450.66 L 148 445.41 L 151.49 441.43 L 172.62 417.29 L 177.86 411.3 L 221.31 411.3 L 226.18 415.33 L 243.78 429.92 L 252.92 437.49 L 249.29 448.79 L 248.17 452.27 L 250.48 452.72 L 254.54 458.26 L 279.9 492.85 L 282.25 496.06 L 282.99 499.97 L 290.13 537.82 L 309.81 566.12 L 360.44 605.59 L 398 605.59 L 398 66.55 L 59.47 160.07 L 69.83 611.78 C 70.67 648.3 88.43 682.36 117.91 703.94 L 161.73 736.03 L 155.38 726.59 Z M 601.26 483.61 L 583.63 473.55 L 567.28 487.79 L 558.6 521.66 L 527.69 578.31 L 447.81 623.11 L 398.01 623.11 L 398.01 908.44 L 601.12 760.26 L 601.12 760.25 L 640.5 681.83 L 651.29 632.87 L 622.35 626 L 637.14 598.65 L 644.64 552.58 L 610.53 560.62 L 627.24 514.47 Z M 398.01 66.55 L 398.01 82.58 C 399.48 82.49 400.94 83.31 402.41 83.72 C 404.1 84.19 405.8 84.66 407.5 85.13 C 409.2 85.6 410.91 86.08 412.63 86.55 C 414.35 87.03 416.07 87.51 417.81 87.99 C 419.55 88.47 421.3 88.96 423.07 89.45 C 424.84 89.94 426.62 90.44 428.42 90.94 C 430.22 91.44 432.05 91.95 433.89 92.46 C 435.74 92.97 437.61 93.49 439.5 94.02 C 441.4 94.55 443.32 95.08 445.28 95.62 C 447.24 96.16 449.22 96.71 451.24 97.27 C 453.26 97.83 455.31 98.4 457.41 98.98 C 459.51 99.56 461.63 100.15 463.81 100.76 C 465.98 101.36 468.2 101.98 470.45 102.6 L 470.45 169.39 C 468.24 169.05 466.1 168.72 464.02 168.4 C 461.94 168.08 459.92 167.77 457.95 167.46 C 455.98 167.16 454.07 166.86 452.19 166.57 C 450.32 166.28 448.49 166 446.69 165.72 C 444.89 165.44 443.13 165.17 441.4 164.9 C 439.67 164.63 437.96 164.37 436.26 164.11 C 434.57 163.85 432.89 163.59 431.23 163.33 C 429.56 163.07 427.91 162.82 426.25 162.56 C 424.59 162.3 422.94 162.05 421.27 161.79 C 419.6 161.53 417.93 161.27 416.24 161.01 C 414.55 160.75 412.84 160.49 411.1 160.22 C 409.37 159.95 407.6 159.68 405.81 159.4 C 404.02 159.12 402.19 158.84 400.31 158.55 C 399.54 158.43 398.77 158.4 397.99 158.41 L 397.99 214.64 C 398.68 214.64 399.36 214.64 400.03 214.69 C 401.87 214.81 403.66 214.92 405.42 215.03 C 407.18 215.14 408.9 215.25 410.6 215.35 C 412.3 215.46 413.98 215.56 415.64 215.67 C 417.3 215.77 418.95 215.88 420.59 215.98 C 422.23 216.08 423.87 216.19 425.51 216.29 C 427.15 216.39 428.8 216.5 430.46 216.6 C 432.12 216.7 433.8 216.81 435.5 216.92 C 437.2 217.03 438.93 217.13 440.68 217.24 C 442.44 217.35 444.23 217.46 446.07 217.58 C 447.91 217.7 449.79 217.81 451.72 217.93 C 453.65 218.05 455.64 218.18 457.69 218.3 C 459.74 218.43 461.85 218.56 464.04 218.7 L 464.04 283.26 C 461.85 283.38 459.74 283.5 457.69 283.61 C 455.64 283.72 453.65 283.83 451.72 283.94 C 449.79 284.05 447.91 284.15 446.07 284.25 C 444.23 284.35 442.44 284.45 440.68 284.55 C 438.92 284.65 437.2 284.74 435.5 284.84 C 433.8 284.93 432.12 285.03 430.46 285.12 C 428.8 285.21 427.15 285.3 425.51 285.39 C 423.87 285.48 422.23 285.57 420.59 285.66 C 418.95 285.75 417.3 285.84 415.64 285.93 C 413.98 286.02 412.3 286.11 410.6 286.21 C 408.9 286.3 407.18 286.4 405.42 286.5 C 403.66 286.6 401.87 286.7 400.03 286.8 C 399.36 286.84 398.68 286.84 397.99 286.84 L 397.99 356.58 C 398.95 356.58 399.9 356.51 400.84 356.35 C 402.77 356.02 404.65 355.71 406.5 355.4 C 408.35 355.09 410.16 354.78 411.94 354.48 C 413.72 354.18 415.48 353.88 417.22 353.59 C 418.96 353.3 420.68 353.01 422.4 352.72 C 424.11 352.43 425.82 352.14 427.52 351.86 C 429.23 351.57 430.93 351.28 432.64 351 C 434.35 350.72 436.08 350.42 437.82 350.13 C 439.56 349.84 441.32 349.54 443.1 349.24 C 444.88 348.94 446.7 348.63 448.54 348.32 C 450.38 348.01 452.27 347.69 454.2 347.37 C 456.13 347.04 458.1 346.71 460.12 346.37 C 462.14 346.03 464.22 345.68 466.36 345.32 C 468.5 344.96 470.7 344.59 472.98 344.2 L 472.98 414.71 C 470.77 415.37 468.6 416.02 466.47 416.66 C 464.34 417.3 462.25 417.92 460.2 418.54 C 458.15 419.16 456.13 419.76 454.14 420.35 C 452.15 420.94 450.2 421.53 448.28 422.11 C 446.36 422.69 444.46 423.25 442.59 423.81 C 440.72 424.37 438.88 424.92 437.06 425.47 C 435.24 426.02 433.45 426.55 431.67 427.08 C 429.89 427.61 428.14 428.14 426.4 428.66 C 424.66 429.18 422.94 429.7 421.23 430.21 C 419.52 430.72 417.82 431.23 416.13 431.74 C 414.44 432.25 412.76 432.75 411.09 433.25 C 409.42 433.75 407.75 434.25 406.09 434.75 C 404.43 435.25 402.77 435.74 401.11 436.24 C 400.06 436.55 399.02 436.82 397.97 436.86 L 397.97 605.61 L 443.19 605.61 L 514.67 565.51 L 542.12 515.21 L 550.25 483.47 L 551.61 478.18 L 555.73 474.59 L 572.09 460.35 L 581.48 452.18 L 592.29 458.35 L 609.92 468.4 L 612.63 469.95 L 614.64 472.34 L 640.62 503.21 L 647.14 510.96 L 643.69 520.48 L 638.01 536.15 L 640.58 535.54 L 666.13 529.52 L 661.91 555.42 L 654.41 601.49 L 653.93 604.41 L 652.52 607.01 L 648.61 614.24 L 655.29 615.82 L 672.08 619.8 L 668.37 636.65 L 657.58 685.61 L 657.11 687.75 L 656.13 689.71 L 632.12 737.53 L 678.09 703.86 C 707.55 682.28 725.31 648.23 726.15 611.72 L 736.51 160.08 L 397.98 66.56 Z M 664.78 163.33 L 664.78 357.25 C 662.57 357.91 660.49 358.54 658.5 359.13 C 656.51 359.73 654.62 360.29 652.79 360.84 C 650.96 361.39 649.21 361.91 647.49 362.43 C 645.77 362.94 644.1 363.45 642.44 363.94 C 640.78 364.43 639.13 364.93 637.47 365.43 C 635.81 365.93 634.13 366.43 632.42 366.94 C 630.7 367.45 628.95 367.98 627.12 368.53 C 625.29 369.08 623.4 369.64 621.41 370.24 C 619.42 370.84 617.34 371.46 615.13 372.12 C 614.11 370.41 613.11 368.72 612.13 367.05 C 611.15 365.38 610.18 363.72 609.24 362.08 C 608.3 360.44 607.36 358.82 606.45 357.21 C 605.54 355.6 604.64 354.01 603.75 352.43 C 602.87 350.85 602 349.28 601.14 347.73 C 600.28 346.18 599.44 344.63 598.6 343.1 C 597.76 341.57 596.94 340.04 596.12 338.52 C 595.3 337 594.5 335.49 593.7 333.98 C 592.9 332.47 592.11 330.97 591.32 329.47 C 590.53 327.97 589.75 326.47 588.98 324.97 C 588.2 323.47 587.43 321.97 586.66 320.46 C 585.89 318.95 585.12 317.45 584.36 315.93 C 583.59 314.41 582.83 312.89 582.06 311.36 C 581.29 309.83 580.53 308.28 579.76 306.72 C 578.99 305.16 578.22 303.59 577.44 302 C 576.66 300.41 575.88 298.8 575.1 297.18 C 574.31 295.55 573.52 293.9 572.72 292.23 C 571.92 290.56 571.11 288.86 570.3 287.13 C 569.48 285.4 568.66 283.65 567.82 281.86 C 566.98 280.07 566.14 278.25 565.28 276.39 C 564.42 274.53 563.55 272.63 562.67 270.69 C 561.79 268.75 560.89 266.77 559.97 264.74 C 559.05 262.71 558.13 260.64 557.18 258.51 C 556.23 256.38 555.27 254.2 554.29 251.97 C 553.31 249.73 552.31 247.44 551.29 245.08 L 551.29 391.25 C 549.09 391.91 547.01 392.53 545.02 393.13 C 543.04 393.72 541.15 394.29 539.33 394.84 C 537.51 395.39 535.76 395.91 534.04 396.42 C 532.33 396.93 530.66 397.43 529 397.93 C 527.34 398.43 525.7 398.92 524.04 399.42 C 522.38 399.92 520.71 400.42 519 400.93 C 517.29 401.44 515.53 401.97 513.71 402.51 C 511.89 403.06 510 403.62 508.02 404.22 C 506.04 404.81 503.96 405.44 501.75 406.1 L 501.75 111.29 C 503.94 111.9 506 112.47 507.97 113.02 C 509.94 113.57 511.82 114.09 513.62 114.59 C 515.43 115.09 517.17 115.58 518.87 116.05 C 520.57 116.52 522.23 116.98 523.88 117.44 C 525.53 117.9 527.16 118.35 528.81 118.81 C 530.46 119.27 532.12 119.73 533.82 120.2 C 535.52 120.67 537.26 121.16 539.07 121.66 C 540.88 122.16 542.75 122.68 544.72 123.23 C 546.69 123.78 548.76 124.35 550.94 124.96 C 551.86 127.32 552.76 129.63 553.64 131.88 C 554.53 134.13 555.4 136.34 556.25 138.5 C 557.11 140.66 557.95 142.77 558.78 144.84 C 559.61 146.91 560.43 148.94 561.23 150.93 C 562.03 152.92 562.83 154.87 563.61 156.78 C 564.39 158.7 565.16 160.58 565.93 162.42 C 566.7 164.26 567.45 166.09 568.19 167.88 C 568.93 169.67 569.67 171.43 570.4 173.17 C 571.13 174.91 571.85 176.62 572.57 178.31 C 573.29 180 574 181.67 574.7 183.32 C 575.4 184.97 576.11 186.6 576.81 188.22 C 577.51 189.84 578.2 191.44 578.9 193.03 C 579.59 194.62 580.28 196.2 580.97 197.76 C 581.66 199.32 582.35 200.88 583.03 202.44 C 583.72 203.99 584.41 205.53 585.09 207.07 C 585.78 208.61 586.47 210.14 587.16 211.68 C 587.85 213.21 588.55 214.74 589.25 216.27 C 589.95 217.8 590.65 219.33 591.36 220.87 C 592.07 222.4 592.78 223.94 593.49 225.48 C 594.21 227.02 594.93 228.57 595.66 230.12 C 596.39 231.67 597.13 233.23 597.87 234.8 C 598.61 236.37 599.37 237.95 600.13 239.54 C 600.89 241.13 601.66 242.73 602.45 244.34 C 603.23 245.95 604.03 247.58 604.83 249.22 C 605.63 250.86 606.45 252.51 607.28 254.18 C 608.11 255.85 608.95 257.53 609.81 259.24 C 610.67 260.94 611.54 262.66 612.42 264.4 C 613.3 266.14 614.21 267.89 615.12 269.67 L 615.12 142.78 C 617.33 143.39 619.41 143.97 621.4 144.52 C 623.39 145.07 625.28 145.6 627.11 146.1 C 628.94 146.61 630.69 147.09 632.41 147.57 C 634.13 148.05 635.8 148.51 637.46 148.97 C 639.12 149.43 640.77 149.89 642.43 150.35 C 644.09 150.81 645.77 151.28 647.48 151.75 C 649.2 152.23 650.95 152.71 652.78 153.22 C 654.61 153.73 656.5 154.25 658.49 154.8 C 660.48 155.35 662.56 155.93 664.77 156.54 L 664.77 163.32 Z M 282.8 114.48 C 281.02 114.97 279.31 115.45 277.64 115.91 C 275.97 116.37 274.34 116.83 272.73 117.27 C 271.12 117.72 269.53 118.16 267.95 118.6 C 266.36 119.04 264.78 119.48 263.17 119.93 C 261.56 120.38 259.93 120.83 258.26 121.29 C 256.59 121.75 254.87 122.23 253.1 122.72 C 251.33 123.21 249.48 123.72 247.55 124.26 C 245.62 124.79 243.61 125.35 241.5 125.94 L 241.5 218.43 C 239.2 218.6 237.01 218.77 234.91 218.93 C 232.81 219.09 230.81 219.24 228.88 219.39 C 226.95 219.54 225.08 219.68 223.26 219.82 C 221.44 219.96 219.67 220.09 217.92 220.22 C 216.17 220.35 214.44 220.48 212.72 220.61 C 210.99 220.74 209.27 220.87 207.52 221 C 205.77 221.13 204 221.27 202.18 221.4 C 200.36 221.54 198.5 221.68 196.56 221.83 C 194.63 221.98 192.62 222.13 190.53 222.29 C 188.43 222.45 186.25 222.61 183.94 222.79 L 183.94 141.92 C 181.83 142.5 179.83 143.06 177.91 143.59 C 175.99 144.12 174.16 144.63 172.39 145.12 C 170.62 145.61 168.91 146.09 167.25 146.55 C 165.59 147.01 163.96 147.46 162.36 147.91 C 160.76 148.36 159.18 148.79 157.6 149.23 C 156.02 149.67 154.44 150.11 152.84 150.55 C 151.24 150.99 149.62 151.44 147.95 151.91 C 146.29 152.37 144.58 152.85 142.81 153.34 C 141.04 153.83 139.21 154.34 137.29 154.87 C 135.37 155.4 133.37 155.96 131.26 156.54 L 131.26 357.25 C 133.37 357.88 135.37 358.48 137.29 359.05 C 139.21 359.62 141.04 360.17 142.81 360.7 C 144.58 361.23 146.29 361.74 147.95 362.24 C 149.61 362.74 151.24 363.22 152.84 363.7 C 154.44 364.18 156.02 364.65 157.6 365.13 C 159.18 365.6 160.76 366.08 162.36 366.56 C 163.96 367.04 165.58 367.53 167.25 368.02 C 168.91 368.52 170.62 369.03 172.39 369.56 C 174.16 370.09 175.99 370.64 177.91 371.21 C 179.83 371.78 181.83 372.38 183.94 373.01 L 183.94 279.53 C 186.24 279.68 188.43 279.83 190.53 279.97 C 192.63 280.11 194.63 280.24 196.56 280.37 C 198.49 280.5 200.36 280.62 202.18 280.74 C 204 280.86 205.77 280.98 207.52 281.09 C 209.27 281.21 211 281.32 212.72 281.43 C 214.45 281.54 216.17 281.66 217.92 281.77 C 219.67 281.89 221.44 282 223.26 282.12 C 225.08 282.24 226.94 282.36 228.88 282.49 C 230.81 282.62 232.82 282.75 234.91 282.89 C 237 283.03 239.19 283.17 241.5 283.33 L 241.5 390.25 C 243.62 390.88 245.63 391.49 247.55 392.06 C 249.48 392.64 251.32 393.19 253.1 393.72 C 254.88 394.25 256.59 394.77 258.26 395.27 C 259.93 395.77 261.56 396.26 263.17 396.74 C 264.78 397.22 266.37 397.7 267.95 398.17 C 269.54 398.65 271.12 399.12 272.73 399.6 C 274.34 400.08 275.97 400.57 277.64 401.07 C 279.31 401.57 281.03 402.08 282.8 402.62 C 284.58 403.15 286.42 403.7 288.35 404.28 C 290.28 404.86 292.29 405.46 294.4 406.09 L 294.4 111.26 C 292.28 111.85 290.27 112.41 288.35 112.94 C 286.42 113.47 284.58 113.99 282.8 114.48 Z M 398.01 356.59 C 397 356.59 395.98 356.5 394.94 356.32 C 392.92 355.98 390.84 355.63 388.7 355.27 C 386.56 354.91 384.36 354.54 382.08 354.15 L 382.08 286.05 C 384.27 286.17 386.38 286.29 388.43 286.4 C 390.48 286.51 392.47 286.62 394.4 286.73 C 395.62 286.8 396.83 286.85 398.01 286.86 L 398.01 214.68 C 396.83 214.68 395.62 214.75 394.4 214.82 C 392.47 214.94 390.48 215.07 388.43 215.19 C 386.38 215.32 384.27 215.45 382.08 215.59 L 382.08 160.68 C 384.29 160.34 386.43 160.01 388.51 159.69 C 390.59 159.37 392.61 159.06 394.58 158.75 C 395.74 158.57 396.89 158.46 398.01 158.44 L 398.01 82.58 C 397.78 82.59 397.56 82.63 397.33 82.69 C 395.64 83.16 393.94 83.63 392.24 84.1 C 390.54 84.57 388.83 85.05 387.11 85.52 C 385.39 85.99 383.67 86.48 381.93 86.96 C 380.19 87.44 378.44 87.93 376.67 88.42 C 374.9 88.91 373.12 89.41 371.32 89.91 C 369.52 90.41 367.69 90.92 365.85 91.43 C 364 91.94 362.13 92.46 360.24 92.99 C 358.34 93.52 356.42 94.05 354.46 94.59 C 352.5 95.13 350.52 95.68 348.5 96.24 C 346.48 96.8 344.43 97.37 342.33 97.95 C 340.23 98.53 338.11 99.12 335.93 99.73 C 333.76 100.33 331.54 100.95 329.29 101.57 L 329.29 416.57 C 331.5 417.23 333.67 417.88 335.8 418.52 C 337.93 419.16 340.02 419.78 342.07 420.4 C 344.12 421.02 346.14 421.62 348.13 422.21 C 350.12 422.8 352.07 423.39 353.99 423.97 C 355.91 424.55 357.81 425.11 359.68 425.67 C 361.55 426.23 363.39 426.78 365.21 427.33 C 367.03 427.88 368.82 428.41 370.6 428.94 C 372.38 429.47 374.13 430 375.87 430.52 C 377.61 431.04 379.33 431.56 381.04 432.07 C 382.75 432.58 384.45 433.09 386.14 433.6 C 387.83 434.11 389.51 434.61 391.18 435.11 C 392.85 435.61 394.52 436.11 396.18 436.61 C 396.79 436.79 397.41 436.85 398.02 436.84 L 398.02 356.6 Z" fill="transparent" height="975.59px" id="DaRdbzW9J" transform="translate(141.99 52.21)" width="796.0400097656249px"><path d="M 398.01 946.6 L 97.2 726.33 C 78.42 712.58 62.81 694.41 52.05 673.78 C 41.29 653.15 35.32 629.95 34.78 606.68 L 23.79 127.64 L 398.01 24.26 L 398.01 24.26 L 398.01 0 L 398.01 0 L 0 109.95 L 11.41 607.21 C 12.02 634.04 18.91 660.79 31.32 684.58 C 43.73 708.37 61.74 729.33 83.39 745.18 L 398.02 975.57 L 398.02 946.59 Z" fill="rgb(50, 59, 229)" height="975.57px" id="EwSoUmxcJ" width="398.02px"/><path d="M 0 0 L 0 24.26 L 374.22 127.64 L 363.23 606.6 C 362.7 629.86 356.73 653.06 345.97 673.69 C 335.21 694.32 319.6 712.49 300.84 726.24 L 0.01 946.61 L 0.01 946.61 L 0.01 975.59 L 0.01 975.59 L 314.66 745.11 C 336.3 729.26 354.3 708.3 366.71 684.51 C 379.12 660.72 386 633.97 386.62 607.15 L 398.03 109.97 L 0.02 0.02 Z" fill="rgb(69, 91, 252)" height="975.59px" id="N8836fz9a" transform="translate(398.01 0)" width="398.02999999999986px"/><path d="M 210.46 194.28 L 152.97 149.48 L 129.63 115.91 L 121.79 74.38 L 96.43 39.79 L 62.47 33.2 L 84.1 28.67 L 88.63 14.59 L 71.02 0 L 41.85 0 L 20.72 24.15 L 16.7 54.33 L 4.12 69.41 L 0 77.5 L 23.93 82.38 L 22.46 95.52 L 29.96 113.41 L 43.91 120.3 L 56.94 112.67 L 65.99 96.07 L 60.46 120.22 L 44.87 127.26 L 47.88 147.88 L 46.72 173.01 L 25.96 226.8 L 25.96 287.97 L 59.45 337.72 L 253.63 479.91 L 254.04 479.61 L 254.04 194.28 Z" fill="rgb(145, 145, 145)" height="479.9100000000001px" id="nnFkS1_p3" transform="translate(143.97 428.83)" width="254.04000000000002px"/><path d="M 95.92 660.04 L 92.93 655.6 L 92.93 585.82 L 94.11 582.77 L 113.84 531.64 L 114.79 511.04 L 112.32 494.19 L 106.7 491.41 L 100.83 488.51 L 98.3 482.47 L 90.79 464.58 L 89.02 460.37 L 89.22 458.63 L 81.01 456.96 L 58.42 452.36 L 68.88 431.82 L 73 423.73 L 73.89 421.98 L 75.15 420.47 L 84.48 409.27 L 87.83 384.11 L 88.53 378.86 L 92.02 374.88 L 113.15 350.74 L 118.39 344.75 L 161.84 344.75 L 166.71 348.78 L 184.31 363.37 L 193.45 370.94 L 189.82 382.24 L 188.7 385.72 L 191.01 386.17 L 195.07 391.71 L 220.43 426.3 L 222.78 429.51 L 223.52 433.42 L 230.66 471.27 L 250.34 499.57 L 300.97 539.04 L 338.53 539.04 L 338.53 0 L 0 93.52 L 10.36 545.23 C 11.2 581.75 28.96 615.81 58.44 637.39 L 102.26 669.48 L 95.91 660.04 Z" fill="rgb(50, 59, 229)" height="669.48px" id="ZCZcfa2LN" transform="translate(59.47 66.55)" width="338.53px"/><path d="M 203.25 10.06 L 185.62 0 L 169.27 14.24 L 160.59 48.11 L 129.68 104.76 L 49.8 149.56 L 0 149.56 L 0 434.89 L 203.11 286.71 L 203.11 286.7 L 242.49 208.28 L 253.28 159.32 L 224.34 152.45 L 239.13 125.1 L 246.63 79.03 L 212.52 87.07 L 229.23 40.92 Z" fill="rgb(179, 179, 179)" height="434.89000000000004px" id="u_1HYvZAC" transform="translate(398.01 473.55)" width="253.27999999999997px"/><path d="M 0.04 0 L 0.04 16.03 C 1.51 15.94 2.97 16.76 4.44 17.17 C 6.13 17.64 7.83 18.11 9.53 18.58 C 11.23 19.05 12.94 19.53 14.66 20 C 16.38 20.48 18.1 20.96 19.84 21.44 C 21.58 21.92 23.33 22.41 25.1 22.9 C 26.87 23.39 28.65 23.89 30.45 24.39 C 32.25 24.89 34.08 25.4 35.92 25.91 C 37.77 26.42 39.64 26.94 41.53 27.47 C 43.43 28 45.35 28.53 47.31 29.07 C 49.27 29.61 51.25 30.16 53.27 30.72 C 55.29 31.28 57.34 31.85 59.44 32.43 C 61.54 33.01 63.66 33.6 65.84 34.21 C 68.01 34.81 70.23 35.43 72.48 36.05 L 72.48 102.84 C 70.27 102.5 68.13 102.17 66.05 101.85 C 63.97 101.53 61.95 101.22 59.98 100.91 C 58.01 100.61 56.1 100.31 54.22 100.02 C 52.35 99.73 50.52 99.45 48.72 99.17 C 46.92 98.89 45.16 98.62 43.43 98.35 C 41.7 98.08 39.99 97.82 38.29 97.56 C 36.6 97.3 34.92 97.04 33.26 96.78 C 31.59 96.52 29.94 96.27 28.28 96.01 C 26.62 95.75 24.97 95.5 23.3 95.24 C 21.63 94.98 19.96 94.72 18.27 94.46 C 16.58 94.2 14.87 93.94 13.13 93.67 C 11.4 93.4 9.63 93.13 7.84 92.85 C 6.05 92.57 4.22 92.29 2.34 92 C 1.57 91.88 0.8 91.85 0.02 91.86 L 0.02 148.09 C 0.71 148.09 1.39 148.09 2.06 148.14 C 3.9 148.26 5.69 148.37 7.45 148.48 C 9.21 148.59 10.93 148.7 12.63 148.8 C 14.33 148.91 16.01 149.01 17.67 149.12 C 19.33 149.22 20.98 149.33 22.62 149.43 C 24.26 149.53 25.9 149.64 27.54 149.74 C 29.18 149.84 30.83 149.95 32.49 150.05 C 34.15 150.15 35.83 150.26 37.53 150.37 C 39.23 150.48 40.96 150.58 42.71 150.69 C 44.47 150.8 46.26 150.91 48.1 151.03 C 49.94 151.15 51.82 151.26 53.75 151.38 C 55.68 151.5 57.67 151.63 59.72 151.75 C 61.77 151.88 63.88 152.01 66.07 152.15 L 66.07 216.71 C 63.88 216.83 61.77 216.95 59.72 217.06 C 57.67 217.17 55.68 217.28 53.75 217.39 C 51.82 217.5 49.94 217.6 48.1 217.7 C 46.26 217.8 44.47 217.9 42.71 218 C 40.95 218.1 39.23 218.19 37.53 218.29 C 35.83 218.38 34.15 218.48 32.49 218.57 C 30.83 218.66 29.18 218.75 27.54 218.84 C 25.9 218.93 24.26 219.02 22.62 219.11 C 20.98 219.2 19.33 219.29 17.67 219.38 C 16.01 219.47 14.33 219.56 12.63 219.66 C 10.93 219.75 9.21 219.85 7.45 219.95 C 5.69 220.05 3.9 220.15 2.06 220.25 C 1.39 220.29 0.71 220.29 0.02 220.29 L 0.02 290.03 C 0.98 290.03 1.93 289.96 2.87 289.8 C 4.8 289.47 6.68 289.16 8.53 288.85 C 10.38 288.54 12.19 288.23 13.97 287.93 C 15.75 287.63 17.51 287.33 19.25 287.04 C 20.99 286.75 22.71 286.46 24.43 286.17 C 26.14 285.88 27.85 285.59 29.55 285.31 C 31.26 285.02 32.96 284.73 34.67 284.45 C 36.38 284.17 38.11 283.87 39.85 283.58 C 41.59 283.29 43.35 282.99 45.13 282.69 C 46.91 282.39 48.73 282.08 50.57 281.77 C 52.41 281.46 54.3 281.14 56.23 280.82 C 58.16 280.49 60.13 280.16 62.15 279.82 C 64.17 279.48 66.25 279.13 68.39 278.77 C 70.53 278.41 72.73 278.04 75.01 277.65 L 75.01 348.16 C 72.8 348.82 70.63 349.47 68.5 350.11 C 66.37 350.75 64.28 351.37 62.23 351.99 C 60.18 352.61 58.16 353.21 56.17 353.8 C 54.18 354.39 52.23 354.98 50.31 355.56 C 48.39 356.14 46.49 356.7 44.62 357.26 C 42.75 357.82 40.91 358.37 39.09 358.92 C 37.27 359.47 35.48 360 33.7 360.53 C 31.92 361.06 30.17 361.59 28.43 362.11 C 26.69 362.63 24.97 363.15 23.26 363.66 C 21.55 364.17 19.85 364.68 18.16 365.19 C 16.47 365.7 14.79 366.2 13.12 366.7 C 11.45 367.2 9.78 367.7 8.12 368.2 C 6.46 368.7 4.8 369.19 3.14 369.69 C 2.09 370 1.05 370.27 0 370.31 L 0 539.06 L 45.22 539.06 L 116.7 498.96 L 144.15 448.66 L 152.28 416.92 L 153.64 411.63 L 157.76 408.04 L 174.12 393.8 L 183.51 385.63 L 194.32 391.8 L 211.95 401.85 L 214.66 403.4 L 216.67 405.79 L 242.65 436.66 L 249.17 444.41 L 245.72 453.93 L 240.04 469.6 L 242.61 468.99 L 268.16 462.97 L 263.94 488.87 L 256.44 534.94 L 255.96 537.86 L 254.55 540.46 L 250.64 547.69 L 257.32 549.27 L 274.11 553.25 L 270.4 570.1 L 259.61 619.06 L 259.14 621.2 L 258.16 623.16 L 234.15 670.98 L 280.12 637.31 C 309.58 615.73 327.34 581.68 328.18 545.17 L 338.54 93.53 L 0.01 0.01 Z M 266.81 96.78 L 266.81 290.7 C 264.6 291.36 262.52 291.99 260.53 292.58 C 258.54 293.18 256.65 293.74 254.82 294.29 C 252.99 294.84 251.24 295.36 249.52 295.88 C 247.8 296.39 246.13 296.9 244.47 297.39 C 242.81 297.88 241.16 298.38 239.5 298.88 C 237.84 299.38 236.16 299.88 234.45 300.39 C 232.73 300.9 230.98 301.43 229.15 301.98 C 227.32 302.53 225.43 303.09 223.44 303.69 C 221.45 304.29 219.37 304.91 217.16 305.57 C 216.14 303.86 215.14 302.17 214.16 300.5 C 213.18 298.83 212.21 297.17 211.27 295.53 C 210.33 293.89 209.39 292.27 208.48 290.66 C 207.57 289.05 206.67 287.46 205.78 285.88 C 204.9 284.3 204.03 282.73 203.17 281.18 C 202.31 279.63 201.47 278.08 200.63 276.55 C 199.79 275.02 198.97 273.49 198.15 271.97 C 197.33 270.45 196.53 268.94 195.73 267.43 C 194.93 265.92 194.14 264.42 193.35 262.92 C 192.56 261.42 191.78 259.92 191.01 258.42 C 190.23 256.92 189.46 255.42 188.69 253.91 C 187.92 252.4 187.15 250.9 186.39 249.38 C 185.62 247.86 184.86 246.34 184.09 244.81 C 183.32 243.28 182.56 241.73 181.79 240.17 C 181.02 238.61 180.25 237.04 179.47 235.45 C 178.69 233.86 177.91 232.25 177.13 230.63 C 176.34 229 175.55 227.35 174.75 225.68 C 173.95 224.01 173.14 222.31 172.33 220.58 C 171.51 218.85 170.69 217.1 169.85 215.31 C 169.01 213.52 168.17 211.7 167.31 209.84 C 166.45 207.98 165.58 206.08 164.7 204.14 C 163.82 202.2 162.92 200.22 162 198.19 C 161.08 196.16 160.16 194.09 159.21 191.96 C 158.26 189.83 157.3 187.65 156.32 185.42 C 155.34 183.18 154.34 180.89 153.32 178.53 L 153.32 324.7 C 151.12 325.36 149.04 325.98 147.05 326.58 C 145.07 327.17 143.18 327.74 141.36 328.29 C 139.54 328.84 137.79 329.36 136.07 329.87 C 134.36 330.38 132.69 330.88 131.03 331.38 C 129.37 331.88 127.73 332.37 126.07 332.87 C 124.41 333.37 122.74 333.87 121.03 334.38 C 119.32 334.89 117.56 335.42 115.74 335.96 C 113.92 336.51 112.03 337.07 110.05 337.67 C 108.07 338.26 105.99 338.89 103.78 339.55 L 103.78 44.74 C 105.97 45.35 108.03 45.92 110 46.47 C 111.97 47.02 113.85 47.54 115.65 48.04 C 117.46 48.54 119.2 49.03 120.9 49.5 C 122.6 49.97 124.26 50.43 125.91 50.89 C 127.56 51.35 129.19 51.8 130.84 52.26 C 132.49 52.72 134.15 53.18 135.85 53.65 C 137.55 54.12 139.29 54.61 141.1 55.11 C 142.91 55.61 144.78 56.13 146.75 56.68 C 148.72 57.23 150.79 57.8 152.97 58.41 C 153.89 60.77 154.79 63.08 155.67 65.33 C 156.56 67.58 157.43 69.79 158.28 71.95 C 159.14 74.11 159.98 76.22 160.81 78.29 C 161.64 80.36 162.46 82.39 163.26 84.38 C 164.06 86.37 164.86 88.32 165.64 90.23 C 166.42 92.15 167.19 94.03 167.96 95.87 C 168.73 97.71 169.48 99.54 170.22 101.33 C 170.96 103.12 171.7 104.88 172.43 106.62 C 173.16 108.36 173.88 110.07 174.6 111.76 C 175.32 113.45 176.03 115.12 176.73 116.77 C 177.43 118.42 178.14 120.05 178.84 121.67 C 179.54 123.29 180.23 124.89 180.93 126.48 C 181.62 128.07 182.31 129.65 183 131.21 C 183.69 132.77 184.38 134.33 185.06 135.89 C 185.75 137.44 186.44 138.98 187.12 140.52 C 187.81 142.06 188.5 143.59 189.19 145.13 C 189.88 146.66 190.58 148.19 191.28 149.72 C 191.98 151.25 192.68 152.78 193.39 154.32 C 194.1 155.85 194.81 157.39 195.52 158.93 C 196.24 160.47 196.96 162.02 197.69 163.57 C 198.42 165.12 199.16 166.68 199.9 168.25 C 200.64 169.82 201.4 171.4 202.16 172.99 C 202.92 174.58 203.69 176.18 204.48 177.79 C 205.26 179.4 206.06 181.03 206.86 182.67 C 207.66 184.31 208.48 185.96 209.31 187.63 C 210.14 189.3 210.98 190.98 211.84 192.69 C 212.7 194.39 213.57 196.11 214.45 197.85 C 215.33 199.59 216.24 201.34 217.15 203.12 L 217.15 76.23 C 219.36 76.84 221.44 77.42 223.43 77.97 C 225.42 78.52 227.31 79.05 229.14 79.55 C 230.97 80.06 232.72 80.54 234.44 81.02 C 236.16 81.5 237.83 81.96 239.49 82.42 C 241.15 82.88 242.8 83.34 244.46 83.8 C 246.12 84.26 247.8 84.73 249.51 85.2 C 251.23 85.68 252.98 86.16 254.81 86.67 C 256.64 87.18 258.53 87.7 260.52 88.25 C 262.51 88.8 264.59 89.38 266.8 89.99 L 266.8 96.77 Z" fill="rgb(69, 91, 252)" height="670.98px" id="hhVxq6rPD" transform="translate(397.97 66.55)" width="338.5400000000001px"/><g d="M 151.54 31.9 C 149.76 32.39 148.05 32.87 146.38 33.33 C 144.71 33.79 143.08 34.25 141.47 34.69 C 139.86 35.14 138.27 35.58 136.69 36.02 C 135.1 36.46 133.52 36.9 131.91 37.35 C 130.3 37.8 128.67 38.25 127 38.71 C 125.33 39.17 123.61 39.65 121.84 40.14 C 120.07 40.63 118.22 41.14 116.29 41.68 C 114.36 42.21 112.35 42.77 110.24 43.36 L 110.24 135.85 C 107.94 136.02 105.75 136.19 103.65 136.35 C 101.55 136.51 99.55 136.66 97.62 136.81 C 95.69 136.96 93.82 137.1 92 137.24 C 90.18 137.38 88.41 137.51 86.66 137.64 C 84.91 137.77 83.18 137.9 81.46 138.03 C 79.73 138.16 78.01 138.29 76.26 138.42 C 74.51 138.55 72.74 138.69 70.92 138.82 C 69.1 138.96 67.24 139.1 65.3 139.25 C 63.37 139.4 61.36 139.55 59.27 139.71 C 57.17 139.87 54.99 140.03 52.68 140.21 L 52.68 59.34 C 50.57 59.92 48.57 60.48 46.65 61.01 C 44.73 61.54 42.9 62.05 41.13 62.54 C 39.36 63.03 37.65 63.51 35.99 63.97 C 34.33 64.43 32.7 64.88 31.1 65.33 C 29.5 65.78 27.92 66.21 26.34 66.65 C 24.76 67.09 23.18 67.53 21.58 67.97 C 19.98 68.41 18.36 68.86 16.69 69.33 C 15.03 69.79 13.32 70.27 11.55 70.76 C 9.78 71.25 7.95 71.76 6.03 72.29 C 4.11 72.82 2.11 73.38 0 73.96 L 0 274.67 C 2.11 275.3 4.11 275.9 6.03 276.47 C 7.95 277.04 9.78 277.59 11.55 278.12 C 13.32 278.65 15.03 279.16 16.69 279.66 C 18.35 280.16 19.98 280.64 21.58 281.12 C 23.18 281.6 24.76 282.07 26.34 282.55 C 27.92 283.02 29.5 283.5 31.1 283.98 C 32.7 284.46 34.32 284.95 35.99 285.44 C 37.65 285.94 39.36 286.45 41.13 286.98 C 42.9 287.51 44.73 288.06 46.65 288.63 C 48.57 289.2 50.57 289.8 52.68 290.43 L 52.68 196.95 C 54.98 197.1 57.17 197.25 59.27 197.39 C 61.37 197.53 63.37 197.66 65.3 197.79 C 67.23 197.92 69.1 198.04 70.92 198.16 C 72.74 198.28 74.51 198.4 76.26 198.51 C 78.01 198.63 79.74 198.74 81.46 198.85 C 83.19 198.96 84.91 199.08 86.66 199.19 C 88.41 199.31 90.18 199.42 92 199.54 C 93.82 199.66 95.68 199.78 97.62 199.91 C 99.55 200.04 101.56 200.17 103.65 200.31 C 105.74 200.45 107.93 200.59 110.24 200.75 L 110.24 307.67 C 112.36 308.3 114.37 308.91 116.29 309.48 C 118.22 310.06 120.06 310.61 121.84 311.14 C 123.62 311.67 125.33 312.19 127 312.69 C 128.67 313.19 130.3 313.68 131.91 314.16 C 133.52 314.64 135.11 315.12 136.69 315.59 C 138.28 316.07 139.86 316.54 141.47 317.02 C 143.08 317.5 144.71 317.99 146.38 318.49 C 148.05 318.99 149.77 319.5 151.54 320.04 C 153.32 320.57 155.16 321.12 157.09 321.7 C 159.02 322.28 161.03 322.88 163.14 323.51 L 163.14 28.68 C 161.02 29.27 159.01 29.83 157.09 30.36 C 155.16 30.89 153.32 31.41 151.54 31.9 Z M 266.75 274.01 C 265.74 274.01 264.72 273.92 263.68 273.74 C 261.66 273.4 259.58 273.05 257.44 272.69 C 255.3 272.33 253.1 271.96 250.82 271.57 L 250.82 203.47 C 253.01 203.59 255.12 203.71 257.17 203.82 C 259.22 203.93 261.21 204.04 263.14 204.15 C 264.36 204.22 265.57 204.27 266.75 204.28 L 266.75 132.1 C 265.57 132.1 264.36 132.17 263.14 132.24 C 261.21 132.36 259.22 132.49 257.17 132.61 C 255.12 132.74 253.01 132.87 250.82 133.01 L 250.82 78.1 C 253.03 77.76 255.17 77.43 257.25 77.11 C 259.33 76.79 261.35 76.48 263.32 76.17 C 264.48 75.99 265.63 75.88 266.75 75.86 L 266.75 0 C 266.52 0.01 266.3 0.05 266.07 0.11 C 264.38 0.58 262.68 1.05 260.98 1.52 C 259.28 1.99 257.57 2.47 255.85 2.94 C 254.13 3.41 252.41 3.9 250.67 4.38 C 248.93 4.86 247.18 5.35 245.41 5.84 C 243.64 6.33 241.86 6.83 240.06 7.33 C 238.26 7.83 236.43 8.34 234.59 8.85 C 232.74 9.36 230.87 9.88 228.98 10.41 C 227.08 10.94 225.16 11.47 223.2 12.01 C 221.24 12.55 219.26 13.1 217.24 13.66 C 215.22 14.22 213.17 14.79 211.07 15.37 C 208.97 15.95 206.85 16.54 204.67 17.15 C 202.5 17.75 200.28 18.37 198.03 18.99 L 198.03 333.99 C 200.24 334.65 202.41 335.3 204.54 335.94 C 206.67 336.58 208.76 337.2 210.81 337.82 C 212.86 338.44 214.88 339.04 216.87 339.63 C 218.86 340.22 220.81 340.81 222.73 341.39 C 224.65 341.97 226.55 342.53 228.42 343.09 C 230.29 343.65 232.13 344.2 233.95 344.75 C 235.77 345.3 237.56 345.83 239.34 346.36 C 241.12 346.89 242.87 347.42 244.61 347.94 C 246.35 348.46 248.07 348.98 249.78 349.49 C 251.49 350 253.19 350.51 254.88 351.02 C 256.57 351.53 258.25 352.03 259.92 352.53 C 261.59 353.03 263.26 353.53 264.92 354.03 C 265.53 354.21 266.15 354.27 266.76 354.26 L 266.76 274.02 Z" fill="transparent" height="354.2610538706647px" id="SjW67LDVr" transform="translate(131.26 82.58)" width="266.7599987792968px"><path d="M 151.54 3.22 C 149.76 3.71 148.05 4.19 146.38 4.65 C 144.71 5.11 143.08 5.57 141.47 6.01 C 139.86 6.46 138.27 6.9 136.69 7.34 C 135.1 7.78 133.52 8.22 131.91 8.67 C 130.3 9.12 128.67 9.57 127 10.03 C 125.33 10.49 123.61 10.97 121.84 11.46 C 120.07 11.95 118.22 12.46 116.29 13 C 114.36 13.53 112.35 14.09 110.24 14.68 L 110.24 107.17 C 107.94 107.34 105.75 107.51 103.65 107.67 C 101.55 107.83 99.55 107.98 97.62 108.13 C 95.69 108.28 93.82 108.42 92 108.56 C 90.18 108.7 88.41 108.83 86.66 108.96 C 84.91 109.09 83.18 109.22 81.46 109.35 C 79.73 109.48 78.01 109.61 76.26 109.74 C 74.51 109.87 72.74 110.01 70.92 110.14 C 69.1 110.28 67.24 110.42 65.3 110.57 C 63.37 110.72 61.36 110.87 59.27 111.03 C 57.17 111.19 54.99 111.35 52.68 111.53 L 52.68 30.66 C 50.57 31.24 48.57 31.8 46.65 32.33 C 44.73 32.86 42.9 33.37 41.13 33.86 C 39.36 34.35 37.65 34.83 35.99 35.29 C 34.33 35.75 32.7 36.2 31.1 36.65 C 29.5 37.1 27.92 37.53 26.34 37.97 C 24.76 38.41 23.18 38.85 21.58 39.29 C 19.98 39.73 18.36 40.18 16.69 40.65 C 15.03 41.11 13.32 41.59 11.55 42.08 C 9.78 42.57 7.95 43.08 6.03 43.61 C 4.11 44.14 2.11 44.7 0 45.28 L 0 245.99 C 2.11 246.62 4.11 247.22 6.03 247.79 C 7.95 248.36 9.78 248.91 11.55 249.44 C 13.32 249.97 15.03 250.48 16.69 250.98 C 18.35 251.48 19.98 251.96 21.58 252.44 C 23.18 252.92 24.76 253.39 26.34 253.87 C 27.92 254.34 29.5 254.82 31.1 255.3 C 32.7 255.78 34.32 256.27 35.99 256.76 C 37.65 257.26 39.36 257.77 41.13 258.3 C 42.9 258.83 44.73 259.38 46.65 259.95 C 48.57 260.52 50.57 261.12 52.68 261.75 L 52.68 168.27 C 54.98 168.42 57.17 168.57 59.27 168.71 C 61.37 168.85 63.37 168.98 65.3 169.11 C 67.23 169.24 69.1 169.36 70.92 169.48 C 72.74 169.6 74.51 169.72 76.26 169.83 C 78.01 169.95 79.74 170.06 81.46 170.17 C 83.19 170.28 84.91 170.4 86.66 170.51 C 88.41 170.63 90.18 170.74 92 170.86 C 93.82 170.98 95.68 171.1 97.62 171.23 C 99.55 171.36 101.56 171.49 103.65 171.63 C 105.74 171.77 107.93 171.91 110.24 172.07 L 110.24 278.99 C 112.36 279.62 114.37 280.23 116.29 280.8 C 118.22 281.38 120.06 281.93 121.84 282.46 C 123.62 282.99 125.33 283.51 127 284.01 C 128.67 284.51 130.3 285 131.91 285.48 C 133.52 285.96 135.11 286.44 136.69 286.91 C 138.28 287.39 139.86 287.86 141.47 288.34 C 143.08 288.82 144.71 289.31 146.38 289.81 C 148.05 290.31 149.77 290.82 151.54 291.36 C 153.32 291.89 155.16 292.44 157.09 293.02 C 159.02 293.6 161.03 294.2 163.14 294.83 L 163.14 0 C 161.02 0.59 159.01 1.15 157.09 1.68 C 155.16 2.21 153.32 2.73 151.54 3.22 Z" fill="rgb(230, 230, 230)" height="294.83000000000004px" id="e_cCEM3xy" transform="translate(0 28.68)" width="163.13999999999976px"/><path d="M 68.72 274.01 C 67.71 274.01 66.69 273.92 65.65 273.74 C 63.63 273.4 61.55 273.05 59.41 272.69 C 57.27 272.33 55.07 271.96 52.79 271.57 L 52.79 203.47 C 54.98 203.59 57.09 203.71 59.14 203.82 C 61.19 203.93 63.18 204.04 65.11 204.15 C 66.33 204.22 67.54 204.27 68.72 204.28 L 68.72 132.1 C 67.54 132.1 66.33 132.17 65.11 132.24 C 63.18 132.36 61.19 132.49 59.14 132.61 C 57.09 132.74 54.98 132.87 52.79 133.01 L 52.79 78.1 C 55 77.76 57.14 77.43 59.22 77.11 C 61.3 76.79 63.32 76.48 65.29 76.17 C 66.45 75.99 67.6 75.88 68.72 75.86 L 68.72 0 C 68.49 0.01 68.27 0.05 68.04 0.11 C 66.35 0.58 64.65 1.05 62.95 1.52 C 61.25 1.99 59.54 2.47 57.82 2.94 C 56.1 3.41 54.38 3.9 52.64 4.38 C 50.9 4.86 49.15 5.35 47.38 5.84 C 45.61 6.33 43.83 6.83 42.03 7.33 C 40.23 7.83 38.4 8.34 36.56 8.85 C 34.71 9.36 32.84 9.88 30.95 10.41 C 29.05 10.94 27.13 11.47 25.17 12.01 C 23.21 12.55 21.23 13.1 19.21 13.66 C 17.19 14.22 15.14 14.79 13.04 15.37 C 10.94 15.95 8.82 16.54 6.64 17.15 C 4.47 17.75 2.25 18.37 0 18.99 L 0 333.99 C 2.21 334.65 4.38 335.3 6.51 335.94 C 8.64 336.58 10.73 337.2 12.78 337.82 C 14.83 338.44 16.85 339.04 18.84 339.63 C 20.83 340.22 22.78 340.81 24.7 341.39 C 26.62 341.97 28.52 342.53 30.39 343.09 C 32.26 343.65 34.1 344.2 35.92 344.75 C 37.74 345.3 39.53 345.83 41.31 346.36 C 43.09 346.89 44.84 347.42 46.58 347.94 C 48.32 348.46 50.04 348.98 51.75 349.49 C 53.46 350 55.16 350.51 56.85 351.02 C 58.54 351.53 60.22 352.03 61.89 352.53 C 63.56 353.03 65.23 353.53 66.89 354.03 C 67.5 354.21 68.12 354.27 68.73 354.26 L 68.73 274.02 Z" fill="rgb(230, 230, 230)" height="354.2610538706647px" id="LArcF7j9j" transform="translate(198.03 0)" width="68.7299999999999px"/></g></g></svg>