<svg display="block" role="presentation" viewBox="0 0 1080 1080" xmlns="http://www.w3.org/2000/svg"><defs ><linearGradient id="xQuZokJx2-3667640365-linear-gradient" x1="0.49751243781094523" x2="0.5024875621890548" y1="0" y2="1"><stop offset="0" stop-color="rgb(30, 191, 0)"/><stop offset="1" stop-color="rgb(44, 148, 0)"/></linearGradient></defs><path d="M 0 734.45 L 0 0 L 734.45 0 L 734.45 734.45 Z" fill="url(#xQuZokJx2-3667640365-linear-gradient)" height="734.45px" id="xQuZokJx2" transform="translate(168.13 166.05)" width="734.45px"/><path d="M 806.6 0 L 27.44 0 C 12.29 0 0 12.28 0 27.44 L 0 806.6 C 0 821.75 12.28 834.04 27.44 834.04 L 806.6 834.04 C 821.75 834.04 834.04 821.76 834.04 806.6 L 834.04 27.44 C 834.04 12.29 821.76 0 806.6 0 Z M 259.92 624.49 C 259.92 662.41 259.93 700.33 259.94 738.26 C 259.94 747.12 259.79 747.19 251.3 747.18 C 213.21 747.16 175.11 747.1 137.02 747.34 C 131.37 747.37 130.97 744.43 130.97 740.28 C 131 716.19 130.98 692.11 130.98 668.02 C 130.98 644.62 130.97 621.22 130.98 597.81 C 130.98 590.12 131.37 589.88 139.1 589.88 C 177.19 589.91 215.29 589.98 253.38 589.74 C 258.58 589.71 260 591.72 259.95 596.3 C 259.85 605.69 259.92 615.09 259.92 624.48 Z M 137.87 240.43 C 131.83 240.49 131.01 239.88 131.01 233.8 C 130.97 185.79 130.97 137.78 131 89.77 C 131 83.41 131.8 82.99 138.17 83.01 C 162.94 83.1 187.72 83.05 212.49 83.05 L 212.49 83.09 C 236.92 83.09 261.36 83.18 285.79 83.01 C 290.13 82.98 293.06 84.26 295.75 87.77 C 312.46 109.55 329.32 131.21 346.23 152.83 C 365.34 177.27 384.57 201.62 403.7 226.05 C 408.84 232.62 413.88 239.27 418.85 245.97 C 421.17 249.1 423.65 249.04 426.57 245.35 C 430.7 240.14 434.75 234.86 438.84 229.61 C 454.25 209.85 469.68 190.1 485.08 170.33 C 506.23 143.17 527.36 115.99 548.5 88.82 C 551.57 84.88 555.12 82.89 560.64 82.92 C 608.65 83.2 656.66 83.09 704.67 83.09 C 714.29 83.09 714.44 83.23 714.44 92.77 C 714.44 138.73 714.44 184.69 714.44 230.65 C 714.44 240.22 714.22 240.42 704.71 240.42 C 667.46 240.41 630.22 240.42 592.97 240.42 C 579.9 240.42 566.83 240.52 553.76 240.3 C 549.76 240.23 546.83 241.57 544.47 244.6 C 527.05 266.9 509.64 289.22 492.19 311.5 C 475.37 332.98 458.49 354.41 441.66 375.89 C 436.82 382.06 432.04 388.28 427.29 394.53 C 423.05 400.1 421.96 399.89 417.82 394.43 C 409.38 383.28 400.56 372.42 391.95 361.4 C 372.43 336.41 352.94 311.39 333.44 286.39 C 322.95 272.95 312.39 259.56 302.02 246.03 C 298.98 242.06 295.57 240.18 290.35 240.26 C 281 240.4 271.64 239.34 262.29 239.4 C 220.81 239.63 179.34 240.06 137.86 240.44 Z M 567.49 593.01 C 548.9 617.83 530.89 643.08 512.54 668.09 C 502.06 682.37 491.33 696.47 480.81 710.71 C 473.11 721.13 465.42 731.57 457.99 742.19 C 455.57 745.64 452.75 747.26 448.62 747.25 C 431.02 747.18 413.42 747.36 395.82 747.02 C 393.23 746.97 389.83 745.28 388.26 743.23 C 378.21 730.11 368.58 716.66 358.78 703.35 C 342.01 680.58 325.17 657.85 308.43 635.06 C 296.73 619.14 285.2 603.1 273.45 587.21 C 270.36 583.03 269.11 578.68 269.13 573.45 C 269.29 530.9 269.23 488.35 269.24 445.8 C 269.24 442.43 269.24 439.05 269.24 435.68 C 270.05 435.3 270.86 434.92 271.67 434.54 C 273.15 436.56 274.64 438.57 276.12 440.59 C 290.49 460.28 304.84 479.99 319.22 499.67 C 333 518.53 346.82 537.36 360.61 556.21 C 367.35 565.42 374.19 574.55 380.75 583.89 C 383.9 588.37 387.7 590.13 393.26 590.05 C 412.74 589.76 432.22 589.68 451.69 590.08 C 457.96 590.21 461.87 587.85 465.28 583.01 C 472.93 572.15 480.84 561.47 488.67 550.74 C 502.44 531.88 516.25 513.06 530 494.18 C 543.15 476.13 556.19 458.01 569.41 440.02 C 570.56 438.45 572.65 437.57 574.31 436.37 C 574.74 436.75 575.17 437.14 575.6 437.52 C 575.6 440.22 575.6 442.92 575.6 445.63 C 575.6 486.47 575.31 527.31 575.78 568.15 C 575.89 577.83 573.15 585.42 567.46 593.02 Z M 714.44 668.58 C 714.44 692.16 714.46 715.74 714.44 739.32 C 714.44 746.56 713.76 747.19 706.48 747.19 C 668.2 747.21 629.93 747.19 591.65 747.29 C 587.46 747.3 585.65 745.61 585.68 741.57 C 585.7 738.67 585.66 735.76 585.66 732.86 C 585.66 688.09 585.64 643.32 585.64 598.55 C 585.64 590.26 586.12 589.88 594.25 589.89 C 631.16 589.92 668.07 589.91 704.98 589.89 C 714.16 589.89 714.44 590.14 714.43 599.38 C 714.43 622.45 714.43 645.52 714.43 668.58 Z" fill="rgb(26, 26, 26)" height="834.04px" id="cNfkw7Nc7" transform="translate(122.98 122.98)" width="834.04px"/></svg>