<svg display="block" role="presentation" viewBox="0 0 2267 491" xmlns="http://www.w3.org/2000/svg"><defs ><linearGradient id="AWiyWggeh-281195542-linear-gradient" x1="0" x2="1" y1="0.4975124378109453" y2="0.5024875621890547"><stop offset="0" stop-color="rgb(0, 255, 57)"/><stop offset="1" stop-color="rgb(0, 80, 255)"/></linearGradient></defs><path d="M 0 282.214 L 0 54.044 L 54.054 0 L 1968.098 0 L 1968.098 228.161 L 1914.054 282.214 Z" fill="url(#AWiyWggeh-281195542-linear-gradient)" height="282.21448808473076px" id="AWiyWggeh" transform="translate(149.896 104.616)" width="1968.098150926743px"/><g d="M 171.166 10.945 L 0 10.945 L 0 53.344 L 152.747 53.344 L 152.747 63.318 L 18.778 63.318 L 0 83.727 L 0 150.196 L 37.547 150.196 L 37.547 102.505 L 171.166 102.505 L 192.515 81.156 L 192.515 32.294 Z M 1860.641 10.945 L 1713.356 10.945 L 1692.927 31.374 L 1692.927 129.777 L 1721.089 150.206 L 1870.835 43.699 L 1860.631 10.955 Z M 1728.853 101.205 L 1728.853 46.871 L 1802.995 46.871 Z M 1876.198 117.032 L 1857.98 148.335 L 1795.862 97.013 L 1826.506 75.213 L 1876.198 117.022 Z M 971.879 150.196 L 935.953 150.196 L 935.953 46.18 L 887.652 46.18 L 887.652 10.945 L 1050.844 10.945 L 1050.844 46.18 L 971.879 46.18 Z M 747.07 150.196 L 782.995 150.196 L 782.995 46.18 L 831.307 46.18 L 831.307 10.945 L 667.284 10.945 L 667.284 46.18 L 747.07 46.18 Z M 569.401 46.31 L 657.07 46.29 L 657.07 10.925 L 533.255 10.945 L 518.949 39.748 L 594.812 143.083 L 609.129 150.196 L 726.811 150.196 L 737.025 139.982 L 737.025 114.28 L 620.444 114.28 Z M 1107.188 10.945 L 1107.188 129.777 L 1127.617 150.206 L 1292.86 150.206 L 1292.86 31.374 L 1272.431 10.945 Z M 1256.934 114.28 L 1143.104 114.28 L 1143.104 46.871 L 1256.934 46.871 Z M 1451.25 10.945 L 1487.166 10.945 L 1487.166 123.615 L 1451.25 96.022 Z M 1303.075 31.364 L 1303.075 150.196 L 1338.991 150.196 L 1338.991 59.756 L 1459.094 150.196 L 1487.166 130.798 L 1331.137 10.945 L 1303.065 31.374 Z M 370.433 10.945 L 223.148 10.945 L 202.719 31.374 L 202.719 129.777 L 230.882 150.206 L 380.628 43.699 L 370.423 10.955 Z M 238.645 101.205 L 238.645 46.871 L 312.788 46.871 Z M 381.308 118.892 L 363.09 150.196 L 305.655 97.013 L 336.298 75.213 L 381.308 118.882 Z M 487.755 10.945 L 454.34 10.945 L 373.305 150.196 L 414.533 150.196 L 471.048 47.791 L 518.329 114.28 L 458.832 114.28 L 454.791 97.473 L 424.747 150.196 L 554.475 150.196 L 568.791 121.384 Z M 1517.799 10.945 L 1683.042 10.945 L 1683.042 46.861 L 1533.296 46.861 L 1533.296 114.27 L 1683.042 114.27 L 1683.042 150.186 L 1517.799 150.186 L 1497.37 129.757 L 1497.37 31.354 L 1517.799 10.935 Z M 1547.673 69.791 L 1547.673 91.34 L 1557.837 98.523 L 1683.052 98.523 L 1683.052 62.608 L 1554.856 62.608 Z M 1096.974 129.777 L 1076.545 150.206 L 1061.048 150.206 L 1060.938 46.19 L 1096.854 46.19 L 1096.964 129.787 Z M 1096.974 10.945 L 1061.058 10.945 L 1060.948 36.546 L 1096.864 36.546 Z M 859.309 110.109 L 841.351 102.475 L 841.351 0 L 877.267 0 L 877.267 102.475 Z M 879.438 111.639 L 859.479 120.123 L 839.52 111.639 L 827.495 123.645 L 859.479 161.131 L 891.463 123.645 Z" fill="transparent" height="161.131074986506px" id="mBpnMjPuE" transform="translate(195.846 165.153)" width="1876.1976704425606px"><path d="M 171.166 0 L 0 0 L 0 42.399 L 152.747 42.399 L 152.747 52.373 L 18.778 52.373 L 0 72.782 L 0 139.251 L 37.547 139.251 L 37.547 91.56 L 171.166 91.56 L 192.515 70.211 L 192.515 21.349 Z" fill="rgb(255, 255, 255)" height="139.25142541924092px" id="PD82bz8JS" transform="translate(0 10.945)" width="192.51492056487203px"/><path d="M 167.714 0 L 20.429 0 L 0 20.429 L 0 118.832 L 28.162 139.261 L 177.908 32.754 L 167.704 0.01 Z M 35.926 90.26 L 35.926 35.926 L 110.069 35.926 Z M 183.271 106.087 L 165.053 137.391 L 102.935 86.068 L 133.579 64.268 L 183.271 106.077 Z" fill="rgb(255, 255, 255)" height="139.26142983230366px" id="Tt4kEeXwR" transform="translate(1692.927 10.945)" width="183.27084703514902px"/><path d="M 84.227 139.251 L 48.301 139.251 L 48.301 35.236 L 0 35.236 L 0 0 L 163.192 0 L 163.192 35.236 L 84.227 35.236 Z" fill="rgb(255, 255, 255)" height="139.25142541924092px" id="b2gQxeSQK" transform="translate(887.652 10.945)" width="163.19198587819938px"/><path d="M 79.785 139.251 L 115.711 139.251 L 115.711 35.236 L 164.022 35.236 L 164.022 0 L 0 0 L 0 35.236 L 79.785 35.236 Z" fill="rgb(255, 255, 255)" height="139.25142541924092px" id="hIKd31FuT" transform="translate(667.284 10.945)" width="164.0223521624007px"/><path d="M 50.452 35.386 L 138.121 35.366 L 138.121 0 L 14.306 0.02 L 0 28.823 L 75.863 132.158 L 90.18 139.271 L 207.862 139.271 L 218.076 129.057 L 218.076 103.356 L 101.495 103.356 Z" fill="rgb(255, 255, 255)" height="139.27143424536624px" id="i0pS9cVxV" transform="translate(518.949 10.925)" width="218.0761959399823px"/><path d="M 0 0 L 0 118.832 L 20.429 139.261 L 185.672 139.261 L 185.672 20.429 L 165.243 0 Z M 149.746 103.336 L 35.916 103.336 L 35.916 35.926 L 149.746 35.926 Z" fill="rgb(255, 255, 255)" height="139.2614298323036px" id="oh015enc0" transform="translate(1107.188 10.945)" width="185.67190203000905px"/><path d="M 148.185 0 L 184.101 0 L 184.101 112.67 L 148.185 85.078 Z M 0.01 20.419 L 0.01 139.251 L 35.926 139.251 L 35.926 48.812 L 156.029 139.251 L 184.101 119.853 L 28.072 0 L 0 20.429 Z" fill="rgb(255, 255, 255)" height="139.25142541924092px" id="VSgIgyeiT" transform="translate(1303.065 10.945)" width="184.10120917917038px"/><path d="M 167.714 0 L 20.429 0 L 0 20.429 L 0 118.832 L 28.162 139.261 L 177.908 32.754 L 167.704 0.01 Z M 35.926 90.26 L 35.926 35.926 L 110.069 35.926 Z M 178.589 107.948 L 160.371 139.251 L 102.935 86.068 L 133.579 64.268 L 178.589 107.938 Z" fill="rgb(255, 255, 255)" height="139.26142983230366px" id="oloMXlLF1" transform="translate(202.719 10.945)" width="178.5887732579617px"/><path d="M 114.45 0 L 81.036 0 L 0 139.251 L 41.228 139.251 L 97.743 36.846 L 145.024 103.336 L 85.528 103.336 L 81.486 86.528 L 51.443 139.251 L 181.17 139.251 L 195.486 110.439 Z" fill="rgb(255, 255, 255)" height="139.25142541924092px" id="L4B_eFRGR" transform="translate(373.305 10.945)" width="195.48623124448363px"/><path d="M 20.429 0.01 L 185.672 0.01 L 185.672 35.926 L 35.926 35.926 L 35.926 103.336 L 185.672 103.336 L 185.672 139.251 L 20.429 139.251 L 0 118.822 L 0 20.419 L 20.429 0 Z M 50.302 58.856 L 50.302 80.405 L 60.467 87.589 L 185.682 87.589 L 185.682 51.673 L 57.485 51.673 Z" fill="rgb(255, 255, 255)" height="139.251425419241px" id="rWLkoeCfU" transform="translate(1497.37 10.935)" width="185.68190363586223px"/><path d="M 36.036 118.832 L 15.607 139.261 L 0.11 139.261 L 0 35.246 L 35.916 35.246 L 36.026 118.842 Z M 36.036 0 L 0.12 0 L 0.01 25.601 L 35.926 25.601 Z" fill="rgb(255, 255, 255)" height="139.26143185920193px" id="qjnY1YvDx" transform="translate(1060.938 10.945)" width="36.035895899470006px"/><path d="M 31.814 110.109 L 13.856 102.475 L 13.856 0 L 49.772 0 L 49.772 102.475 Z M 51.943 111.639 L 31.984 120.123 L 12.025 111.639 L 0 123.645 L 31.984 161.131 L 63.968 123.645 Z" fill="rgb(255, 255, 255)" height="161.131074986506px" id="Ii1Qbi7R4" transform="translate(827.495 0)" width="63.9682171226832px"/></g></svg>