<svg display="block" role="presentation" viewBox="0 0 2266 716" xmlns="http://www.w3.org/2000/svg"><path d="M 0.025 381.944 L 0.025 269.809 L 95.983 269.809 C 104.9 269.809 111.352 271.531 115.351 274.95 C 119.35 278.381 121.35 283.911 121.35 291.553 L 121.35 317.858 C 121.35 325.424 119.35 330.942 115.351 334.411 C 111.352 337.88 104.9 339.614 95.983 339.614 L 81.332 339.614 L 133.134 381.944 L 95.656 381.944 L 50.431 339.614 L 25.694 339.614 L 25.694 381.944 L 0 381.944 Z M 84.413 289.24 L 25.706 289.24 L 25.706 320.422 L 84.413 320.422 C 88.94 320.422 92.034 319.769 93.694 318.461 C 95.354 317.154 96.184 314.842 96.184 311.511 L 96.184 298.038 C 96.184 294.783 95.354 292.508 93.694 291.201 C 92.034 289.894 88.94 289.24 84.413 289.24 Z M 196.054 381.944 L 196.054 269.809 L 310.914 269.809 L 310.914 288.901 L 222.175 288.901 L 222.175 313.937 L 273.977 313.937 L 273.977 333.028 L 222.175 333.028 L 222.175 360.817 L 311.983 360.817 L 311.983 381.932 L 196.066 381.932 Z M 360.465 381.944 L 423.939 269.809 L 449.091 269.809 L 513.42 381.944 L 484.117 381.944 L 470.635 357.436 L 399.515 357.436 L 386.461 381.944 L 360.453 381.944 Z M 410.67 337.188 L 459.819 337.188 L 435.622 291.578 Z M 571.259 381.944 L 571.259 269.809 L 643.447 269.809 C 664.035 269.809 679.869 274.623 690.949 284.238 C 702.028 293.853 707.562 307.502 707.562 325.186 C 707.562 335.655 705.399 345.081 701.085 353.452 C 696.771 361.835 690.684 368.433 682.824 373.234 C 677.945 376.276 671.87 378.488 664.626 379.87 C 657.37 381.253 648.088 381.944 636.757 381.944 Z M 597.38 360.842 L 631.135 360.842 C 649.107 360.842 661.847 358.052 669.355 352.459 C 676.85 346.878 680.611 337.641 680.611 324.771 C 680.611 313.308 677.492 304.636 671.266 298.729 C 665.041 292.822 655.835 289.869 643.674 289.869 L 597.393 289.869 L 597.393 360.842 Z M 777.173 381.944 L 777.173 269.809 L 803.281 269.809 L 803.281 381.944 Z M 882.135 381.944 L 882.135 269.809 L 899.969 269.809 L 978.949 335.894 C 981.64 338.081 984.004 340.154 986.054 342.102 C 988.104 344.051 989.978 346.049 991.676 348.098 C 991.248 341.801 990.972 337.352 990.821 334.737 C 990.682 332.123 990.607 330.112 990.607 328.692 L 990.607 269.822 L 1014.062 269.822 L 1014.062 381.957 L 996.229 381.957 L 913.853 312.68 C 911.866 310.908 910.143 309.324 908.646 307.904 C 907.162 306.496 905.779 305.038 904.509 303.555 C 904.861 307.024 905.125 310.292 905.301 313.371 C 905.477 316.451 905.565 319.115 905.565 321.377 L 905.565 381.957 L 882.11 381.957 Z M 1198.332 289.869 L 1116.811 289.869 L 1116.811 360.842 L 1198.332 360.842 L 1198.332 335.919 L 1155.66 335.919 L 1155.66 316.828 L 1223.698 316.828 L 1223.698 355.437 C 1223.698 365.693 1221.787 372.681 1217.963 376.389 C 1214.14 380.097 1206.783 381.957 1195.879 381.957 L 1118.497 381.957 C 1107.593 381.957 1100.236 380.097 1096.412 376.389 C 1092.589 372.681 1090.677 365.693 1090.677 355.437 L 1090.677 296.354 C 1090.677 286.173 1092.589 279.211 1096.412 275.453 C 1100.236 271.707 1107.593 269.835 1118.497 269.835 L 1195.879 269.835 C 1206.632 269.835 1213.964 271.67 1217.85 275.352 C 1221.736 279.035 1223.686 285.683 1223.686 295.298 L 1223.686 297.849 L 1198.319 302.412 L 1198.319 289.894 Z M 1406.346 381.944 L 1406.346 269.809 L 1424.179 269.809 L 1503.159 335.894 C 1505.85 338.081 1508.215 340.154 1510.265 342.102 C 1512.315 344.051 1514.189 346.049 1515.886 348.098 C 1515.459 341.801 1515.182 337.352 1515.031 334.737 C 1514.893 332.123 1514.817 330.112 1514.817 328.692 L 1514.817 269.822 L 1538.272 269.822 L 1538.272 381.957 L 1520.439 381.957 L 1438.063 312.68 C 1436.076 310.908 1434.353 309.324 1432.857 307.904 C 1431.373 306.496 1429.989 305.038 1428.719 303.555 C 1429.071 307.024 1429.335 310.292 1429.511 313.371 C 1429.688 316.451 1429.776 319.115 1429.776 321.377 L 1429.776 381.957 L 1406.321 381.957 Z M 1617.252 381.944 L 1617.252 269.809 L 1732.113 269.809 L 1732.113 288.901 L 1643.373 288.901 L 1643.373 313.937 L 1695.176 313.937 L 1695.176 333.028 L 1643.373 333.028 L 1643.373 360.817 L 1733.182 360.817 L 1733.182 381.932 L 1617.265 381.932 Z M 1802.893 381.944 L 1802.893 269.809 L 1824.021 269.809 L 1876.88 337.603 L 1928.582 269.809 L 1949.496 269.809 L 1949.496 381.944 L 1925.299 381.944 L 1925.299 312.667 C 1925.299 311.323 1925.387 309.626 1925.563 307.577 C 1925.739 305.529 1925.966 303.229 1926.255 300.677 C 1924.834 303.581 1923.601 305.969 1922.545 307.841 C 1921.489 309.714 1920.533 311.26 1919.678 312.454 L 1877.534 368.471 L 1872.327 368.471 L 1830.083 312.253 C 1828.524 310.129 1827.203 308.13 1826.096 306.258 C 1825.002 304.385 1824.097 302.563 1823.393 300.79 C 1823.606 303.128 1823.77 305.252 1823.87 307.15 C 1823.971 309.06 1824.034 310.895 1824.034 312.667 L 1824.034 381.944 L 1802.906 381.944 Z M 2023.772 296.341 C 2023.772 286.161 2025.684 279.198 2029.507 275.44 C 2033.331 271.695 2040.688 269.822 2051.592 269.822 L 2134.181 269.822 C 2145.072 269.822 2152.442 271.695 2156.265 275.44 C 2160.088 279.185 2162 286.148 2162 296.341 L 2162 355.425 C 2162 365.681 2160.088 372.669 2156.265 376.376 C 2152.442 380.084 2145.085 381.944 2134.181 381.944 L 2051.592 381.944 C 2040.688 381.944 2033.331 380.084 2029.507 376.376 C 2025.684 372.669 2023.772 365.681 2023.772 355.425 Z M 2049.881 360.842 L 2135.967 360.842 L 2135.967 289.869 L 2049.881 289.869 Z M 743.405 460.986 L 714.026 460.986 L 714.026 470.614 L 742.009 470.614 C 746.398 470.614 749.366 471.368 750.9 472.863 C 752.435 474.359 753.214 477.149 753.214 481.221 L 753.214 487.38 C 753.214 491.452 752.447 494.242 750.9 495.738 C 749.353 497.233 746.398 497.987 742.009 497.987 L 714.29 497.987 C 709.901 497.987 706.933 497.233 705.399 495.738 C 703.852 494.242 703.085 491.452 703.085 487.38 L 703.085 486.148 L 712.291 484.238 L 712.291 489.542 L 744.008 489.542 L 744.008 479.311 L 716.026 479.311 C 711.662 479.311 708.719 478.557 707.197 477.061 C 705.663 475.566 704.908 472.775 704.908 468.703 L 704.908 463.739 C 704.908 459.667 705.676 456.876 707.197 455.381 C 708.719 453.885 711.674 453.131 716.026 453.131 L 741.493 453.131 C 745.706 453.131 748.624 453.847 750.221 455.293 C 751.818 456.738 752.623 459.29 752.623 462.972 L 752.623 463.902 L 743.417 466.064 L 743.417 460.974 Z M 792.252 497.987 L 792.252 453.144 L 802.69 453.144 L 802.69 497.987 Z M 842.935 497.987 L 842.935 453.144 L 850.065 453.144 L 881.657 479.575 C 882.726 480.455 883.682 481.284 884.5 482.051 C 885.317 482.83 886.072 483.634 886.751 484.451 C 886.575 481.938 886.462 480.153 886.411 479.11 C 886.348 478.067 886.323 477.262 886.323 476.697 L 886.323 453.144 L 895.705 453.144 L 895.705 497.987 L 888.574 497.987 L 855.624 470.287 C 854.832 469.583 854.14 468.942 853.549 468.376 C 852.958 467.811 852.405 467.233 851.889 466.642 C 852.027 468.025 852.141 469.332 852.203 470.563 C 852.279 471.795 852.304 472.863 852.304 473.768 L 852.304 498 L 842.922 498 Z M 973.629 461.162 L 945.483 461.162 L 945.483 489.542 L 973.629 489.542 L 973.629 479.914 L 984.067 482.076 L 984.067 487.38 C 984.067 491.477 983.3 494.28 981.753 495.763 C 980.206 497.246 977.276 497.987 972.937 497.987 L 946.149 497.987 C 941.785 497.987 938.842 497.246 937.321 495.763 C 935.786 494.28 935.032 491.49 935.032 487.38 L 935.032 463.751 C 935.032 459.679 935.799 456.889 937.321 455.393 C 938.842 453.898 941.798 453.144 946.149 453.144 L 972.937 453.144 C 977.263 453.144 980.206 453.898 981.753 455.393 C 983.3 456.889 984.067 459.679 984.067 463.751 L 984.067 467.999 L 973.629 469.658 L 973.629 461.175 Z M 1022.991 497.987 L 1022.991 453.144 L 1068.933 453.144 L 1068.933 460.785 L 1033.442 460.785 L 1033.442 470.802 L 1054.156 470.802 L 1054.156 478.444 L 1033.442 478.444 L 1033.442 489.554 L 1069.36 489.554 L 1069.36 498 L 1023.004 498 Z M 1195.238 489.919 L 1169.167 489.919 L 1195.527 473.919 C 1198.08 472.335 1199.677 470.966 1200.344 469.809 C 1201.011 468.653 1201.338 466.981 1201.338 464.807 L 1201.338 461.916 C 1201.338 458.548 1200.633 456.248 1199.237 455.004 C 1197.841 453.759 1195.112 453.131 1191.063 453.131 L 1168.01 453.131 C 1163.96 453.131 1161.244 453.747 1159.86 455.004 C 1158.477 456.248 1157.785 458.548 1157.785 461.916 L 1157.785 467.735 L 1166.664 470.023 L 1166.664 460.773 L 1192.22 460.773 L 1192.22 466.629 L 1161.181 485.721 C 1159.056 487.053 1157.584 488.247 1156.742 489.328 C 1155.911 490.409 1155.484 491.929 1155.484 493.915 L 1155.484 497.987 L 1193.226 497.987 C 1197.275 497.987 1199.992 497.372 1201.4 496.115 C 1202.796 494.87 1203.501 492.57 1203.501 489.202 L 1203.501 485.633 L 1195.225 483.295 L 1195.225 489.919 Z M 1281.864 453.144 L 1251.505 453.144 C 1247.543 453.144 1244.839 453.885 1243.418 455.368 C 1241.984 456.851 1241.268 459.641 1241.268 463.751 L 1241.268 487.38 C 1241.268 491.477 1241.984 494.28 1243.418 495.763 C 1244.852 497.246 1247.543 497.987 1251.505 497.987 L 1281.864 497.987 C 1285.851 497.987 1288.567 497.246 1289.989 495.763 C 1291.422 494.28 1292.127 491.49 1292.127 487.38 L 1292.127 463.751 C 1292.127 459.654 1291.41 456.851 1289.989 455.368 C 1288.555 453.885 1285.851 453.144 1281.864 453.144 Z M 1282.707 489.919 L 1250.65 489.919 L 1250.65 460.773 L 1282.707 460.773 Z M 1369.623 489.919 L 1343.552 489.919 L 1369.912 473.919 C 1372.465 472.335 1374.062 470.966 1374.729 469.809 C 1375.395 468.653 1375.722 466.981 1375.722 464.807 L 1375.722 461.916 C 1375.722 458.548 1375.018 456.248 1373.622 455.004 C 1372.226 453.759 1369.497 453.131 1365.447 453.131 L 1342.395 453.131 C 1338.345 453.131 1335.629 453.747 1334.245 455.004 C 1332.862 456.248 1332.17 458.548 1332.17 461.916 L 1332.17 467.735 L 1341.036 470.023 L 1341.036 460.773 L 1366.592 460.773 L 1366.592 466.629 L 1335.553 485.721 C 1333.428 487.053 1331.956 488.247 1331.114 489.328 C 1330.284 490.409 1329.869 491.929 1329.869 493.915 L 1329.869 497.987 L 1367.61 497.987 C 1371.66 497.987 1374.376 497.372 1375.785 496.115 C 1377.181 494.87 1377.885 492.57 1377.885 489.202 L 1377.885 485.633 L 1369.61 483.295 L 1369.61 489.919 Z M 1458.148 471.921 C 1454.488 469.42 1449.005 468.175 1441.686 468.175 C 1439.309 468.175 1436.68 468.263 1433.788 468.427 C 1430.895 468.59 1427.55 468.879 1423.752 469.269 L 1424.758 460.685 L 1455.683 460.685 L 1456.438 453.144 L 1418.18 453.144 L 1415.665 477.677 C 1420.243 477.099 1424.544 476.646 1428.568 476.332 C 1432.593 476.031 1436.278 475.867 1439.636 475.867 C 1444.893 475.867 1448.615 476.395 1450.816 477.463 C 1453.017 478.519 1454.124 480.279 1454.124 482.742 C 1454.124 485.344 1452.992 487.191 1450.728 488.285 C 1448.464 489.391 1444.553 489.944 1438.994 489.944 C 1435.448 489.944 1431.75 489.755 1427.914 489.378 C 1424.079 489.001 1419.991 488.423 1415.665 487.644 L 1417.891 496.19 C 1420.406 496.781 1423.475 497.221 1427.084 497.535 C 1430.706 497.837 1434.756 498 1439.258 498 C 1447.835 498 1454.048 496.831 1457.884 494.481 C 1461.72 492.131 1463.644 488.373 1463.644 483.169 C 1463.644 477.966 1461.808 474.422 1458.148 471.921 Z M 1154.553 151.906 C 1154.754 153.427 1155.044 154.483 1156.163 155.061 C 1159.282 156.669 1162.577 151.969 1162.577 151.969 C 1162.577 151.969 1164.841 151.315 1165.583 150.247 C 1165.583 150.247 1161.533 153.05 1155.471 149.103 C 1154.792 148.663 1155.585 147.319 1155.635 147.243 C 1155.559 147.381 1154.365 149.279 1152.013 149.43 C 1152.013 149.43 1153.044 149.581 1154.591 149.304 C 1154.591 149.304 1154.327 150.335 1154.541 151.906 Z M 1161.848 151.969 C 1161.848 151.969 1160.376 153.967 1158.565 154.545 L 1159.86 151.655 C 1160.602 151.843 1161.307 151.956 1161.848 151.969 Z M 1156.918 150.662 C 1157.647 150.976 1158.515 151.278 1159.357 151.516 L 1157.949 154.684 C 1157.521 154.734 1157.094 154.684 1156.666 154.52 L 1156.93 150.662 Z M 1155.345 149.795 C 1155.61 149.996 1155.974 150.222 1156.427 150.436 L 1156.163 154.244 C 1154.817 153.1 1155.22 149.707 1155.345 149.795 Z M 1230.037 120.938 C 1223.648 91.653 1196.936 71.494 1143.687 74.372 C 1142.87 72.814 1142.052 71.293 1141.247 69.822 C 1140.732 68.88 1140.241 67.975 1139.763 67.082 L 1043.39 88.071 L 1043.214 91.176 C 1043.025 93.815 1042.862 96.543 1042.636 99.383 C 1004.579 116.124 983.577 137.088 970.548 161.722 L 970.208 160.151 C 969.516 156.996 966.385 154.973 963.216 155.664 C 960.059 156.355 958.034 159.485 958.726 162.652 L 959.87 167.918 C 952.903 164.65 945.81 161.42 938.842 158.152 C 924.945 152.962 930.089 175.384 943.546 175.773 C 946.942 175.924 950.337 176.05 953.733 176.163 C 953.192 177.696 953.054 179.393 953.431 181.102 C 953.796 182.786 954.626 184.257 955.733 185.426 C 952.702 186.946 949.683 188.455 946.652 189.938 C 934.604 195.996 939.245 218.405 949.708 207.91 C 954.689 202.041 959.782 196.147 964.762 190.29 L 965.932 195.669 C 966.624 198.824 969.755 200.847 972.925 200.156 C 976.081 199.465 978.106 196.335 977.414 193.168 L 977.075 191.597 C 978.923 193.809 981.087 195.883 983.539 197.831 L 983.464 197.831 C 1054.369 229.578 1118.874 213.642 1130.62 211.078 C 1137.173 209.645 1143.348 208.099 1149.196 206.44 L 1167.846 200.344 C 1206.23 185.928 1225.358 165.756 1230.15 144.227 L 1230.15 144.227 C 1231.835 136.573 1231.722 128.743 1230.024 120.925 Z M 1100.022 172.581 C 1095.167 183.075 1085.584 191.056 1073.511 193.909 C 1061.727 196.7 1034.411 191.961 1028.072 164.751 C 1023.281 144.189 1036.599 123.853 1057.237 119.354 C 1077.762 114.88 1098.161 127.875 1102.663 148.5 C 1104.499 156.908 1103.367 165.291 1099.997 172.581 L 1100.034 172.581 Z M 1189.931 152.999 L 1189.931 152.999 C 1185.101 163.582 1175.531 171.852 1163.344 174.504 C 1151.095 177.168 1138.946 173.624 1130.18 166.02 L 1130.117 166.02 C 1124.131 160.83 1119.716 153.728 1117.905 145.421 C 1113.403 124.796 1126.432 104.523 1147.07 100.024 C 1167.595 95.55 1187.994 108.545 1192.496 129.17 C 1194.307 137.478 1193.238 145.773 1189.943 152.999 Z M 1044.849 134.097 C 1032.336 145.421 1031.48 164.625 1042.812 177.143 C 1045.138 179.695 1047.817 181.756 1050.697 183.339 L 1050.697 183.339 C 1061.777 189.422 1075.976 188.191 1085.911 179.204 C 1087.383 177.847 1088.691 176.377 1089.835 174.818 L 1089.797 174.818 C 1098.311 163.318 1097.884 147.067 1087.923 136.145 C 1076.592 123.64 1057.249 122.823 1044.849 134.109 Z M 1066.732 144.968 C 1063.651 147.721 1059.023 147.381 1056.294 144.415 C 1053.564 141.449 1053.766 136.749 1056.721 134.009 C 1059.802 131.256 1064.405 131.482 1067.134 134.436 C 1069.901 137.515 1069.7 142.228 1066.732 144.956 Z M 1134.205 149.719 C 1134.205 149.719 1134.205 149.719 1134.205 149.707 C 1134.205 149.707 1134.23 149.707 1134.242 149.707 C 1134.217 149.707 1134.205 149.707 1134.192 149.719 Z M 1138.732 151.692 C 1136.858 152.12 1135.286 153.364 1134.293 154.344 C 1133.815 154.822 1133.349 155.35 1132.985 155.827 C 1132.456 156.531 1132.318 156.896 1132.406 157.298 C 1132.469 157.562 1132.633 157.801 1132.871 157.926 C 1133.073 158.039 1133.312 158.077 1133.538 158.027 C 1133.664 158.002 1133.79 157.951 1133.903 157.876 C 1134.984 157.147 1136.154 156.657 1137.361 156.393 C 1137.789 156.305 1138.191 156.255 1138.569 156.217 C 1138.569 156.355 1138.569 156.506 1138.569 156.632 C 1138.569 157.134 1138.556 157.612 1138.569 158.002 C 1138.569 158.479 1138.506 158.932 1138.342 159.346 C 1138.242 159.61 1138.154 159.874 1138.066 160.138 C 1137.701 160.126 1137.324 160.151 1136.921 160.239 C 1136.531 160.327 1136.104 160.478 1135.663 160.666 C 1134.607 159.786 1133.601 158.856 1132.645 157.813 C 1121.691 145.722 1122.119 127.373 1133.463 115.935 C 1132.57 118.437 1133.048 121.352 1134.947 123.426 C 1137.676 126.392 1142.304 126.732 1145.385 123.979 C 1148.353 121.252 1148.554 116.539 1145.787 113.46 C 1144.14 111.675 1141.826 110.896 1139.562 111.147 C 1151.736 103.87 1167.809 105.856 1177.732 116.815 C 1179.807 119.09 1181.467 121.604 1182.712 124.243 C 1180.901 128.629 1177.933 130.942 1175.833 132.626 C 1175.644 132.777 1175.581 132.815 1175.656 132.438 C 1175.694 132.211 1175.744 131.998 1175.795 131.772 C 1176.185 129.987 1176.159 128.202 1175.958 126.367 C 1175.568 121.78 1173.38 118.386 1171.217 117.029 C 1170.311 116.426 1169.016 115.847 1168.01 115.646 C 1167.846 115.634 1167.997 115.709 1168.06 115.747 C 1168.953 116.187 1172.399 117.884 1174.034 122.081 C 1175.179 125.047 1175.292 128.19 1174.361 131.219 C 1174.185 131.746 1173.984 132.211 1173.77 132.664 C 1173.732 132.664 1173.707 132.664 1173.669 132.676 C 1172.814 132.865 1171.846 133.418 1170.739 134.072 C 1169.255 134.939 1167.557 135.919 1165.683 136.321 L 1165.658 136.321 C 1165.482 136.359 1165.08 136.296 1164.577 136.17 C 1165.859 135.366 1167.016 134.574 1167.922 133.858 C 1169.972 132.249 1170.261 131.47 1170.286 130.929 C 1170.311 130.339 1169.934 129.849 1169.33 129.673 C 1167.381 129.094 1166.048 128.629 1165.356 128.366 C 1165.356 128.366 1165.356 128.353 1165.356 128.34 C 1165.407 127.674 1165.457 126.97 1165.532 126.606 C 1165.91 125.01 1166.237 121.993 1164.149 119.807 C 1162.967 118.562 1161.244 117.909 1159.848 118.16 C 1159.772 118.173 1159.71 118.185 1159.647 118.198 C 1157.509 118.663 1155.823 120.196 1153.685 122.132 C 1151.547 124.067 1148.894 126.468 1144.932 128.466 C 1137.789 132.048 1134.506 135.291 1134.871 138.37 C 1135.085 140.117 1136.443 141.613 1138.908 142.807 C 1140.115 143.385 1141.273 143.749 1141.876 143.913 C 1141.335 144.541 1140.707 145.446 1140.141 146.652 C 1139.587 147.155 1138.292 148.173 1136.317 148.601 C 1135.651 148.739 1134.972 148.814 1134.267 148.802 C 1134.179 148.802 1134.104 148.802 1134.028 148.827 C 1133.84 148.864 1133.676 148.952 1133.551 149.091 C 1133.324 149.317 1133.236 149.644 1133.299 149.958 C 1133.362 150.26 1133.488 150.8 1135.877 151.366 M 1183.24 125.362 C 1187.353 135.077 1186.133 146.464 1179.819 155.199 L 1179.794 155.199 C 1178.612 156.833 1177.254 158.366 1175.732 159.774 C 1172.122 163.042 1167.947 165.279 1163.57 166.523 C 1163.57 166.259 1163.558 165.983 1163.508 165.706 C 1163.143 163.67 1161.42 161.747 1159.219 160.917 C 1158.615 160.679 1158.049 160.515 1157.534 160.427 C 1157.66 160.151 1157.823 159.899 1158.024 159.711 C 1158.829 158.969 1159.911 158.316 1160.791 157.788 C 1161.118 157.599 1161.42 157.411 1161.671 157.248 C 1161.885 157.109 1162.275 156.896 1162.766 156.619 C 1165.117 155.325 1169.997 152.622 1172.852 148.487 C 1175.933 144.013 1177.43 138.093 1176.424 134.587 C 1176.914 134.147 1177.405 133.707 1177.882 133.255 C 1179.568 131.658 1181.894 129.321 1183.24 125.374 Z M 1157.421 146.577 C 1158.854 146.263 1160.011 145.358 1160.678 144.164 L 1161.281 144.038 C 1161.281 144.038 1161.357 144.038 1161.395 144.013 C 1164.048 143.435 1165.746 140.796 1165.168 138.144 C 1164.589 135.479 1161.948 133.795 1159.294 134.373 C 1158.1 134.637 1157.056 135.316 1156.339 136.321 L 1155.974 136.824 C 1155.76 136.837 1155.547 136.874 1155.333 136.925 C 1152.679 137.503 1150.981 140.142 1151.56 142.794 C 1152.138 145.458 1154.779 147.143 1157.433 146.564 Z M 1159.483 135.291 C 1161.646 134.826 1163.784 136.183 1164.25 138.345 C 1164.715 140.507 1163.357 142.643 1161.194 143.108 C 1161.168 143.108 1161.143 143.108 1161.118 143.121 C 1161.344 142.354 1161.382 141.525 1161.206 140.695 C 1161.168 140.494 1161.093 140.305 1161.03 140.117 C 1161.08 140.268 1161.143 140.419 1161.181 140.582 C 1161.395 140.595 1161.772 140.569 1161.973 140.469 C 1162.715 140.142 1162.992 139.162 1162.615 138.307 C 1162.275 137.54 1161.521 137.113 1160.841 137.251 C 1160.879 137.302 1160.917 137.364 1160.942 137.427 C 1161.156 137.905 1160.967 138.445 1160.527 138.646 C 1160.452 138.684 1160.363 138.697 1160.288 138.709 C 1159.508 137.716 1158.376 137.038 1157.106 136.849 C 1157.66 136.07 1158.49 135.492 1159.496 135.278 Z M 1155.522 137.842 C 1157.685 137.377 1159.823 138.734 1160.288 140.896 C 1160.753 143.058 1159.395 145.195 1157.232 145.66 C 1155.069 146.125 1152.931 144.755 1152.465 142.605 C 1152 140.444 1153.371 138.307 1155.522 137.842 Z M 1156.075 141.487 C 1156.025 141.173 1156.05 140.858 1156.125 140.582 C 1156.314 140.758 1156.578 140.846 1156.855 140.808 C 1157.333 140.72 1157.647 140.243 1157.559 139.727 C 1157.559 139.652 1157.521 139.589 1157.496 139.526 C 1158.188 139.564 1158.817 140.155 1158.955 140.984 C 1159.118 141.914 1158.603 142.781 1157.798 142.92 C 1157.006 143.058 1156.226 142.417 1156.062 141.474 Z M 1155.396 156.757 C 1154.226 156.292 1153.849 154.998 1153.786 154.156 C 1154.188 155.186 1154.591 155.677 1155.748 156.23 C 1156.591 156.632 1157.785 156.531 1158.314 156.204 C 1158.301 156.28 1156.88 157.336 1155.396 156.745 Z M 1159.295 165.97 C 1159.433 166.435 1159.332 166.95 1159.018 167.378 L 1159.018 167.403 L 1158.993 167.428 C 1158.993 167.428 1158.968 167.453 1158.968 167.466 C 1157.811 167.604 1156.653 167.679 1155.496 167.692 L 1155.496 166.536 C 1155.962 165.932 1156.352 165.291 1156.628 164.587 C 1156.679 164.587 1156.729 164.6 1156.792 164.613 C 1157.345 164.688 1157.861 164.751 1158.301 164.952 L 1158.314 164.952 L 1158.339 164.965 C 1158.829 165.166 1159.181 165.53 1159.307 165.983 Z M 1137.927 64.933 L 1043.717 85.394 C 1043.944 82.453 1045.063 76.986 1046.798 74.925 C 1048.521 72.713 1050.785 71.23 1053.25 70.702 C 1059.123 69.42 1064.984 68.151 1070.845 66.869 C 1070.228 64.053 1071.951 61.226 1074.882 60.585 L 1081.333 59.177 L 1075.762 33.625 C 1074.479 27.769 1075.749 21.723 1078.768 17.01 C 1081.887 12.159 1086.766 8.64 1092.753 7.333 L 1100.399 5.774 L 1103.015 17.475 L 1095.306 19.046 C 1092.614 19.637 1090.401 21.346 1089.03 23.483 C 1087.533 25.645 1087.018 28.347 1087.609 31.036 L 1093.18 56.588 L 1099.632 55.18 C 1102.449 54.564 1105.304 56.399 1105.92 59.215 C 1111.781 57.933 1117.641 56.663 1123.515 55.381 C 1125.98 54.841 1128.646 55.243 1131.136 56.538 C 1133.563 57.706 1136.632 62.306 1137.952 64.908 Z M 1100.953 3.952 C 1100.575 2.192 1101.783 0.458 1103.543 0.068 C 1103.833 0.005 1104.109 -0.007 1104.386 0.005 C 1105.945 -0.083 1107.379 0.948 1107.719 2.531 L 1110.938 17.287 C 1111.315 19.046 1110.221 20.756 1108.461 21.133 C 1108.222 21.183 1107.97 21.208 1107.731 21.208 C 1106.109 21.359 1104.512 20.341 1104.16 18.707 L 1103.833 17.186 L 1101.28 5.472 Z" fill="rgb(241, 242, 242)" height="498.00000099709723px" id="oq8NVL8Ot" transform="translate(51.68 108.916)" width="2161.9999025349007px"/></svg>