<svg display="block" role="presentation" viewBox="0 0 1080 1080" xmlns="http://www.w3.org/2000/svg"><path d="M 411.43 0 C 184.21 0 0 184.2 0 411.43 C 0 638.66 184.2 822.86 411.43 822.86 C 638.66 822.86 822.86 638.66 822.86 411.43 C 822.86 184.2 638.66 0 411.43 0 Z M 702.53 137.91 L 706.62 142.84 L 700.99 168.34 L 726.89 167.3 L 730.93 172.18 L 704.69 193.92 L 700.01 188.27 L 716.23 174.83 C 716.74 174.41 717.7 173.7 719.2 172.72 C 717.57 173.13 716.18 173.42 715.19 173.47 L 693.9 174.47 L 692.89 173.25 L 697.89 152.47 C 698.2 151.19 698.6 149.91 699.28 148.66 C 698.3 149.65 697.47 150.41 696.61 151.13 L 680.39 164.57 L 676.3 159.64 L 702.54 137.9 Z M 641.3 84.51 L 668.87 105.86 L 665.31 110.45 L 644.01 93.95 L 639.36 99.96 L 651.79 109.58 L 648.23 114.17 L 635.8 104.55 L 630.62 111.23 L 652.18 127.93 L 648.26 132.99 L 620.43 111.44 L 641.29 84.5 Z M 563.79 41.31 L 568.68 43.64 L 581.67 72.09 C 582.44 73.7 583.12 75.34 583.59 77.11 C 584.64 74.46 585.37 72.62 585.82 71.66 L 593.53 55.51 L 599.97 58.58 L 585.3 89.34 L 580.41 87.01 L 566.89 57.22 C 566.37 56.02 565.9 54.85 565.52 53.49 C 564.62 55.99 563.91 57.63 563.49 58.52 L 555.55 75.15 L 549.11 72.08 L 563.79 41.32 Z M 421.18 36.87 L 422.64 18.97 C 423.16 12.59 425.34 11.11 431.72 11.63 L 455.15 13.54 C 461.34 14.04 463.45 15.81 462.95 21.93 C 462.93 22.19 462.91 22.46 462.89 22.72 L 455.08 23.47 L 455.39 19.65 L 430.71 17.64 L 428.95 39.16 L 453.63 41.17 L 454.25 33.6 L 441.35 32.55 L 441.82 26.76 L 462.42 28.44 L 461.46 40.16 C 460.94 46.54 458.76 48.02 452.38 47.5 L 428.95 45.59 C 422.57 45.07 420.66 43.26 421.18 36.87 Z M 340.73 17.42 L 367.33 33.86 C 368.86 34.77 370.34 35.76 371.71 36.96 C 371.11 34.18 370.69 32.24 370.54 31.19 L 367.98 13.48 L 375.04 12.46 L 379.92 46.18 L 374.56 46.96 L 346.78 29.69 C 345.68 28.98 344.64 28.27 343.57 27.35 C 344.21 29.93 344.53 31.68 344.67 32.66 L 347.31 50.89 L 340.25 51.91 L 335.37 18.19 Z M 288.69 30.83 L 299.87 63.02 L 292.38 65.62 L 281.2 33.43 Z M 222.11 59.49 C 233.27 53.33 242.2 55.57 247.31 64.82 C 250.4 70.43 250.53 76.4 247.77 81.24 C 245.87 84.63 242.11 87.38 236.79 90.32 L 219.38 99.92 L 202.92 70.08 L 222.12 59.49 Z M 153.22 107 L 190.39 119.73 L 183.69 125.61 L 175.69 122.7 L 159.45 136.94 L 161.39 145.16 L 155.43 150.38 L 147.46 112.04 L 153.22 106.99 Z M 106.28 154.27 L 110.93 157.76 L 94.75 179.3 L 100.82 183.86 L 110.26 171.3 L 114.91 174.79 L 105.47 187.35 L 112.23 192.43 L 128.61 170.63 L 133.73 174.48 L 112.59 202.62 L 85.35 182.15 L 106.3 154.28 Z M 57.41 229.63 C 59.62 224.9 62.33 223.47 66.63 225.48 L 73.87 228.86 C 78.18 230.87 78.82 233.87 76.62 238.6 L 74.72 242.67 L 93.04 233.87 L 88.24 244.16 L 70.76 251.16 L 67.58 257.98 L 79.25 263.43 L 75.95 270.49 L 45.07 256.08 L 57.41 229.62 Z M 235.56 741.02 L 235.33 741.42 L 230.94 740.1 L 232.18 737.95 L 219.86 730.84 L 217.53 734.89 L 229.27 741.66 C 232.81 743.7 233.45 745.29 231.41 748.82 L 229.92 751.41 C 227.88 754.95 226.19 755.19 222.65 753.15 L 211.02 746.44 C 207.48 744.4 206.84 742.81 208.88 739.28 L 209.17 738.77 L 213.5 740.2 L 212.22 742.42 L 225.53 750.1 L 228.01 745.8 L 216.27 739.03 C 212.73 736.99 212.13 735.43 214.17 731.89 L 215.37 729.81 C 217.41 726.27 219.07 726.02 222.6 728.05 L 233.28 734.21 C 236.63 736.14 237.44 737.78 235.57 741.02 Z M 258.44 770.6 L 253.81 768.59 L 262.46 748.68 L 267.09 750.69 Z M 310.88 788.87 L 307.58 787.87 L 296.19 770.41 C 295.74 769.71 295.34 769.01 294.97 768.2 C 294.64 769.86 294.36 770.96 294.17 771.56 L 290.78 782.8 L 286.43 781.49 L 292.7 760.7 L 296 761.7 L 306.93 778.36 C 307.57 779.3 308.16 780.27 308.63 781.33 C 309.03 779.56 309.32 778.33 309.51 777.68 L 312.8 766.76 L 317.15 768.07 L 310.88 788.86 Z M 365.95 782.61 L 365.64 784.65 L 360.53 784.67 L 361.16 780.59 L 347.68 778.52 L 345.59 792.12 L 359.07 794.2 L 359.78 789.58 L 364.61 791.39 L 364.22 793.93 C 363.6 797.96 362.15 798.81 358.11 798.19 L 345.3 796.22 C 341.26 795.6 340.13 794.36 340.76 790.33 L 342.5 779.02 C 343.12 774.99 344.57 774.14 348.6 774.77 L 361.41 776.74 C 365.45 777.36 366.58 778.6 365.95 782.64 Z M 415.46 783.9 L 398.3 783.55 L 398.2 788.39 L 408.21 788.59 L 408.13 792.29 L 398.12 792.09 L 398.01 797.47 L 415.38 797.82 L 415.3 801.9 L 392.88 801.44 L 393.32 779.73 L 415.53 780.18 L 415.46 783.88 Z M 495.55 792.62 L 477.64 796.24 L 477.25 794.3 C 476.96 792.86 476.95 791.96 479.15 789.88 L 492.05 777.83 L 491.49 775.06 L 479.36 777.51 L 480.24 781.88 L 475.82 781.66 L 475.26 778.9 C 474.58 775.52 475.66 774.48 479.29 773.75 L 490.22 771.54 C 493.85 770.81 495.25 771.34 495.93 774.72 L 496.21 776.08 C 496.71 778.56 496.09 779.33 494.32 780.97 L 483.35 791.09 L 495.73 788.59 L 495.1 785.45 L 499.25 785.77 L 499.59 787.46 C 500.27 790.84 499.19 791.88 495.56 792.61 Z M 545.61 778.06 L 531.72 782.83 C 528.1 784.07 526.65 783.37 525.36 779.59 L 521.64 768.77 C 520.34 764.99 521.05 763.55 524.67 762.3 L 538.56 757.53 C 542.18 756.28 543.63 756.99 544.92 760.77 L 548.64 771.59 C 549.94 775.37 549.23 776.82 545.61 778.06 Z M 592.33 757.44 L 575.99 765.61 L 575.11 763.84 C 574.45 762.52 574.21 761.66 575.79 759.08 L 585.09 744.08 L 583.83 741.56 L 572.76 747.09 L 574.75 751.08 L 570.42 752.02 L 569.16 749.5 C 567.62 746.41 568.39 745.13 571.7 743.48 L 581.68 738.5 C 584.99 736.84 586.48 736.99 588.02 740.08 L 588.64 741.32 C 589.77 743.58 589.37 744.48 588.09 746.53 L 580.14 759.16 L 591.44 753.52 L 590.01 750.66 L 594.1 749.89 L 594.87 751.43 C 596.41 754.52 595.64 755.8 592.33 757.45 Z M 638.62 730.2 C 637.65 732.14 635.41 734.21 631.91 736.4 C 630.07 737.55 628.38 738.53 626.82 739.33 C 625.26 740.13 623.9 740.73 622.72 741.14 L 619.63 738.22 C 621.6 737.43 623.42 736.62 625.08 735.79 C 626.75 734.96 628.3 734.09 629.75 733.19 C 632.02 731.77 633.48 730.54 634.12 729.51 C 634.76 728.48 634.75 727.43 634.09 726.37 C 633.46 725.36 632.56 724.93 631.39 725.06 C 630.22 725.19 628.56 725.93 626.41 727.27 C 625.04 728.13 623.57 729.13 622.01 730.29 C 620.44 731.45 618.8 732.73 617.08 734.14 L 611.82 723.46 L 627.45 713.67 L 629.07 716.95 L 616.43 724.86 L 618.22 728.63 C 619.67 727.5 620.97 726.53 622.11 725.72 C 623.25 724.91 624.3 724.2 625.27 723.6 C 628.26 721.73 630.82 720.83 632.96 720.92 C 635.1 721.01 636.8 722.07 638.08 724.11 C 639.41 726.23 639.59 728.26 638.62 730.21 Z M 736.41 548.69 C 718.65 590.68 693.21 628.4 660.81 660.81 C 628.4 693.22 590.68 718.66 548.69 736.41 C 505.25 754.78 459.07 764.1 411.43 764.1 C 363.79 764.1 317.61 754.78 274.17 736.41 C 232.18 718.65 194.46 693.21 162.05 660.81 C 129.64 628.4 104.21 590.68 86.45 548.69 C 68.08 505.25 58.76 459.07 58.76 411.43 C 58.76 363.79 68.08 317.61 86.45 274.17 C 104.21 232.18 129.65 194.46 162.05 162.05 C 194.46 129.64 232.18 104.21 274.17 86.45 C 317.61 68.08 363.79 58.76 411.43 58.76 C 459.07 58.76 505.25 68.08 548.69 86.45 C 590.68 104.21 628.4 129.65 660.81 162.05 C 693.22 194.46 718.65 232.18 736.41 274.17 C 754.78 317.61 764.1 363.79 764.1 411.43 C 764.1 459.07 754.78 505.25 736.41 548.69 Z M 768.18 253.57 L 752.08 261.54 C 746.34 264.38 743.95 263.28 741.11 257.54 L 729.97 235.05 C 727.13 229.31 727.7 226.74 733.44 223.9 L 749.54 215.93 C 755.28 213.09 757.67 214.19 760.51 219.93 L 771.65 242.42 C 774.49 248.16 773.92 250.73 768.18 253.57 Z M 754.84 222.15 L 766.45 245.58 L 747.1 255.17 L 735.49 231.74 Z M 223.22 90.48 L 212.79 71.57 L 225.11 64.77 C 231.65 61.17 236.73 62.58 240.08 68.66 C 244.16 76.06 240.98 80.69 232.19 85.54 L 223.23 90.49 Z M 157.93 130.1 L 154.5 114.66 L 169.16 120.26 L 157.94 130.1 Z M 69.85 239.37 L 62.31 255.53 L 53.69 251.51 L 61.23 235.35 C 62.26 233.14 63.16 232.31 65.19 233.26 L 68.9 234.99 C 70.93 235.94 70.88 237.15 69.85 239.37 Z M 540.15 760.89 L 544.73 774.22 L 530.05 779.27 L 525.47 765.94 Z M 233.79 446.1 C 235.33 445.34 236.86 444.56 238.4 443.81 C 238.65 444.98 238.91 446.14 239.16 447.31 C 237.38 446.89 235.59 446.48 233.79 446.1 Z M 190.39 258.29 C 190.39 258.29 132.17 249.26 148.09 308.38 C 148.09 308.38 160.12 257.11 220.94 295.44 C 220.94 295.44 216.98 210.19 349.37 241.59 C 349.37 241.59 201.72 164.66 190.39 258.29 Z M 594.66 279.74 C 594.66 279.74 562.26 272.85 569.34 306.55 C 569.34 306.55 577.69 278.13 610.64 301.57 C 610.64 301.57 611.1 253.56 684.45 275.35 C 684.45 275.35 603.97 227.52 594.65 279.73 Z M 698.99 391.47 C 698.99 391.47 704.64 433.47 676.76 465.05 C 648.89 496.65 579.61 509.19 437.8 445.16 C 437.8 445.16 528.21 503.68 587.44 517.83 C 648.21 532.3 722.23 523.27 739.34 465.91 C 756.36 408.54 715.93 382.42 699 391.48 Z M 489.62 408.87 C 488.16 408.12 487.8 406.76 487.53 404.79 C 487.25 402.76 487.59 401.42 487.59 401.42 C 485.59 401.78 484.26 401.58 484.26 401.58 C 487.3 401.4 488.84 398.93 488.95 398.76 C 488.89 398.87 487.85 400.6 488.73 401.17 C 496.57 406.27 501.81 402.65 501.81 402.65 C 500.84 404.03 497.92 404.88 497.92 404.88 C 497.92 404.88 493.66 410.96 489.62 408.88 Z M 489.95 402.89 C 489.37 402.61 488.89 402.31 488.55 402.05 C 488.4 401.93 487.87 406.33 489.62 407.81 L 489.96 402.89 Z M 491.92 408.38 L 493.75 404.28 C 492.67 403.98 491.55 403.59 490.6 403.18 L 490.26 408.17 C 490.82 408.39 491.38 408.44 491.92 408.38 Z M 496.97 404.87 C 496.27 404.85 495.36 404.7 494.4 404.46 L 492.73 408.21 C 495.08 407.45 496.98 404.88 496.98 404.88 Z M 572.09 598.67 C 567.38 597.08 563.7 595.52 561.36 594.45 C 527.12 609.28 496.1 608.59 465.05 598.18 C 411.87 580.36 357.27 536.09 272.65 493.1 C 260.71 487.01 249.16 482.29 238.09 478.6 C 161.62 453.19 106.03 479.69 82.91 494.4 C 82.37 494.73 81.99 494.98 81.5 495.31 C 85.63 511.84 91 527.98 97.53 543.65 C 133.15 527.56 207.35 508.45 300.64 563.74 C 432.89 642.16 499.25 663.59 618.04 629.88 C 618.04 629.88 523.63 669.28 418.29 636.78 C 318.2 605.88 236.27 496.96 105.48 561.24 C 143.76 640.09 212.52 704.05 302.27 733.87 C 478.11 792.29 669.93 698.4 729.57 523.33 C 714.53 532.89 701.65 536.7 696.74 538.35 C 658.96 615.04 597.76 607.86 572.1 598.67 Z M 467.61 490.89 L 466.18 491.23 C 463.82 491.78 461.5 492.32 459.13 492.83 C 453.08 494.15 447.05 495.33 441.05 496.39 C 494.01 534.41 531.63 563.04 581.22 577.88 C 646.55 597.42 670.99 538.32 670.99 538.32 C 670.99 538.32 620.16 544.62 549.03 517.02 C 531.16 510.08 509.57 498.75 486.09 486 C 484.77 486.38 483.47 486.77 482.12 487.15 L 481.19 487.4 C 479.15 487.96 477.06 488.52 474.95 489.07 L 474.28 489.25 C 472.11 489.81 469.87 490.36 467.6 490.9 Z M 343.75 322.16 L 468.4 294.99 C 469.02 296.15 469.66 297.33 470.32 298.54 C 471.36 300.46 472.42 302.42 473.48 304.44 C 542.34 300.71 576.9 326.81 585.16 364.71 C 587.37 374.83 587.51 384.96 585.33 394.86 L 585.33 394.86 C 579.14 422.73 554.4 448.84 504.74 467.5 C 484.38 460.63 462.59 451.97 439.45 441.52 C 438.92 441.28 438.36 441.16 437.81 441.16 C 436.39 441.16 435.02 441.92 434.3 443.25 C 433.3 445.09 433.88 447.39 435.64 448.52 C 437.29 449.59 455.6 461.38 480.63 475.4 C 473.07 477.55 465.08 479.56 456.61 481.4 C 441.42 484.71 426.48 487.12 411.99 488.7 C 396.81 478.74 380.84 468.86 364.25 459.65 C 370.22 460.63 376.47 460.55 382.75 459.18 C 398.42 455.76 410.75 445.15 417.03 431.57 L 416.98 431.57 C 421.35 422.15 422.8 411.3 420.43 400.41 C 414.61 373.72 388.23 356.91 361.68 362.69 C 334.98 368.51 318.14 394.74 323.96 421.44 C 326.01 430.85 330.64 439.05 336.95 445.47 C 309 431.97 279.66 421.09 249.65 415.37 C 258.82 387.4 293.58 358.49 342.79 336.83 C 343.08 333.16 343.29 329.62 343.53 326.2 L 343.76 322.18 Z M 440.12 396.39 C 442.46 407.15 448.17 416.33 455.91 423.07 L 456 423.05 C 467.35 432.9 483.05 437.49 498.9 434.04 C 514.66 430.6 527.04 419.9 533.29 406.21 L 533.29 406.21 C 537.54 396.86 538.93 386.13 536.59 375.37 C 530.77 348.68 504.39 331.87 477.84 337.65 C 451.14 343.47 434.3 369.7 440.12 396.4 Z M 353.19 445.46 L 353.19 445.46 C 349.47 443.42 346.01 440.75 343 437.45 C 328.35 421.26 329.44 396.39 345.63 381.74 C 361.67 367.12 386.68 368.18 401.34 384.37 C 414.23 398.51 414.78 419.53 403.76 434.43 L 403.82 434.43 C 402.33 436.43 400.65 438.34 398.74 440.09 C 385.88 451.73 367.52 453.33 353.19 445.45 Z M 360.45 395.1 C 363.99 398.94 369.96 399.38 373.95 395.81 C 377.79 392.27 378.05 386.18 374.48 382.19 C 370.94 378.35 365 378.06 361.01 381.63 C 357.17 385.17 356.91 391.26 360.45 395.1 Z M 461.27 401.93 C 461.27 401.93 461.24 401.93 461.23 401.93 C 461.22 401.93 461.23 401.94 461.22 401.95 C 461.22 401.94 461.24 401.93 461.28 401.93 Z M 463.09 416.1 C 463.66 415.86 464.2 415.67 464.72 415.55 C 465.24 415.44 465.73 415.4 466.21 415.41 C 466.32 415.07 466.43 414.73 466.56 414.39 C 466.77 413.86 466.87 413.27 466.85 412.65 C 466.84 412.15 466.85 411.53 466.85 410.88 C 466.85 410.71 466.85 410.52 466.85 410.34 C 466.36 410.38 465.84 410.45 465.29 410.57 C 463.72 410.91 462.21 411.56 460.81 412.5 C 460.66 412.6 460.5 412.67 460.34 412.7 C 460.05 412.76 459.74 412.72 459.48 412.58 C 459.17 412.41 458.95 412.11 458.87 411.77 C 458.76 411.25 458.94 410.79 459.61 409.87 C 460.07 409.24 460.67 408.56 461.29 407.94 C 462.58 406.67 464.62 405.05 467.04 404.51 C 467.04 404.48 467.04 404.45 467.05 404.42 C 465.64 404.47 464.31 404.26 463.33 404.03 C 460.23 403.3 460.07 402.59 459.99 402.21 C 459.9 401.8 460.02 401.38 460.32 401.09 C 460.49 400.92 460.7 400.8 460.94 400.75 C 461.04 400.73 461.14 400.72 461.25 400.72 C 462.16 400.73 463.05 400.64 463.91 400.45 C 466.47 399.89 468.15 398.58 468.86 397.92 C 469.59 396.36 470.4 395.19 471.1 394.38 C 470.31 394.16 468.82 393.7 467.26 392.94 C 464.06 391.39 462.31 389.46 462.04 387.2 C 461.56 383.21 465.82 379.01 475.05 374.38 C 480.17 371.81 483.61 368.69 486.37 366.19 C 489.13 363.69 491.31 361.71 494.07 361.11 C 494.16 361.09 494.25 361.07 494.34 361.06 C 496.15 360.73 498.38 361.59 499.9 363.19 C 502.6 366.03 502.18 369.93 501.69 371.99 C 501.58 372.46 501.52 373.36 501.46 374.23 C 501.46 374.23 501.46 374.25 501.46 374.26 C 502.36 374.59 504.07 375.2 506.6 375.95 C 507.38 376.18 507.86 376.82 507.83 377.58 C 507.8 378.28 507.42 379.28 504.78 381.37 C 503.61 382.3 502.11 383.33 500.45 384.37 C 501.11 384.53 501.63 384.62 501.85 384.58 L 501.89 384.58 C 504.32 384.04 506.5 382.78 508.43 381.66 C 509.88 380.82 511.12 380.1 512.23 379.86 C 512.28 379.86 512.32 379.85 512.36 379.84 C 512.64 379.26 512.91 378.64 513.13 377.97 C 514.34 374.05 514.19 369.98 512.71 366.14 C 510.6 360.71 506.15 358.52 504.99 357.95 C 504.91 357.91 504.73 357.81 504.93 357.83 C 506.23 358.09 507.9 358.83 509.07 359.61 C 511.86 361.36 514.69 365.75 515.2 371.7 C 515.46 374.08 515.49 376.39 514.99 378.7 C 514.93 379 514.87 379.28 514.81 379.57 C 514.71 380.06 514.79 380.02 515.04 379.82 C 517.76 377.64 521.59 374.65 523.94 368.97 C 522.32 365.55 520.18 362.3 517.49 359.36 C 504.65 345.17 483.86 342.61 468.11 352.02 C 471.03 351.69 474.03 352.71 476.16 355.02 C 479.73 359.01 479.47 365.1 475.63 368.64 C 471.64 372.21 465.67 371.77 462.13 367.93 C 459.66 365.25 459.05 361.47 460.21 358.23 C 445.54 373.03 444.98 396.78 459.15 412.43 C 460.38 413.78 461.69 414.99 463.05 416.12 Z M 517.7 380.64 C 517.08 381.22 516.44 381.8 515.81 382.36 C 517.11 386.89 515.18 394.55 511.19 400.34 C 507.5 405.69 501.18 409.19 498.14 410.87 C 497.5 411.22 497 411.5 496.72 411.68 C 496.4 411.89 496 412.13 495.58 412.38 C 494.45 413.06 493.04 413.9 492.01 414.86 C 491.74 415.11 491.54 415.43 491.37 415.79 C 492.04 415.91 492.76 416.11 493.55 416.43 C 496.4 417.5 498.63 419.99 499.1 422.63 C 499.16 422.99 499.18 423.34 499.18 423.69 C 504.84 422.08 510.24 419.19 514.91 414.96 C 516.89 413.13 518.64 411.15 520.17 409.05 L 520.2 409.05 C 528.37 397.74 529.95 383.01 524.63 370.43 C 522.88 375.54 519.87 378.56 517.7 380.63 Z M 511.59 381.35 C 511.59 381.35 511.63 381.34 511.65 381.33 L 511.65 381.33 C 511.63 381.33 511.61 381.35 511.59 381.35 Z M 746.99 403.54 C 745.81 401.54 744.63 399.8 743.52 398.31 C 734.27 385.92 720.58 378.23 707.79 378.23 C 702.97 378.23 698.55 379.29 694.65 381.38 C 690.35 383.68 687.93 388.43 688.54 393.27 C 688.59 393.64 692.98 430.56 669.15 457.55 C 656.46 471.94 634.5 479.54 605.64 479.54 C 582.23 479.54 554.71 474.74 523.34 465.22 C 569.06 444.11 585.33 417.52 590.15 396.18 C 590.17 396.1 590.19 396.02 590.21 395.94 C 592.5 385.54 592.45 374.68 590.04 363.65 C 584.78 339.54 564.31 299.09 486.23 299.09 C 483.04 299.09 479.74 299.16 476.41 299.3 C 475.84 298.24 475.28 297.19 474.72 296.16 C 474.09 295 473.49 293.88 472.89 292.77 L 472.81 292.63 C 472.33 291.74 471.61 291.04 470.75 290.58 C 470.68 290.37 470.59 290.16 470.49 289.96 C 470.28 289.54 465.25 279.77 459.46 276.92 C 456.5 275.39 453.29 274.58 450.16 274.58 C 448.85 274.58 447.55 274.72 446.29 274.99 L 427.32 279.12 C 425.12 276.27 421.66 274.46 417.89 274.46 C 417.06 274.46 416.22 274.55 415.4 274.73 L 411.94 275.48 L 405.8 247.3 C 405.34 245.19 405.72 243.1 406.87 241.42 C 406.9 241.38 406.93 241.33 406.96 241.29 C 408.13 239.46 409.95 238.17 411.87 237.75 L 418.68 236.36 C 420.34 238.97 423.31 240.68 426.58 240.68 C 427.25 240.68 427.92 240.61 428.58 240.47 C 430.99 239.95 433.04 238.52 434.36 236.46 C 435.68 234.4 436.12 231.94 435.6 229.53 L 431.43 210.42 C 430.5 206.16 426.82 203.18 422.47 203.18 C 421.81 203.18 421.14 203.25 420.5 203.39 C 416.47 204.27 413.6 207.6 413.17 211.44 L 406.5 212.8 C 397.66 214.73 390.13 219.95 385.27 227.51 C 380.49 234.96 378.82 244.17 380.7 252.78 L 386.84 280.96 L 383.38 281.71 C 380.24 282.39 377.58 284.25 375.89 286.94 C 375.16 288.1 374.64 289.36 374.35 290.67 L 355.42 294.8 C 351.07 295.75 347.21 298.25 344.24 302.03 C 340.1 307.09 339.19 318.21 339.18 318.32 C 339.14 318.85 339.18 319.37 339.3 319.87 C 338.99 320.48 338.8 321.15 338.76 321.87 L 338.53 325.84 L 338.31 329.09 C 338.22 330.52 338.12 331.98 338.01 333.46 C 307.34 347.27 282.31 363.87 265.47 381.58 C 257.39 390.07 251.38 398.65 247.49 407.15 C 233.48 404.75 219.58 403.51 206.13 403.51 C 141.89 403.51 98.16 430.45 74.04 451.16 C 72.36 437.49 71.47 423.57 71.47 409.44 C 71.47 222.88 222.7 71.65 409.26 71.65 C 595.82 71.65 743.83 219.71 746.98 403.55 Z M 351.22 238.04 C 350.63 237.73 336.5 230.41 316.49 222.97 C 289.49 212.94 265.91 207.85 246.4 207.85 C 212.53 207.85 192.06 223.76 186.97 253.93 C 185.71 253.85 184.2 253.79 182.51 253.79 C 173.59 253.79 157.26 255.59 148.05 267.61 C 140.64 277.28 139.35 291.34 144.22 309.42 C 144.69 311.17 146.28 312.38 148.08 312.38 C 148.1 312.38 148.12 312.38 148.14 312.38 C 149.97 312.36 151.55 311.09 151.98 309.31 C 152.22 308.33 158.04 285.22 181.39 285.22 C 191.89 285.22 204.48 289.8 218.81 298.83 C 219.46 299.24 220.2 299.44 220.93 299.44 C 221.62 299.44 222.32 299.26 222.94 298.9 C 224.23 298.15 224.99 296.75 224.93 295.27 C 224.93 295.06 224.24 274.22 239.68 258.12 C 252.08 245.2 271.35 238.65 296.96 238.65 C 311.99 238.65 329.31 240.95 348.44 245.49 C 348.75 245.56 349.06 245.6 349.36 245.6 C 351 245.6 352.51 244.59 353.11 243 C 353.82 241.11 353 238.99 351.21 238.06 Z M 686.5 271.92 C 685.09 271.08 651.56 251.34 624.47 251.34 C 606.97 251.34 595.65 259.6 591.54 275.29 C 590.56 275.21 589.44 275.15 588.23 275.15 C 579.73 275.15 573.06 277.83 568.94 282.9 C 564.37 288.53 563.19 296.76 565.42 307.37 C 565.8 309.16 567.34 310.45 569.16 310.53 C 569.22 310.53 569.28 310.53 569.34 310.53 C 571.09 310.53 572.65 309.38 573.17 307.69 C 573.31 307.23 576.77 296.3 587.66 296.3 C 593.41 296.3 600.37 299.17 608.32 304.83 C 609.01 305.32 609.81 305.56 610.63 305.56 C 611.25 305.56 611.87 305.42 612.44 305.13 C 613.77 304.46 614.61 303.11 614.64 301.62 C 614.66 300.48 615.55 273.68 650.77 273.68 C 660.06 273.68 671.01 275.53 683.31 279.19 C 683.69 279.3 684.07 279.36 684.45 279.36 C 686 279.36 687.46 278.45 688.11 276.96 C 688.92 275.11 688.22 272.95 686.49 271.92 Z M 467.2 403.23 C 467.2 403.23 467.25 403.23 467.27 403.23 L 467.27 403.23 C 467.25 403.23 467.22 403.23 467.2 403.23 Z M 475.63 375.46 C 474.43 376.06 473.34 376.65 472.34 377.21 C 473.34 376.64 474.43 376.06 475.63 375.46 C 475.65 375.45 475.68 375.43 475.7 375.42 C 475.68 375.43 475.65 375.45 475.63 375.46 Z M 493.65 382.11 C 497.09 381.36 500.5 383.55 501.25 386.99 C 502 390.43 499.81 393.84 496.37 394.59 C 496.32 394.6 496.28 394.61 496.23 394.61 L 495.45 394.76 C 494.59 396.3 493.1 397.47 491.24 397.88 C 487.8 398.63 484.39 396.44 483.64 393 C 482.89 389.56 485.08 386.15 488.52 385.4 C 488.8 385.34 489.08 385.3 489.36 385.27 L 489.83 384.61 C 490.75 383.32 492.11 382.43 493.65 382.1 Z M 494.94 390.54 C 494.33 387.74 491.57 385.97 488.77 386.58 C 485.97 387.19 484.2 389.95 484.81 392.75 C 485.42 395.55 488.18 397.32 490.98 396.71 C 493.78 396.1 495.55 393.34 494.94 390.54 Z M 493.9 383.29 C 492.6 383.57 491.52 384.33 490.8 385.33 C 492.43 385.57 493.9 386.44 494.91 387.73 C 495.02 387.72 495.12 387.7 495.22 387.66 C 495.8 387.4 496.04 386.69 495.76 386.08 C 495.72 386 495.68 385.92 495.62 385.85 C 496.5 385.67 497.47 386.22 497.92 387.21 C 498.42 388.33 498.05 389.58 497.1 390.01 C 496.84 390.13 496.36 390.17 496.08 390.15 C 496.03 389.94 495.96 389.74 495.89 389.55 C 495.97 389.79 496.06 390.04 496.11 390.29 C 496.35 391.37 496.29 392.44 496 393.44 C 496.03 393.44 496.07 393.44 496.1 393.42 C 498.9 392.81 500.67 390.05 500.06 387.25 C 499.45 384.45 496.69 382.68 493.89 383.29 Z M 491.34 388.78 C 491.37 388.86 491.4 388.95 491.41 389.04 C 491.53 389.7 491.12 390.33 490.49 390.44 C 490.14 390.5 489.81 390.38 489.55 390.15 C 489.44 390.51 489.41 390.91 489.48 391.31 C 489.69 392.52 490.7 393.35 491.73 393.17 C 492.76 392.99 493.43 391.87 493.22 390.66 C 493.03 389.59 492.23 388.82 491.33 388.78 Z M 467.89 400.18 C 467.94 400.15 467.99 400.12 468.04 400.09 L 468.04 400.09 C 468.04 400.09 467.94 400.15 467.89 400.18 Z M 493.98 362.4 C 494.18 362.34 494.38 362.28 494.59 362.24 C 494.51 362.25 494.44 362.27 494.36 362.29 C 494.23 362.32 494.1 362.37 493.97 362.4 Z M 466.96 405.8 C 466.84 405.84 466.71 405.86 466.59 405.9 C 466.71 405.86 466.84 405.83 466.96 405.8 Z M 488.82 421.37 C 488.89 421.24 488.95 421.1 489.01 420.97 L 489.01 420.97 C 488.95 421.11 488.89 421.24 488.83 421.38 Z M 489.06 410.39 C 487.56 409.67 487.04 409.04 486.52 407.7 C 486.61 408.79 487.1 410.46 488.61 411.06 C 490.52 411.82 492.36 410.45 492.38 410.36 C 491.69 410.78 490.15 410.91 489.06 410.39 Z M 492.41 421.67 L 492.39 421.67 L 492.37 421.65 C 491.81 421.39 491.13 421.3 490.42 421.21 C 490.35 421.21 490.28 421.19 490.22 421.18 C 489.85 422.08 489.36 422.92 488.74 423.7 L 488.74 425.19 C 490.25 425.18 491.75 425.08 493.25 424.9 C 493.26 424.88 493.28 424.87 493.29 424.86 L 493.31 424.83 L 493.33 424.81 C 493.73 424.26 493.86 423.59 493.69 422.99 C 493.52 422.4 493.08 421.94 492.43 421.67 Z M 348.15 305.15 C 345.92 307.83 344.47 314.9 344.17 318.71 L 466.03 292.22 C 464.32 288.85 460.35 282.89 457.21 281.38 C 453.98 279.7 450.53 279.18 447.35 279.88 C 434.76 282.62 422.17 285.37 409.58 288.11 L 424.6 284.84 C 423.81 281.2 420.11 278.83 416.47 279.62 L 408.13 281.44 L 400.92 248.37 C 400.16 244.88 400.83 241.4 402.76 238.59 C 404.54 235.82 407.39 233.61 410.88 232.85 L 420.85 230.82 L 417.47 215.67 L 407.58 217.68 C 399.84 219.37 393.53 223.92 389.5 230.2 C 385.59 236.3 383.95 244.12 385.61 251.7 L 392.82 284.77 L 384.48 286.59 C 380.69 287.42 378.47 291.08 379.26 294.72 C 371.69 296.37 364.1 298.03 356.51 299.68 C 353.32 300.37 350.4 302.28 348.17 305.15 Z M 460.45 410.81 C 460.62 410.56 460.85 410.26 461.12 409.94 C 460.85 410.27 460.62 410.56 460.45 410.81 Z M 421.95 230.44 L 422.38 232.41 C 422.88 234.69 425.24 236.08 427.52 235.58 C 429.8 235.08 431.22 232.87 430.72 230.59 L 426.55 211.48 C 426.05 209.2 423.84 207.78 421.56 208.28 C 419.28 208.78 417.71 211.03 418.21 213.3 L 418.64 215.27 Z M 460.16 411.5 C 460.16 411.5 460.11 411.52 460.09 411.51 C 460.09 411.51 460.09 411.52 460.1 411.52 C 460.11 411.52 460.13 411.51 460.16 411.49 Z M 415.74 548.93 C 500.92 602.53 539.45 578.04 539.45 578.04 C 483.53 554.45 371.54 441.41 246.37 418.81 C 156.44 402.6 99.53 441.82 74.6 465.19 C 74.97 466.38 75.29 467.61 75.52 468.93 C 75.61 469.47 75.67 470.02 75.72 470.57 C 199.12 396.14 333.97 497.58 415.74 548.93 Z M 466.87 409.14 L 466.87 409.14 C 466.72 409.14 466.57 409.16 466.41 409.18 C 466.57 409.16 466.72 409.15 466.87 409.14 Z M 464.88 416.76 C 464.94 416.75 465 416.73 465.05 416.72 C 465.02 416.72 464.99 416.72 464.97 416.73 C 464.94 416.73 464.91 416.75 464.88 416.76 Z" fill="rgb(241, 242, 242)" height="822.8600000000001px" id="h0Vw5B4Ha" transform="translate(129.21 129.07)" width="822.8599999999999px"/></svg>