<svg display="block" role="presentation" viewBox="0 0 1080 1080" xmlns="http://www.w3.org/2000/svg"><path d="M 181.22 621.15 C 181.22 621.15 157.56 629.16 139.82 617.36 C 126.4 608.43 122.65 591.26 122.65 591.26 C 122.65 591.26 129.8 604.48 145.59 613.41 C 163.99 623.82 181.22 621.16 181.22 621.16 Z M 217.41 586.01 C 217.41 586.01 202.73 592.5 184.08 587.99 C 168.09 584.13 158.86 574.49 158.86 574.49 C 158.86 574.49 166.41 588.54 180.34 592.99 C 198.75 598.87 217.4 586 217.4 586 Z M 237.65 562.41 C 237.65 562.41 227.34 566.9 214.45 563.79 C 203.39 561.12 197.18 554.45 197.18 554.45 C 197.18 554.45 202.4 564.17 212.03 567.24 C 224.76 571.31 237.65 562.41 237.65 562.41 Z M 950.16 421.08 C 949.96 419.38 947.44 419.52 947.43 421.24 L 947.43 421.24 C 946.55 646.48 759.24 831.15 534 829.76 C 500.25 829.55 469.09 825.8 438.65 818.15 C 412.64 811.61 385.06 817.93 364.42 835.05 C 350.49 846.6 336.15 859.18 328.74 867.7 C 323.48 873.75 312.34 873.51 305.51 869.31 C 296.05 863.49 246.62 831.45 245.57 826.49 C 244.99 823.77 245.56 821.87 247.66 820.27 L 251.29 817.51 C 251.29 817.51 246.23 818.52 244.53 818.71 C 241.66 819.03 236.04 819.4 232.99 819.22 C 229.71 819.02 228.09 818.1 226.54 815.86 C 225.22 813.95 229.34 811.65 231.82 810.5 C 245.07 804.32 251.81 798.29 263.5 808.85 C 268.76 813.6 270.92 816.07 270.95 816.11 L 256.31 824.82 C 254.84 825.63 254.71 827.69 256.07 828.66 C 265.99 835.76 298.02 858.64 305.05 863.02 C 311.92 867.31 321.49 867.18 326.81 861.07 C 334.04 852.75 352.26 836.95 366.83 824.73 C 379.79 813.85 396.24 808.01 413.17 808.26 L 413.17 808.26 C 412.76 808.11 411.65 807.78 410.11 807.35 C 389.52 801.58 369.48 794.02 350.29 784.6 C 346.3 782.64 342.6 780.75 339.57 779.09 L 339.57 779.09 C 330.33 793.48 316.79 804.69 300.78 811.01 C 300.69 811.05 300.6 811.08 300.51 811.12 C 291.6 814.61 285.36 810.67 282.2 808.63 C 279.04 806.59 269.32 798.06 264.62 795.29 C 259.92 792.51 256.27 792.25 253.38 792.47 C 249.36 792.78 238.23 794.9 237.47 795.07 C 236.7 795.25 219.35 798.85 219.35 798.85 C 219.35 798.85 217.3 793.2 216.47 791.38 C 215.7 789.71 214.96 788.55 211.74 785.73 C 208.52 782.91 202.45 787.18 199.28 788.26 C 196.12 789.34 192.87 787.61 188.15 783.01 C 183.43 778.41 186.56 765.18 186.56 765.18 C 186.56 765.18 191.97 732.21 189.76 722.74 C 187.55 713.27 174.74 700.8 161.9 686.69 C 149.07 672.58 134.01 642.19 132.34 639.84 C 130.66 637.48 119.36 638.18 105.28 632.68 C 95.73 628.95 88.49 619.99 87.74 620.8 C 70.05 640.07 93.36 659.53 93.36 659.53 C 93.36 659.53 87.03 657.99 79.16 653.69 C 70.8 649.12 65.9 639.59 63.03 629.46 C 58.12 612.09 59.33 593.55 65.84 576.71 L 72.04 560.68 L 70.18 561.93 C 62.23 567.29 52.63 569.65 43.1 568.59 L 49.38 563.73 C 69.68 548.04 86.69 528.48 99.4 506.19 L 94.84 507.34 C 85.57 509.68 75.88 509.76 66.58 507.57 L 83.26 500.76 C 85.86 499.7 88.63 498.27 91.47 496.58 C 96.96 493.33 101.96 489.49 106.51 485.11 C 120.48 471.68 127.95 452.79 127.3 433.42 C 127.15 428.84 127.07 424.24 127.07 419.62 C 127.07 193.09 310.71 9.44 537.25 9.44 C 545.09 9.44 552.88 9.66 560.62 10.1 C 562.31 10.2 562.6 7.72 560.94 7.43 C 533.54 2.54 505.33 -0.01 476.52 0 C 209.76 0.09 -5.83 220.84 0.12 487.53 C 6.76 784.79 285.53 1014.93 597.12 938.62 C 764.41 897.65 895.4 766.99 937.75 600.04 C 953.36 538.49 956.81 478.26 950.15 421.11 Z" fill="rgb(241, 242, 242)" height="953.3709737108838px" id="YX6Y0cNqs" transform="translate(63.31 63.35)" width="953.3709295461051px"/><path d="M 90.37 54.24 L 94.37 63.13 L 55.24 63.13 L 55.24 54.24 L 69.91 54.24 L 69.91 8.89 L 57.24 8.89 L 57.24 0 L 78.81 0 L 78.81 54.25 L 90.37 54.25 Z M 147.72 32.9 L 147.72 42.5 L 122.89 42.5 L 117.49 43.5 L 117.49 47.04 C 117.49 50.95 120.69 54.15 124.6 54.15 L 131.71 54.15 C 135.62 54.15 138.82 50.95 138.82 47.04 L 138.82 47.15 L 147.71 46.15 L 147.71 47.04 C 147.71 55.84 140.6 63.14 131.7 63.14 L 124.59 63.14 C 115.79 63.14 108.58 55.85 108.58 47.04 L 108.58 33.79 C 108.58 24.9 115.78 17.78 124.59 17.78 L 131.7 17.78 C 140.33 17.78 147.26 24.45 147.71 32.9 Z M 138.83 33.78 C 138.83 29.78 135.72 26.67 131.72 26.67 L 124.61 26.67 C 120.61 26.67 117.5 29.87 117.5 33.78 L 117.5 36.38 L 122.9 35.38 L 138.84 35.38 L 138.84 33.78 Z M 254.42 33.78 L 254.42 47.12 C 254.42 56.01 247.22 63.13 238.41 63.13 L 231.56 63.13 L 224.18 58.15 L 224.18 81.81 L 215.29 81.81 L 215.29 22.78 L 224.18 17.78 L 224.18 22.76 L 231.56 17.78 L 238.41 17.78 C 247.21 17.78 254.42 24.98 254.42 33.79 Z M 245.53 33.78 C 245.53 29.87 242.33 26.67 238.42 26.67 L 234.33 26.67 L 224.19 33.52 L 224.19 47.39 L 234.33 54.24 L 238.42 54.24 C 242.33 54.24 245.53 51.04 245.53 47.13 L 245.53 33.79 Z M 414.48 43.57 L 414.48 47.13 C 414.48 56.02 407.37 63.14 398.47 63.14 L 375.35 63.14 L 375.35 0.89 L 396.69 0.89 C 405.58 0.89 412.7 8 412.7 16.9 L 412.7 20.46 C 412.7 24.55 411.19 28.37 408.61 31.13 C 412.17 34.06 414.48 38.51 414.48 43.58 Z M 384.25 27.56 L 396.7 27.56 C 400.7 27.56 403.81 24.45 403.81 20.45 L 403.81 16.89 C 403.81 12.89 400.7 9.78 396.7 9.78 L 384.25 9.78 L 384.25 27.57 Z M 405.59 43.57 C 405.59 39.57 402.48 36.46 398.48 36.46 L 384.25 36.46 L 384.25 54.25 L 398.48 54.25 C 402.48 54.25 405.59 51.14 405.59 47.14 L 405.59 43.58 Z M 467.83 33.78 L 467.83 47.21 C 467.83 56.1 460.71 63.13 451.82 63.13 L 444.71 63.13 C 435.82 63.13 428.7 56.1 428.7 47.21 L 428.7 33.78 C 428.7 24.89 435.81 17.77 444.71 17.77 L 451.82 17.77 C 460.71 17.77 467.83 24.88 467.83 33.78 Z M 458.94 33.78 C 458.94 29.78 455.83 26.67 451.83 26.67 L 444.72 26.67 C 440.72 26.67 437.61 29.78 437.61 33.78 L 437.61 47.21 C 437.61 51.21 440.72 54.15 444.72 54.24 L 451.83 54.24 C 455.83 54.24 458.94 51.22 458.94 47.21 Z M 505.62 0.88 L 495.84 0.88 L 495.84 9.77 L 505.62 9.77 Z M 516.19 54.24 L 505.63 54.24 L 505.63 17.78 L 485.06 17.78 L 485.06 26.67 L 496.73 26.67 L 496.73 54.24 L 482.06 54.24 L 482.06 63.13 L 519.19 63.13 Z M 287.77 46.32 L 285.32 39.12 L 278.07 17.78 L 268.64 17.78 L 280.5 52.39 L 282.96 59.57 L 278.05 72.91 L 269.28 72.91 L 274.78 81.8 L 284.29 81.8 L 307.77 17.77 L 298.26 17.77 Z M 11.67 15.64 C 11.67 11.99 14.52 9.77 19.32 9.77 L 23.5 9.77 C 27.77 9.77 31.24 13.23 31.24 17.51 L 31.24 20.12 L 39.03 20.12 L 39.17 18.47 C 39.6 13.33 37.74 8.18 33.86 4.78 C 31.32 2.56 28.1 1.13 24.55 0.91 C 24.21 0.89 23.86 0.88 23.51 0.88 L 19.33 0.88 C 9.64 0.88 2.79 6.93 2.79 15.64 C 2.79 32.54 32.14 35.2 32.14 47.48 C 32.14 51.39 28.94 54.24 24.4 54.24 L 18.44 54.24 C 14.23 54.24 10.79 50.8 10.79 46.59 L 10.79 43.03 L 2 43.03 L 0 51.96 L 2.81 51.96 C 5.03 58.46 11.17 63.13 18.45 63.13 L 24.41 63.13 C 33.84 63.13 41.04 56.37 41.04 47.48 C 41.04 28.72 11.69 25.07 11.69 15.64 Z M 201.07 32.9 L 201.07 42.5 L 176.24 42.5 L 170.84 43.5 L 170.84 47.04 C 170.84 50.95 174.04 54.15 177.95 54.15 L 185.06 54.15 C 188.97 54.15 192.17 50.95 192.17 47.04 L 192.17 47.15 L 201.06 46.15 L 201.06 47.04 C 201.06 55.84 193.95 63.14 185.05 63.14 L 177.94 63.14 C 169.14 63.14 161.93 55.85 161.93 47.04 L 161.93 33.79 C 161.93 24.9 169.13 17.78 177.94 17.78 L 185.05 17.78 C 193.68 17.78 200.61 24.45 201.06 32.9 Z M 192.18 33.78 C 192.18 29.78 189.07 26.67 185.07 26.67 L 177.96 26.67 C 173.96 26.67 170.85 29.87 170.85 33.78 L 170.85 36.38 L 176.25 35.38 L 192.19 35.38 L 192.19 33.78 Z" fill="rgb(241, 242, 242)" height="81.81000068664548px" id="olfoj6jmx" transform="translate(319.35 500.55)" width="519.1899975585937px"/></svg>