<svg display="block" role="presentation" viewBox="0 0 1080 1080" xmlns="http://www.w3.org/2000/svg"><defs ><linearGradient id="UDXTbjq6w-1051358761-linear-gradient" x1="0.6432672228639145" x2="0.35673277713608553" y1="0" y2="1"><stop offset="0" stop-color="rgb(61, 255, 0)"/><stop offset="1" stop-color="rgb(0, 136, 0)"/></linearGradient></defs><path d="M 657.84 0.01 L 219.28 0.01 L 203.76 26.89 L 233.8 78.63 L 251.99 109.96 L 96.2 379.8 L 267.38 676.29 L 579.87 676.29 L 597.95 707.71 L 249.24 707.71 L 59.92 379.8 L 218.78 109.96 L 188.74 58.22 L 0 379.8 L 219.28 759.6 L 657.84 759.6 L 877.12 379.8 L 657.84 0 Z M 297.34 624.42 L 278.89 592.46 L 496.54 592.46 L 466.57 540.57 L 248.93 540.57 L 156.11 379.81 L 282.03 161.71 L 301.03 194.43 L 323.43 233.01 L 331.09 246.13 L 364.13 302.72 L 478.31 302.72 L 508.55 353.87 L 208.33 353.87 L 299.91 508.79 L 483.08 508.79 L 501.14 539.72 L 508.59 552.48 L 531.11 591.61 L 550 624.43 L 297.33 624.43 Z M 375.86 219.9 L 530.88 219.9 L 623.2 379.81 L 545.97 513.58 L 512.87 456.9 L 329.51 456.9 L 299.27 405.75 L 599.49 405.75 L 507.91 250.83 L 393.92 250.83 Z M 642.87 681.76 L 624.76 650.29 L 594.85 598.32 L 575.93 565.45 L 683.11 379.81 L 560.83 168.02 L 345.68 168.02 L 326.63 135.2 L 579.78 135.2 L 721 379.81 L 612.92 581.89 L 642.83 633.86 L 780.91 379.82 L 609.73 83.33 L 296.5 83.33 L 278.26 51.91 L 627.87 51.91 L 817.19 379.83 L 642.86 681.78 Z" fill="url(#UDXTbjq6w-1051358761-linear-gradient)" height="759.5999999999999px" id="UDXTbjq6w" transform="translate(101.44 160.19)" width="877.1200000000001px"/></svg>